B612-Bold.ufo
<glyph name="quotedbl" format="1">
  <advance width="800"/>
  <unicode hex="0022"/>
  <outline>
    <contour>
      <point x="674" y="1500" type="line"/>
      <point x="674" y="1367" type="line"/>
      <point x="674" y="1349"/>
      <point x="673" y="1300"/>
      <point x="671" y="1246"/>
      <point x="667" y="1191"/>
      <point x="664" y="1168" type="qcurve"/>
      <point x="641" y="1013" type="line"/>
      <point x="461" y="1013" type="line"/>
      <point x="438" y="1168" type="line"/>
      <point x="435" y="1191"/>
      <point x="431" y="1246"/>
      <point x="429" y="1300"/>
      <point x="428" y="1349"/>
      <point x="428" y="1367" type="qcurve"/>
      <point x="428" y="1500" type="line"/>
    </contour>
    <contour>
      <point x="374" y="1500" type="line"/>
      <point x="374" y="1367" type="line"/>
      <point x="374" y="1349"/>
      <point x="373" y="1300"/>
      <point x="371" y="1246"/>
      <point x="367" y="1191"/>
      <point x="364" y="1168" type="qcurve"/>
      <point x="341" y="1013" type="line"/>
      <point x="161" y="1013" type="line"/>
      <point x="138" y="1168" type="line"/>
      <point x="135" y="1191"/>
      <point x="131" y="1246"/>
      <point x="129" y="1300"/>
      <point x="128" y="1349"/>
      <point x="128" y="1367" type="qcurve"/>
      <point x="128" y="1500" type="line"/>
    </contour>
  </outline>
</glyph>
<glyph name="dollar" format="1">
  <advance width="1100"/>
  <unicode hex="0024"/>
  <outline>
    <contour>
      <point x="399" y="-14" type="line"/>
      <point x="293" y="-6"/>
      <point x="110" y="62"/>
      <point x="16" y="121" type="qcurve"/>
      <point x="154" y="348" type="line"/>
      <point x="176" y="333"/>
      <point x="233" y="299"/>
      <point x="297" y="267"/>
      <point x="366" y="240"/>
      <point x="399" y="233" type="qcurve"/>
      <point x="399" y="712" type="line"/>
      <point x="330" y="745"/>
      <point x="197" y="817"/>
      <point x="93" y="907"/>
      <point x="29" y="1022"/>
      <point x="29" y="1097" type="qcurve"/>
      <point x="29" y="1179"/>
      <point x="88" y="1312"/>
      <point x="189" y="1414"/>
      <point x="324" y="1483"/>
      <point x="399" y="1500" type="qcurve"/>
      <point x="399" y="1681" type="line"/>
      <point x="699" y="1719" type="line"/>
      <point x="699" y="1499" type="line"/>
      <point x="773" y="1482"/>
      <point x="916" y="1418"/>
      <point x="989" y="1369" type="qcurve"/>
      <point x="839" y="1178" type="line"/>
      <point x="797" y="1202"/>
      <point x="728" y="1238"/>
      <point x="699" y="1252" type="qcurve"/>
      <point x="699" y="866" type="line"/>
      <point x="764" y="835"/>
      <point x="888" y="759"/>
      <point x="985" y="660"/>
      <point x="1044" y="532"/>
      <point x="1044" y="448" type="qcurve"/>
      <point x="1044" y="363"/>
      <point x="989" y="224"/>
      <point x="893" y="116"/>
      <point x="764" y="39"/>
      <point x="689" y="16" type="qcurve"/>
      <point x="689" y="-190" type="line"/>
      <point x="399" y="-190" type="line"/>
    </contour>
    <contour>
      <point x="758" y="430" type="qcurve"/>
      <point x="758" y="484"/>
      <point x="692" y="564"/>
      <point x="641" y="596" type="qcurve"/>
      <point x="641" y="249" type="line"/>
      <point x="665" y="258"/>
      <point x="708" y="287"/>
      <point x="740" y="330"/>
      <point x="758" y="390"/>
    </contour>
    <contour>
      <point x="335" y="1125" type="qcurve"/>
      <point x="335" y="1096"/>
      <point x="354" y="1050"/>
      <point x="387" y="1013"/>
      <point x="431" y="984"/>
      <point x="457" y="972" type="qcurve"/>
      <point x="457" y="1268" type="line"/>
      <point x="432" y="1260"/>
      <point x="388" y="1237"/>
      <point x="355" y="1202"/>
      <point x="335" y="1155"/>
    </contour>
  </outline>
</glyph>
<glyph name="ampersand" format="1">
  <advance width="1400"/>
  <unicode hex="0026"/>
  <outline>
    <contour>
      <point x="1335" y="760" type="line"/>
      <point x="1335" y="609"/>
      <point x="1259" y="340"/>
      <point x="1179" y="229" type="qcurve"/>
      <point x="1365" y="-19" type="line"/>
      <point x="997" y="-19" type="line"/>
      <point x="953" y="42" type="line"/>
      <point x="887" y="10"/>
      <point x="741" y="-19"/>
      <point x="656" y="-19" type="qcurve"/>
      <point x="582" y="-19"/>
      <point x="435" y="14"/>
      <point x="301" y="77"/>
      <point x="187" y="166"/>
      <point x="104" y="279"/>
      <point x="56" y="413"/>
      <point x="56" y="488" type="qcurve"/>
      <point x="56" y="549"/>
      <point x="94" y="666"/>
      <point x="162" y="773"/>
      <point x="255" y="868"/>
      <point x="309" y="907" type="qcurve"/>
      <point x="274" y="965"/>
      <point x="231" y="1091"/>
      <point x="231" y="1154" type="qcurve"/>
      <point x="231" y="1241"/>
      <point x="294" y="1377"/>
      <point x="408" y="1470"/>
      <point x="565" y="1519"/>
      <point x="660" y="1519" type="qcurve"/>
      <point x="739" y="1519"/>
      <point x="868" y="1484"/>
      <point x="972" y="1425"/>
      <point x="1052" y="1349"/>
      <point x="1082" y="1308" type="qcurve"/>
      <point x="940" y="1098" type="line"/>
      <point x="915" y="1125"/>
      <point x="849" y="1191"/>
      <point x="775" y="1250"/>
      <point x="697" y="1290"/>
      <point x="660" y="1290" type="qcurve"/>
      <point x="640" y="1290"/>
      <point x="600" y="1273"/>
      <point x="568" y="1239"/>
      <point x="549" y="1187"/>
      <point x="549" y="1153" type="qcurve"/>
      <point x="549" y="1141"/>
      <point x="552" y="1116"/>
      <point x="556" y="1104" type="qcurve"/>
      <point x="560" y="1090"/>
      <point x="573" y="1058"/>
      <point x="603" y="1008"/>
      <point x="657" y="930"/>
      <point x="747" y="807"/>
      <point x="879" y="630"/>
      <point x="972" y="507" type="qcurve"/>
      <point x="986" y="558"/>
      <point x="997" y="662"/>
      <point x="999" y="725" type="qcurve"/>
    </contour>
    <contour>
      <point x="659" y="217" type="qcurve"/>
      <point x="694" y="217"/>
      <point x="760" y="231"/>
      <point x="795" y="251" type="qcurve"/>
      <point x="468" y="691" type="line"/>
      <point x="369" y="595"/>
      <point x="369" y="489" type="qcurve"/>
      <point x="369" y="428"/>
      <point x="417" y="330"/>
      <point x="497" y="259"/>
      <point x="602" y="219"/>
    </contour>
  </outline>
</glyph>
<glyph name="asterisk" format="1">
  <advance width="1100"/>
  <unicode hex="002A"/>
  <outline>
    <contour>
      <point x="741" y="926" type="line"/>
      <point x="833" y="805" type="line"/>
      <point x="665" y="654" type="line"/>
      <point x="553" y="800" type="line"/>
      <point x="498" y="990" type="line"/>
      <point x="448" y="800" type="line"/>
      <point x="347" y="656" type="line"/>
      <point x="148" y="781" type="line"/>
      <point x="270" y="950" type="line"/>
      <point x="431" y="1041" type="line"/>
      <point x="221" y="1041" type="line"/>
      <point x="70" y="1090" type="line"/>
      <point x="114" y="1309" type="line"/>
      <point x="299" y="1259" type="line"/>
      <point x="458" y="1120" type="line"/>
      <point x="391" y="1315" type="line"/>
      <point x="391" y="1446" type="line"/>
      <point x="620" y="1470" type="line"/>
      <point x="620" y="1309" type="line"/>
      <point x="543" y="1117" type="line"/>
      <point x="690" y="1247" type="line"/>
      <point x="834" y="1294" type="line"/>
      <point x="928" y="1083" type="line"/>
      <point x="790" y="1037" type="line"/>
      <point x="567" y="1037" type="line"/>
    </contour>
  </outline>
</glyph>
<glyph name="comma" format="1">
  <advance width="500"/>
  <unicode hex="002C"/>
  <outline>
    <contour>
      <point x="56" y="169" type="qcurve"/>
      <point x="56" y="205"/>
      <point x="82" y="272"/>
      <point x="132" y="324"/>
      <point x="204" y="356"/>
      <point x="250" y="356" type="qcurve"/>
      <point x="296" y="356"/>
      <point x="368" y="320"/>
      <point x="418" y="262"/>
      <point x="444" y="187"/>
      <point x="444" y="148" type="qcurve"/>
      <point x="444" y="97"/>
      <point x="412" y="-27"/>
      <point x="354" y="-152"/>
      <point x="272" y="-264"/>
      <point x="223" y="-303" type="qcurve"/>
      <point x="69" y="-238" type="line"/>
      <point x="111" y="-182"/>
      <point x="158" y="-60"/>
      <point x="165" y="0" type="qcurve"/>
      <point x="116" y="21"/>
      <point x="56" y="104"/>
    </contour>
  </outline>
</glyph>
<glyph name="hyphen" format="1">
  <advance width="900"/>
  <unicode hex="002D"/>
  <outline>
    <contour>
      <point x="124" y="624" type="line"/>
      <point x="751" y="624" type="line"/>
      <point x="751" y="400" type="line"/>
      <point x="124" y="400" type="line"/>
    </contour>
  </outline>
</glyph>
<glyph name="two" format="1">
  <advance width="1300"/>
  <unicode hex="0032"/>
  <outline>
    <contour>
      <point x="112" y="0" type="line"/>
      <point x="112" y="190" type="line"/>
      <point x="159" y="264"/>
      <point x="282" y="427"/>
      <point x="412" y="584"/>
      <point x="536" y="724"/>
      <point x="583" y="775" type="qcurve"/>
      <point x="637" y="833"/>
      <point x="713" y="913"/>
      <point x="759" y="981"/>
      <point x="780" y="1050"/>
      <point x="780" y="1097" type="qcurve"/>
      <point x="780" y="1134"/>
      <point x="755" y="1207"/>
      <point x="709" y="1265"/>
      <point x="644" y="1300"/>
      <point x="603" y="1300" type="qcurve"/>
      <point x="521" y="1300"/>
      <point x="397" y="1190"/>
      <point x="349" y="1096" type="qcurve"/>
      <point x="116" y="1183" type="line"/>
      <point x="145" y="1260"/>
      <point x="237" y="1383"/>
      <point x="362" y="1470"/>
      <point x="521" y="1517"/>
      <point x="618" y="1517" type="qcurve"/>
      <point x="732" y="1517"/>
      <point x="910" y="1442"/>
      <point x="1033" y="1320"/>
      <point x="1097" y="1165"/>
      <point x="1097" y="1086" type="qcurve"/>
      <point x="1097" y="1016"/>
      <point x="1053" y="898"/>
      <point x="979" y="789"/>
      <point x="885" y="681"/>
      <point x="835" y="621" type="qcurve"/>
      <point x="785" y="561"/>
      <point x="678" y="437"/>
      <point x="581" y="325"/>
      <point x="502" y="231"/>
      <point x="480" y="200" type="qcurve"/>
      <point x="1122" y="200" type="line"/>
      <point x="1122" y="0" type="line"/>
    </contour>
  </outline>
</glyph>
<glyph name="four" format="1">
  <advance width="1300"/>
  <unicode hex="0034"/>
  <outline>
    <contour>
      <point x="1139" y="300" type="line"/>
      <point x="961" y="300" type="line"/>
      <point x="961" y="0" type="line"/>
      <point x="640" y="0" type="line"/>
      <point x="640" y="300" type="line"/>
      <point x="40" y="300" type="line"/>
      <point x="40" y="500" type="line"/>
      <point x="535" y="1525" type="line"/>
      <point x="850" y="1492" type="line"/>
      <point x="523" y="763" type="line"/>
      <point x="349" y="500" type="line"/>
      <point x="640" y="500" type="line"/>
      <point x="640" y="799" type="line"/>
      <point x="961" y="772" type="line"/>
      <point x="961" y="500" type="line"/>
      <point x="1160" y="500" type="line"/>
    </contour>
  </outline>
</glyph>
<glyph name="six" format="1">
  <advance width="1300"/>
  <unicode hex="0036"/>
  <outline>
    <contour>
      <point x="993" y="1280" type="line"/>
      <point x="967" y="1294"/>
      <point x="906" y="1300"/>
      <point x="882" y="1300" type="qcurve"/>
      <point x="813" y="1300"/>
      <point x="666" y="1233"/>
      <point x="536" y="1105"/>
      <point x="439" y="919"/>
      <point x="421" y="800" type="qcurve"/>
      <point x="586" y="945" type="line"/>
      <point x="613" y="950"/>
      <point x="664" y="956"/>
      <point x="687" y="956" type="qcurve"/>
      <point x="784" y="956"/>
      <point x="965" y="907"/>
      <point x="1105" y="802"/>
      <point x="1189" y="639"/>
      <point x="1189" y="525" type="qcurve"/>
      <point x="1189" y="414"/>
      <point x="1109" y="217"/>
      <point x="964" y="69"/>
      <point x="760" y="-17"/>
      <point x="637" y="-17" type="qcurve"/>
      <point x="529" y="-17"/>
      <point x="364" y="47"/>
      <point x="241" y="152"/>
      <point x="157" y="287"/>
      <point x="106" y="430"/>
      <point x="84" y="570"/>
      <point x="84" y="627" type="qcurve"/>
      <point x="84" y="745"/>
      <point x="135" y="969"/>
      <point x="232" y="1166"/>
      <point x="373" y="1332"/>
      <point x="552" y="1451"/>
      <point x="768" y="1517"/>
      <point x="891" y="1517" type="qcurve"/>
      <point x="909" y="1517"/>
      <point x="976" y="1512"/>
      <point x="1027" y="1498" type="qcurve"/>
    </contour>
    <contour>
      <point x="673" y="756" type="qcurve"/>
      <point x="637" y="756"/>
      <point x="564" y="726"/>
      <point x="497" y="680"/>
      <point x="440" y="625"/>
      <point x="421" y="601" type="qcurve"/>
      <point x="421" y="575"/>
      <point x="422" y="532"/>
      <point x="426" y="493"/>
      <point x="432" y="455"/>
      <point x="438" y="434" type="qcurve"/>
      <point x="450" y="387"/>
      <point x="489" y="302"/>
      <point x="540" y="238"/>
      <point x="603" y="200"/>
      <point x="640" y="200" type="qcurve"/>
      <point x="694" y="200"/>
      <point x="774" y="257"/>
      <point x="827" y="348"/>
      <point x="852" y="461"/>
      <point x="852" y="516" type="qcurve"/>
      <point x="852" y="566"/>
      <point x="825" y="654"/>
      <point x="777" y="719"/>
      <point x="711" y="756"/>
    </contour>
  </outline>
</glyph>
<glyph name="seven" format="1">
  <advance width="1300"/>
  <unicode hex="0037"/>
  <outline>
    <contour>
      <point x="140" y="1500" type="line"/>
      <point x="1147" y="1500" type="line"/>
      <point x="1147" y="1339" type="line"/>
      <point x="1147" y="1312"/>
      <point x="1118" y="1236"/>
      <point x="1069" y="1143"/>
      <point x="1005" y="1034"/>
      <point x="969" y="976" type="qcurve"/>
      <point x="927" y="906"/>
      <point x="835" y="748"/>
      <point x="755" y="584"/>
      <point x="697" y="421"/>
      <point x="688" y="346" type="qcurve"/>
      <point x="684" y="310"/>
      <point x="679" y="222"/>
      <point x="677" y="129"/>
      <point x="677" y="39"/>
      <point x="677" y="0" type="qcurve"/>
      <point x="340" y="0" type="line"/>
      <point x="340" y="32"/>
      <point x="341" y="140"/>
      <point x="346" y="260"/>
      <point x="355" y="377"/>
      <point x="364" y="418" type="qcurve"/>
      <point x="383" y="507"/>
      <point x="452" y="688"/>
      <point x="537" y="860"/>
      <point x="630" y="1018"/>
      <point x="672" y="1086" type="qcurve"/>
      <point x="707" y="1143"/>
      <point x="764" y="1239"/>
      <point x="776" y="1272" type="qcurve"/>
      <point x="140" y="1272" type="line"/>
    </contour>
  </outline>
</glyph>
<glyph name="eight" format="1">
  <advance width="1300"/>
  <unicode hex="0038"/>
  <outline>
    <contour>
      <point x="616" y="1517" type="qcurve"/>
      <point x="719" y="1517"/>
      <point x="894" y="1464"/>
      <point x="1022" y="1365"/>
      <point x="1094" y="1223"/>
      <point x="1094" y="1134" type="qcurve"/>
      <point x="1094" y="1083"/>
      <point x="1054" y="997"/>
      <point x="991" y="925"/>
      <point x="910" y="867"/>
      <point x="870" y="844" type="qcurve"/>
      <point x="936" y="812"/>
      <point x="1052" y="727"/>
      <point x="1138" y="622"/>
      <point x="1187" y="498"/>
      <point x="1187" y="427" type="qcurve"/>
      <point x="1187" y="312"/>
      <point x="1090" y="144"/>
      <point x="932" y="35"/>
      <point x="728" y="-17"/>
      <point x="622" y="-17" type="qcurve"/>
      <point x="518" y="-17"/>
      <point x="323" y="42"/>
      <point x="173" y="158"/>
      <point x="82" y="329"/>
      <point x="82" y="441" type="qcurve"/>
      <point x="82" y="512"/>
      <point x="125" y="635"/>
      <point x="202" y="737"/>
      <point x="307" y="818"/>
      <point x="370" y="848" type="qcurve"/>
      <point x="324" y="875"/>
      <point x="246" y="936"/>
      <point x="188" y="1004"/>
      <point x="155" y="1080"/>
      <point x="155" y="1124" type="qcurve"/>
      <point x="155" y="1226"/>
      <point x="243" y="1375"/>
      <point x="378" y="1471"/>
      <point x="541" y="1517"/>
    </contour>
    <contour>
      <point x="862" y="422" type="qcurve"/>
      <point x="862" y="476"/>
      <point x="816" y="564"/>
      <point x="743" y="635"/>
      <point x="652" y="690"/>
      <point x="607" y="711" type="qcurve"/>
      <point x="564" y="690"/>
      <point x="491" y="635"/>
      <point x="437" y="563"/>
      <point x="406" y="475"/>
      <point x="406" y="421" type="qcurve"/>
      <point x="406" y="373"/>
      <point x="445" y="291"/>
      <point x="506" y="233"/>
      <point x="584" y="200"/>
      <point x="623" y="200" type="qcurve"/>
      <point x="668" y="200"/>
      <point x="754" y="230"/>
      <point x="821" y="287"/>
      <point x="862" y="369"/>
    </contour>
    <contour>
      <point x="475" y="1156" type="qcurve"/>
      <point x="475" y="1122"/>
      <point x="503" y="1065"/>
      <point x="550" y="1017"/>
      <point x="611" y="979"/>
      <point x="643" y="964" type="qcurve"/>
      <point x="670" y="979"/>
      <point x="718" y="1018"/>
      <point x="753" y="1065"/>
      <point x="774" y="1121"/>
      <point x="774" y="1152" type="qcurve"/>
      <point x="774" y="1190"/>
      <point x="745" y="1246"/>
      <point x="703" y="1282"/>
      <point x="654" y="1300"/>
      <point x="634" y="1300" type="qcurve"/>
      <point x="606" y="1300"/>
      <point x="549" y="1278"/>
      <point x="504" y="1239"/>
      <point x="475" y="1186"/>
    </contour>
  </outline>
</glyph>
<glyph name="equal" format="1">
  <advance width="1000"/>
  <unicode hex="003D"/>
  <outline>
    <contour>
      <point x="100" y="800" type="line"/>
      <point x="900" y="800" type="line"/>
      <point x="900" y="581" type="line"/>
      <point x="100" y="581" type="line"/>
    </contour>
    <contour>
      <point x="100" y="400" type="line"/>
      <point x="900" y="400" type="line"/>
      <point x="900" y="181" type="line"/>
      <point x="100" y="181" type="line"/>
    </contour>
  </outline>
</glyph>
<glyph name="greater" format="1">
  <advance width="1300"/>
  <unicode hex="003E"/>
  <outline>
    <contour>
      <point x="1137" y="770" type="line"/>
      <point x="1137" y="545" type="line"/>
      <point x="130" y="34" type="line"/>
      <point x="130" y="302" type="line"/>
      <point x="797" y="654" type="line"/>
      <point x="130" y="1009" type="line"/>
      <point x="130" y="1278" type="line"/>
    </contour>
  </outline>
</glyph>
<glyph name="C" format="1">
  <advance width="1200"/>
  <unicode hex="0043"/>
  <outline>
    <contour>
      <point x="1144" y="133" type="line"/>
      <point x="1043" y="52"/>
      <point x="818" y="-17"/>
      <point x="688" y="-17" type="qcurve"/>
      <point x="533" y="-17"/>
      <point x="287" y="108"/>
      <point x="115" y="322"/>
      <point x="24" y="608"/>
      <point x="24" y="769" type="qcurve"/>
      <point x="24" y="920"/>
      <point x="106" y="1192"/>
      <point x="275" y="1397"/>
      <point x="533" y="1517"/>
      <point x="709" y="1517" type="qcurve"/>
      <point x="838" y="1517"/>
      <point x="1073" y="1428"/>
      <point x="1161" y="1344" type="qcurve"/>
      <point x="1013" y="1170" type="line"/>
      <point x="980" y="1192"/>
      <point x="908" y="1232"/>
      <point x="833" y="1262"/>
      <point x="759" y="1280"/>
      <point x="725" y="1280" type="qcurve"/>
      <point x="630" y="1280"/>
      <point x="497" y="1199"/>
      <point x="413" y="1060"/>
      <point x="374" y="875"/>
      <point x="374" y="772" type="qcurve"/>
      <point x="374" y="711"/>
      <point x="391" y="582"/>
      <point x="426" y="459"/>
      <point x="481" y="351"/>
      <point x="556" y="269"/>
      <point x="652" y="221"/>
      <point x="712" y="221" type="qcurve"/>
      <point x="746" y="221"/>
      <point x="812" y="232"/>
      <point x="885" y="257"/>
      <point x="971" y="298"/>
      <point x="1025" y="328" type="qcurve"/>
    </contour>
  </outline>
</glyph>
<glyph name="D" format="1">
  <advance width="1300"/>
  <unicode hex="0044"/>
  <outline>
    <contour>
      <point x="98" y="1493" type="line"/>
      <point x="147" y="1498"/>
      <point x="257" y="1504"/>
      <point x="364" y="1508"/>
      <point x="459" y="1510"/>
      <point x="492" y="1510" type="qcurve"/>
      <point x="660" y="1510"/>
      <point x="945" y="1431"/>
      <point x="1153" y="1262"/>
      <point x="1271" y="995"/>
      <point x="1271" y="807" type="qcurve"/>
      <point x="1271" y="662"/>
      <point x="1213" y="429"/>
      <point x="1108" y="250"/>
      <point x="962" y="121"/>
      <point x="787" y="39"/>
      <point x="589" y="0"/>
      <point x="484" y="0" type="qcurve"/>
      <point x="132" y="0" type="line"/>
      <point x="132" y="1262" type="line"/>
    </contour>
    <contour>
      <point x="483" y="1127" type="line"/>
      <point x="483" y="230" type="line"/>
      <point x="588" y="237"/>
      <point x="735" y="296"/>
      <point x="832" y="385"/>
      <point x="887" y="496"/>
      <point x="914" y="614"/>
      <point x="920" y="729"/>
      <point x="920" y="778" type="qcurve"/>
      <point x="920" y="890"/>
      <point x="885" y="1078"/>
      <point x="789" y="1214"/>
      <point x="619" y="1289"/>
      <point x="484" y="1289" type="qcurve"/>
      <point x="479" y="1289"/>
      <point x="468" y="1289"/>
      <point x="462" y="1288" type="qcurve"/>
    </contour>
  </outline>
</glyph>
<glyph name="E" format="1">
  <advance width="1200"/>
  <unicode hex="0045"/>
  <outline>
    <contour>
      <point x="1086" y="228" type="line"/>
      <point x="1059" y="0" type="line"/>
      <point x="102" y="0" type="line"/>
      <point x="119" y="231" type="line"/>
      <point x="119" y="1263" type="line"/>
      <point x="84" y="1500" type="line"/>
      <point x="1049" y="1500" type="line"/>
      <point x="1049" y="1272" type="line"/>
      <point x="455" y="1272" type="line"/>
      <point x="470" y="1134" type="line"/>
      <point x="470" y="916" type="line"/>
      <point x="983" y="916" type="line"/>
      <point x="983" y="703" type="line"/>
      <point x="470" y="703" type="line"/>
      <point x="470" y="360" type="line"/>
      <point x="462" y="228" type="line"/>
    </contour>
  </outline>
</glyph>
<glyph name="F" format="1">
  <advance width="1100"/>
  <unicode hex="0046"/>
  <outline>
    <contour>
      <point x="470" y="0" type="line"/>
      <point x="119" y="0" type="line"/>
      <point x="119" y="1263" type="line"/>
      <point x="84" y="1500" type="line"/>
      <point x="1086" y="1500" type="line"/>
      <point x="1059" y="1272" type="line"/>
      <point x="455" y="1272" type="line"/>
      <point x="470" y="1134" type="line"/>
      <point x="470" y="916" type="line"/>
      <point x="983" y="916" type="line"/>
      <point x="983" y="703" type="line"/>
      <point x="470" y="703" type="line"/>
    </contour>
  </outline>
</glyph>
<glyph name="J" format="1">
  <advance width="900"/>
  <unicode hex="004A"/>
  <outline>
    <contour>
      <point x="185" y="1493" type="line"/>
      <point x="749" y="1523" type="line"/>
      <point x="749" y="446" type="line"/>
      <point x="749" y="261"/>
      <point x="633" y="121" type="qcurve"/>
      <point x="579" y="55"/>
      <point x="410" y="-17"/>
      <point x="292" y="-17" type="qcurve"/>
      <point x="189" y="-17"/>
      <point x="19" y="64"/>
      <point x="-60" y="145" type="qcurve"/>
      <point x="88" y="338" type="line"/>
      <point x="104" y="322"/>
      <point x="142" y="288"/>
      <point x="186" y="261"/>
      <point x="234" y="244"/>
      <point x="261" y="244" type="qcurve"/>
      <point x="291" y="244"/>
      <point x="341" y="263"/>
      <point x="378" y="309"/>
      <point x="398" y="386"/>
      <point x="398" y="444" type="qcurve"/>
      <point x="398" y="1132" type="line"/>
      <point x="412" y="1266" type="line"/>
      <point x="214" y="1254" type="line"/>
    </contour>
  </outline>
</glyph>
<glyph name="K" format="1">
  <advance width="1200"/>
  <unicode hex="004B"/>
  <outline>
    <contour>
      <point x="121" y="0" type="line"/>
      <point x="121" y="1263" type="line"/>
      <point x="88" y="1494" type="line"/>
      <point x="472" y="1525" type="line"/>
      <point x="472" y="1035" type="line"/>
      <point x="863" y="1500" type="line"/>
      <point x="1231" y="1500" type="line"/>
      <point x="732" y="900" type="line"/>
      <point x="462" y="802" type="line"/>
      <point x="722" y="716" type="line"/>
      <point x="1252" y="0" type="line"/>
      <point x="872" y="0" type="line"/>
      <point x="472" y="540" type="line"/>
      <point x="472" y="0" type="line"/>
    </contour>
  </outline>
</glyph>
<glyph name="O" format="1">
  <advance width="1600"/>
  <unicode hex="004F"/>
  <outline>
    <contour>
      <point x="780" y="-17" type="qcurve"/>
      <point x="613" y="-17"/>
      <point x="347" y="99"/>
      <point x="161" y="304"/>
      <point x="62" y="585"/>
      <point x="62" y="750" type="qcurve"/>
      <point x="62" y="915"/>
      <point x="158" y="1196"/>
      <point x="341" y="1401"/>
      <point x="609" y="1517"/>
      <point x="780" y="1517" type="qcurve"/>
      <point x="947" y="1517"/>
      <point x="1213" y="1401"/>
      <point x="1398" y="1196"/>
      <point x="1497" y="915"/>
      <point x="1497" y="750" type="qcurve"/>
      <point x="1497" y="585"/>
      <point x="1401" y="304"/>
      <point x="1218" y="99"/>
      <point x="951" y="-17"/>
    </contour>
    <contour>
      <point x="1148" y="721" type="qcurve"/>
      <point x="1148" y="827"/>
      <point x="1108" y="1025"/>
      <point x="1018" y="1177"/>
      <point x="876" y="1269"/>
      <point x="774" y="1269" type="qcurve"/>
      <point x="678" y="1269"/>
      <point x="540" y="1188"/>
      <point x="452" y="1053"/>
      <point x="411" y="877"/>
      <point x="411" y="783" type="qcurve"/>
      <point x="411" y="675"/>
      <point x="452" y="476"/>
      <point x="542" y="323"/>
      <point x="684" y="231"/>
      <point x="785" y="231" type="qcurve"/>
      <point x="881" y="231"/>
      <point x="1018" y="314"/>
      <point x="1107" y="451"/>
      <point x="1148" y="627"/>
    </contour>
  </outline>
</glyph>
<glyph name="P" format="1">
  <advance width="1200"/>
  <unicode hex="0050"/>
  <outline>
    <contour>
      <point x="471" y="0" type="line"/>
      <point x="120" y="0" type="line"/>
      <point x="120" y="1262" type="line"/>
      <point x="82" y="1478" type="line"/>
      <point x="127" y="1485"/>
      <point x="239" y="1498"/>
      <point x="353" y="1506"/>
      <point x="458" y="1511"/>
      <point x="497" y="1511" type="qcurve"/>
      <point x="621" y="1511"/>
      <point x="849" y="1468"/>
      <point x="1023" y="1369"/>
      <point x="1127" y="1206"/>
      <point x="1127" y="1086" type="qcurve"/>
      <point x="1127" y="951"/>
      <point x="1033" y="767"/>
      <point x="860" y="652"/>
      <point x="618" y="598"/>
      <point x="471" y="593" type="qcurve"/>
    </contour>
    <contour>
      <point x="471" y="1130" type="line"/>
      <point x="471" y="804" type="line"/>
      <point x="548" y="808"/>
      <point x="668" y="839"/>
      <point x="751" y="902"/>
      <point x="794" y="1003"/>
      <point x="794" y="1078" type="qcurve"/>
      <point x="794" y="1139"/>
      <point x="748" y="1225"/>
      <point x="675" y="1280"/>
      <point x="585" y="1305"/>
      <point x="540" y="1305" type="qcurve"/>
      <point x="523" y="1305"/>
      <point x="478" y="1303"/>
      <point x="455" y="1300" type="qcurve"/>
    </contour>
  </outline>
</glyph>
<glyph name="U" format="1">
  <advance width="1400"/>
  <unicode hex="0055"/>
  <outline>
    <contour>
      <point x="1250" y="1500" type="line"/>
      <point x="1250" y="534" type="line"/>
      <point x="1250" y="395"/>
      <point x="1161" y="188"/>
      <point x="1004" y="51"/>
      <point x="791" y="-17"/>
      <point x="667" y="-17" type="qcurve"/>
      <point x="533" y="-17"/>
      <point x="326" y="69"/>
      <point x="185" y="227"/>
      <point x="111" y="448"/>
      <point x="111" y="582" type="qcurve"/>
      <point x="111" y="1263" type="line"/>
      <point x="78" y="1494" type="line"/>
      <point x="458" y="1526" type="line"/>
      <point x="458" y="564" type="line"/>
      <point x="458" y="483"/>
      <point x="493" y="355"/>
      <point x="553" y="267"/>
      <point x="632" y="221"/>
      <point x="676" y="221" type="qcurve"/>
      <point x="781" y="221"/>
      <point x="904" y="369"/>
      <point x="904" y="516" type="qcurve"/>
      <point x="904" y="1500" type="line"/>
    </contour>
  </outline>
</glyph>
<glyph name="W" format="1">
  <advance width="1900"/>
  <unicode hex="0057"/>
  <outline>
    <contour>
      <point x="978" y="500" type="line"/>
      <point x="933" y="970" type="line"/>
      <point x="852" y="500" type="line"/>
      <point x="730" y="0" type="line"/>
      <point x="375" y="0" type="line"/>
      <point x="4" y="1492" type="line"/>
      <point x="334" y="1526" type="line"/>
      <point x="500" y="860" type="line"/>
      <point x="581" y="379" type="line"/>
      <point x="585" y="379" type="line"/>
      <point x="626" y="865" type="line"/>
      <point x="784" y="1500" type="line"/>
      <point x="1068" y="1500" type="line"/>
      <point x="1226" y="864" type="line"/>
      <point x="1308" y="369" type="line"/>
      <point x="1312" y="369" type="line"/>
      <point x="1353" y="862" type="line"/>
      <point x="1512" y="1500" type="line"/>
      <point x="1831" y="1500" type="line"/>
      <point x="1458" y="0" type="line"/>
      <point x="1103" y="0" type="line"/>
    </contour>
  </outline>
</glyph>
<glyph name="bracketleft" format="1">
  <advance width="900"/>
  <unicode hex="005B"/>
  <outline>
    <contour>
      <point x="60" y="1287" type="line"/>
      <point x="34" y="1519" type="line"/>
      <point x="734" y="1519" type="line"/>
      <point x="734" y="1301" type="line"/>
      <point x="384" y="1301" type="line"/>
      <point x="399" y="1153" type="line"/>
      <point x="399" y="-32" type="line"/>
      <point x="384" y="-180" type="line"/>
      <point x="734" y="-180" type="line"/>
      <point x="734" y="-399" type="line"/>
      <point x="34" y="-399" type="line"/>
      <point x="60" y="-167" type="line"/>
    </contour>
  </outline>
</glyph>
<glyph name="backslash" format="1">
  <advance width="1100"/>
  <unicode hex="005C"/>
  <outline>
    <contour>
      <point x="-8" y="1595" type="line"/>
      <point x="334" y="1595" type="line"/>
      <point x="1040" y="-95" type="line"/>
      <point x="687" y="-95" type="line"/>
    </contour>
  </outline>
</glyph>
<glyph name="bracketright" format="1">
  <advance width="1000"/>
  <unicode hex="005D"/>
  <outline>
    <contour>
      <point x="740" y="-167" type="line"/>
      <point x="766" y="-399" type="line"/>
      <point x="66" y="-399" type="line"/>
      <point x="66" y="-180" type="line"/>
      <point x="415" y="-180" type="line"/>
      <point x="400" y="-32" type="line"/>
      <point x="400" y="1153" type="line"/>
      <point x="415" y="1301" type="line"/>
      <point x="66" y="1301" type="line"/>
      <point x="66" y="1519" type="line"/>
      <point x="766" y="1519" type="line"/>
      <point x="740" y="1287" type="line"/>
    </contour>
  </outline>
</glyph>
<glyph name="asciicircum" format="1">
  <advance width="1500"/>
  <unicode hex="005E"/>
  <outline>
    <contour>
      <point x="1457" y="866" type="line"/>
      <point x="1114" y="866" type="line"/>
      <point x="749" y="1180" type="line"/>
      <point x="400" y="868" type="line"/>
      <point x="38" y="868" type="line"/>
      <point x="633" y="1495" type="line"/>
      <point x="842" y="1522" type="line"/>
    </contour>
  </outline>
</glyph>
<glyph name="grave" format="1">
  <advance width="1100"/>
  <unicode hex="0060"/>
  <outline>
    <contour>
      <point x="704" y="1200" type="line"/>
      <point x="446" y="1200" type="line"/>
      <point x="182" y="1491" type="line"/>
      <point x="529" y="1525" type="line"/>
    </contour>
  </outline>
</glyph>
<glyph name="d" format="1">
  <advance width="1200"/>
  <unicode hex="0064"/>
  <outline>
    <contour>
      <point x="734" y="900" type="line"/>
      <point x="665" y="900" type="line"/>
      <point x="599" y="900"/>
      <point x="501" y="838"/>
      <point x="438" y="732"/>
      <point x="407" y="592"/>
      <point x="407" y="515" type="qcurve"/>
      <point x="407" y="441"/>
      <point x="431" y="325"/>
      <point x="473" y="243"/>
      <point x="532" y="200"/>
      <point x="567" y="200" type="qcurve"/>
      <point x="603" y="200"/>
      <point x="657" y="221"/>
      <point x="697" y="254"/>
      <point x="725" y="296"/>
      <point x="734" y="316" type="qcurve"/>
    </contour>
    <contour>
      <point x="734" y="0" type="line"/>
      <point x="734" y="162" type="line"/>
      <point x="609" y="-10" type="line"/>
      <point x="601" y="-12"/>
      <point x="587" y="-14"/>
      <point x="568" y="-16"/>
      <point x="541" y="-17"/>
      <point x="520" y="-17" type="qcurve"/>
      <point x="428" y="-17"/>
      <point x="268" y="64"/>
      <point x="150" y="210"/>
      <point x="82" y="409"/>
      <point x="82" y="528" type="qcurve"/>
      <point x="82" y="647"/>
      <point x="164" y="856"/>
      <point x="316" y="1011"/>
      <point x="531" y="1100"/>
      <point x="664" y="1100" type="qcurve"/>
      <point x="734" y="1100" type="line"/>
      <point x="734" y="1632" type="line"/>
      <point x="1060" y="1600" type="line"/>
      <point x="1060" y="209" type="line"/>
      <point x="1082" y="0" type="line"/>
    </contour>
  </outline>
</glyph>
<glyph name="g" format="1">
  <advance width="1200"/>
  <unicode hex="0067"/>
  <outline>
    <contour>
      <point x="727" y="16" type="line"/>
      <point x="695" y="2"/>
      <point x="598" y="-17"/>
      <point x="540" y="-17" type="qcurve"/>
      <point x="439" y="-17"/>
      <point x="265" y="72"/>
      <point x="137" y="225"/>
      <point x="64" y="430"/>
      <point x="64" y="545" type="qcurve"/>
      <point x="64" y="662"/>
      <point x="130" y="870"/>
      <point x="260" y="1026"/>
      <point x="454" y="1117"/>
      <point x="583" y="1117" type="qcurve"/>
      <point x="601" y="1117"/>
      <point x="625" y="1116"/>
      <point x="635" y="1114" type="qcurve"/>
      <point x="726" y="958" type="line"/>
      <point x="726" y="1126" type="line"/>
      <point x="1052" y="1093" type="line"/>
      <point x="1052" y="-41" type="line"/>
      <point x="1052" y="-140"/>
      <point x="979" y="-313"/>
      <point x="843" y="-442"/>
      <point x="647" y="-517"/>
      <point x="523" y="-517" type="qcurve"/>
      <point x="457" y="-517"/>
      <point x="352" y="-496"/>
      <point x="262" y="-456"/>
      <point x="183" y="-397"/>
      <point x="144" y="-359" type="qcurve"/>
      <point x="288" y="-192" type="line"/>
      <point x="304" y="-206"/>
      <point x="356" y="-240"/>
      <point x="419" y="-272"/>
      <point x="490" y="-293"/>
      <point x="524" y="-293" type="qcurve"/>
      <point x="566" y="-293"/>
      <point x="640" y="-252"/>
      <point x="695" y="-180"/>
      <point x="727" y="-83"/>
      <point x="727" y="-27" type="qcurve"/>
    </contour>
    <contour>
      <point x="726" y="820" type="line"/>
      <point x="698" y="852"/>
      <point x="623" y="900"/>
      <point x="578" y="900" type="qcurve"/>
      <point x="518" y="900"/>
      <point x="445" y="828"/>
      <point x="404" y="719"/>
      <point x="391" y="591"/>
      <point x="391" y="534" type="qcurve"/>
      <point x="391" y="463"/>
      <point x="415" y="341"/>
      <point x="458" y="251"/>
      <point x="518" y="200"/>
      <point x="555" y="200" type="qcurve"/>
      <point x="614" y="200"/>
      <point x="694" y="250"/>
      <point x="726" y="287" type="qcurve"/>
    </contour>
  </outline>
</glyph>
<glyph name="h" format="1">
  <advance width="1200"/>
  <unicode hex="0068"/>
  <outline>
    <contour>
      <point x="446" y="0" type="line"/>
      <point x="120" y="0" type="line"/>
      <point x="120" y="1379" type="line"/>
      <point x="98" y="1600" type="line"/>
      <point x="446" y="1631" type="line"/>
      <point x="446" y="952" type="line"/>
      <point x="566" y="1107" type="line"/>
      <point x="593" y="1112"/>
      <point x="648" y="1117"/>
      <point x="673" y="1117" type="qcurve"/>
      <point x="761" y="1117"/>
      <point x="900" y="1064"/>
      <point x="996" y="963"/>
      <point x="1046" y="814"/>
      <point x="1046" y="718" type="qcurve"/>
      <point x="1046" y="0" type="line"/>
      <point x="720" y="0" type="line"/>
      <point x="720" y="726" type="line"/>
      <point x="720" y="778"/>
      <point x="703" y="846"/>
      <point x="675" y="885"/>
      <point x="639" y="900"/>
      <point x="620" y="900" type="qcurve"/>
      <point x="598" y="900"/>
      <point x="551" y="888"/>
      <point x="504" y="867"/>
      <point x="462" y="836"/>
      <point x="446" y="818" type="qcurve"/>
    </contour>
  </outline>
</glyph>
<glyph name="i" format="1">
  <advance width="600"/>
  <unicode hex="0069"/>
  <outline>
    <contour>
      <point x="442" y="0" type="line"/>
      <point x="126" y="0" type="line"/>
      <point x="126" y="1049" type="line"/>
      <point x="442" y="1081" type="line"/>
    </contour>
    <contour>
      <point x="120" y="1500" type="line"/>
      <point x="448" y="1500" type="line"/>
      <point x="448" y="1269" type="line"/>
      <point x="120" y="1269" type="line"/>
    </contour>
  </outline>
</glyph>
<glyph name="m" format="1">
  <advance width="1800"/>
  <unicode hex="006D"/>
  <outline>
    <contour>
      <point x="456" y="0" type="line"/>
      <point x="130" y="0" type="line"/>
      <point x="130" y="1093" type="line"/>
      <point x="456" y="1126" type="line"/>
      <point x="456" y="937" type="line"/>
      <point x="546" y="1088" type="line"/>
      <point x="578" y="1099"/>
      <point x="645" y="1117"/>
      <point x="680" y="1117" type="qcurve"/>
      <point x="723" y="1117"/>
      <point x="810" y="1103"/>
      <point x="887" y="1079"/>
      <point x="952" y="1044"/>
      <point x="973" y="1023" type="qcurve"/>
      <point x="996" y="1039"/>
      <point x="1057" y="1073"/>
      <point x="1132" y="1100"/>
      <point x="1218" y="1117"/>
      <point x="1266" y="1117" type="qcurve"/>
      <point x="1357" y="1117"/>
      <point x="1502" y="1063"/>
      <point x="1603" y="964"/>
      <point x="1657" y="823"/>
      <point x="1657" y="736" type="qcurve"/>
      <point x="1657" y="0" type="line"/>
      <point x="1331" y="0" type="line"/>
      <point x="1331" y="757" type="line"/>
      <point x="1331" y="798"/>
      <point x="1311" y="853"/>
      <point x="1278" y="886"/>
      <point x="1237" y="900"/>
      <point x="1215" y="900" type="qcurve"/>
      <point x="1201" y="900"/>
      <point x="1163" y="887"/>
      <point x="1119" y="864"/>
      <point x="1073" y="833"/>
      <point x="1053" y="814" type="qcurve"/>
      <point x="1055" y="790"/>
      <point x="1056" y="755"/>
      <point x="1056" y="727" type="qcurve"/>
      <point x="1056" y="0" type="line"/>
      <point x="730" y="0" type="line"/>
      <point x="730" y="757" type="line"/>
      <point x="730" y="798"/>
      <point x="715" y="853"/>
      <point x="689" y="886"/>
      <point x="652" y="900"/>
      <point x="630" y="900" type="qcurve"/>
      <point x="613" y="900"/>
      <point x="570" y="888"/>
      <point x="524" y="867"/>
      <point x="477" y="835"/>
      <point x="456" y="816" type="qcurve"/>
    </contour>
  </outline>
</glyph>
<glyph name="n" format="1">
  <advance width="1200"/>
  <unicode hex="006E"/>
  <outline>
    <contour>
      <point x="456" y="1126" type="line"/>
      <point x="456" y="937" type="line"/>
      <point x="546" y="1088" type="line"/>
      <point x="578" y="1099"/>
      <point x="645" y="1117"/>
      <point x="680" y="1117" type="qcurve"/>
      <point x="723" y="1117"/>
      <point x="804" y="1112"/>
      <point x="878" y="1093"/>
      <point x="944" y="1056"/>
      <point x="973" y="1024" type="qcurve"/>
      <point x="1004" y="990"/>
      <point x="1038" y="910"/>
      <point x="1053" y="831"/>
      <point x="1056" y="756"/>
      <point x="1056" y="727" type="qcurve"/>
      <point x="1056" y="0" type="line"/>
      <point x="730" y="0" type="line"/>
      <point x="730" y="757" type="line"/>
      <point x="730" y="798"/>
      <point x="715" y="853"/>
      <point x="689" y="886"/>
      <point x="652" y="900"/>
      <point x="630" y="900" type="qcurve"/>
      <point x="613" y="900"/>
      <point x="570" y="888"/>
      <point x="524" y="867"/>
      <point x="477" y="835"/>
      <point x="456" y="816" type="qcurve"/>
      <point x="456" y="0" type="line"/>
      <point x="130" y="0" type="line"/>
      <point x="130" y="1093" type="line"/>
    </contour>
  </outline>
</glyph>
<glyph name="o" format="1">
  <advance width="1200"/>
  <unicode hex="006F"/>
  <outline>
    <contour>
      <point x="604" y="-17" type="qcurve"/>
      <point x="484" y="-17"/>
      <point x="286" y="70"/>
      <point x="143" y="223"/>
      <point x="64" y="431"/>
      <point x="64" y="553" type="qcurve"/>
      <point x="64" y="674"/>
      <point x="140" y="881"/>
      <point x="281" y="1032"/>
      <point x="480" y="1117"/>
      <point x="604" y="1117" type="qcurve"/>
      <point x="724" y="1117"/>
      <point x="923" y="1032"/>
      <point x="1066" y="881"/>
      <point x="1145" y="674"/>
      <point x="1145" y="553" type="qcurve"/>
      <point x="1145" y="431"/>
      <point x="1069" y="223"/>
      <point x="928" y="70"/>
      <point x="728" y="-17"/>
    </contour>
    <contour>
      <point x="819" y="528" type="qcurve"/>
      <point x="819" y="596"/>
      <point x="795" y="728"/>
      <point x="742" y="833"/>
      <point x="659" y="897"/>
      <point x="600" y="897" type="qcurve"/>
      <point x="545" y="897"/>
      <point x="465" y="842"/>
      <point x="414" y="750"/>
      <point x="390" y="633"/>
      <point x="390" y="571" type="qcurve"/>
      <point x="390" y="502"/>
      <point x="414" y="370"/>
      <point x="467" y="267"/>
      <point x="549" y="203"/>
      <point x="607" y="203" type="qcurve"/>
      <point x="662" y="203"/>
      <point x="742" y="258"/>
      <point x="794" y="350"/>
      <point x="819" y="466"/>
    </contour>
  </outline>
</glyph>
<glyph name="p" format="1">
  <advance width="1200"/>
  <unicode hex="0070"/>
  <outline>
    <contour>
      <point x="476" y="200" type="line"/>
      <point x="554" y="200" type="line"/>
      <point x="621" y="200"/>
      <point x="727" y="259"/>
      <point x="801" y="361"/>
      <point x="840" y="498"/>
      <point x="840" y="576" type="qcurve"/>
      <point x="840" y="657"/>
      <point x="807" y="779"/>
      <point x="756" y="860"/>
      <point x="693" y="900"/>
      <point x="663" y="900" type="qcurve"/>
      <point x="636" y="900"/>
      <point x="583" y="884"/>
      <point x="535" y="859"/>
      <point x="493" y="827"/>
      <point x="476" y="811" type="qcurve"/>
    </contour>
    <contour>
      <point x="150" y="-500" type="line"/>
      <point x="150" y="1093" type="line"/>
      <point x="476" y="1126" type="line"/>
      <point x="476" y="944" type="line"/>
      <point x="600" y="1110" type="line"/>
      <point x="621" y="1113"/>
      <point x="666" y="1117"/>
      <point x="690" y="1117" type="qcurve"/>
      <point x="783" y="1117"/>
      <point x="946" y="1039"/>
      <point x="1067" y="894"/>
      <point x="1138" y="690"/>
      <point x="1138" y="564" type="qcurve"/>
      <point x="1138" y="441"/>
      <point x="1053" y="234"/>
      <point x="896" y="84"/>
      <point x="674" y="0"/>
      <point x="537" y="0" type="qcurve"/>
      <point x="476" y="0" type="line"/>
      <point x="476" y="-500" type="line"/>
    </contour>
  </outline>
</glyph>
<glyph name="t" format="1">
  <advance width="800"/>
  <unicode hex="0074"/>
  <outline>
    <contour>
      <point x="466" y="388" type="line"/>
      <point x="466" y="337"/>
      <point x="472" y="268"/>
      <point x="487" y="226"/>
      <point x="511" y="208"/>
      <point x="529" y="208" type="qcurve"/>
      <point x="550" y="208"/>
      <point x="588" y="216"/>
      <point x="603" y="221" type="qcurve"/>
      <point x="621" y="227"/>
      <point x="636" y="235" type="qcurve"/>
      <point x="731" y="72" type="line"/>
      <point x="719" y="60"/>
      <point x="670" y="29"/>
      <point x="604" y="2"/>
      <point x="523" y="-16"/>
      <point x="480" y="-16" type="qcurve"/>
      <point x="372" y="-16"/>
      <point x="242" y="52"/>
      <point x="172" y="168"/>
      <point x="150" y="323"/>
      <point x="150" y="410" type="qcurve"/>
      <point x="150" y="876" type="line"/>
      <point x="0" y="876" type="line"/>
      <point x="0" y="1100" type="line"/>
      <point x="150" y="1100" type="line"/>
      <point x="150" y="1279" type="line"/>
      <point x="462" y="1463" type="line"/>
      <point x="462" y="1100" type="line"/>
      <point x="752" y="1100" type="line"/>
      <point x="725" y="876" type="line"/>
      <point x="466" y="876" type="line"/>
    </contour>
  </outline>
</glyph>
<glyph name="u" format="1">
  <advance width="1200"/>
  <unicode hex="0075"/>
  <outline>
    <contour>
      <point x="729" y="1093" type="line"/>
      <point x="1055" y="1126" type="line"/>
      <point x="1055" y="0" type="line"/>
      <point x="729" y="0" type="line"/>
      <point x="729" y="163" type="line"/>
      <point x="618" y="11" type="line"/>
      <point x="598" y="2"/>
      <point x="520" y="-17"/>
      <point x="479" y="-17" type="qcurve"/>
      <point x="385" y="-17"/>
      <point x="253" y="43"/>
      <point x="169" y="150"/>
      <point x="130" y="297"/>
      <point x="130" y="384" type="qcurve"/>
      <point x="130" y="1093" type="line"/>
      <point x="456" y="1126" type="line"/>
      <point x="456" y="384" type="line"/>
      <point x="456" y="301"/>
      <point x="504" y="200"/>
      <point x="560" y="200" type="qcurve"/>
      <point x="579" y="200"/>
      <point x="624" y="213"/>
      <point x="668" y="235"/>
      <point x="711" y="262"/>
      <point x="729" y="276" type="qcurve"/>
    </contour>
  </outline>
</glyph>
<glyph name="w" format="1">
  <advance width="1500"/>
  <unicode hex="0077"/>
  <outline>
    <contour>
      <point x="954" y="800" type="line"/>
      <point x="1029" y="272" type="line"/>
      <point x="1089" y="800" type="line"/>
      <point x="1160" y="1094" type="line"/>
      <point x="1465" y="1124" type="line"/>
      <point x="1154" y="0" type="line"/>
      <point x="893" y="0" type="line"/>
      <point x="818" y="300" type="line"/>
      <point x="751" y="820" type="line"/>
      <point x="678" y="300" type="line"/>
      <point x="610" y="0" type="line"/>
      <point x="349" y="0" type="line"/>
      <point x="48" y="1093" type="line"/>
      <point x="354" y="1126" type="line"/>
      <point x="428" y="800" type="line"/>
      <point x="494" y="270" type="line"/>
      <point x="564" y="800" type="line"/>
      <point x="638" y="1100" type="line"/>
      <point x="885" y="1100" type="line"/>
    </contour>
  </outline>
</glyph>
<glyph name="x" format="1">
  <advance width="1100"/>
  <unicode hex="0078"/>
  <outline>
    <contour>
      <point x="597" y="272" type="line"/>
      <point x="531" y="474" type="line"/>
      <point x="463" y="272" type="line"/>
      <point x="295" y="0" type="line"/>
      <point x="-44" y="0" type="line"/>
      <point x="367" y="585" type="line"/>
      <point x="11" y="1093" type="line"/>
      <point x="353" y="1120" type="line"/>
      <point x="494" y="900" type="line"/>
      <point x="556" y="699" type="line"/>
      <point x="616" y="900" type="line"/>
      <point x="755" y="1096" type="line"/>
      <point x="1111" y="1124" type="line"/>
      <point x="731" y="581" type="line"/>
      <point x="1139" y="0" type="line"/>
      <point x="778" y="0" type="line"/>
    </contour>
  </outline>
</glyph>
<glyph name="y" format="1">
  <advance width="1100"/>
  <unicode hex="0079"/>
  <outline>
    <contour>
      <point x="471" y="670" type="line"/>
      <point x="550" y="190" type="line"/>
      <point x="627" y="670" type="line"/>
      <point x="788" y="1095" type="line"/>
      <point x="1110" y="1124" type="line"/>
      <point x="702" y="8" type="line"/>
      <point x="672" y="-75"/>
      <point x="596" y="-248"/>
      <point x="496" y="-390"/>
      <point x="367" y="-480"/>
      <point x="283" y="-480" type="qcurve"/>
      <point x="216" y="-480"/>
      <point x="85" y="-424"/>
      <point x="27" y="-374" type="qcurve"/>
      <point x="150" y="-194" type="line"/>
      <point x="173" y="-209"/>
      <point x="225" y="-234"/>
      <point x="252" y="-234" type="qcurve"/>
      <point x="295" y="-234"/>
      <point x="364" y="-134"/>
      <point x="401" y="-47" type="qcurve"/>
      <point x="-16" y="1093" type="line"/>
      <point x="307" y="1121" type="line"/>
    </contour>
  </outline>
</glyph>
<glyph name="z" format="1">
  <advance width="1000"/>
  <unicode hex="007A"/>
  <outline>
    <contour>
      <point x="544" y="200" type="line"/>
      <point x="917" y="200" type="line"/>
      <point x="944" y="0" type="line"/>
      <point x="41" y="0" type="line"/>
      <point x="8" y="85" type="line"/>
      <point x="408" y="757" type="line"/>
      <point x="639" y="935" type="line"/>
      <point x="368" y="900" type="line"/>
      <point x="94" y="900" type="line"/>
      <point x="67" y="1100" type="line"/>
      <point x="863" y="1100" type="line"/>
      <point x="895" y="1017" type="line"/>
      <point x="500" y="339" type="line"/>
      <point x="273" y="165" type="line"/>
    </contour>
  </outline>
</glyph>
<glyph name="braceleft" format="1">
  <advance width="1298"/>
  <unicode hex="007B"/>
  <outline>
    <contour>
      <point x="1003" y="1260" type="line"/>
      <point x="969" y="1280"/>
      <point x="882" y="1305"/>
      <point x="847" y="1305" type="qcurve"/>
      <point x="817" y="1303"/>
      <point x="781" y="1274"/>
      <point x="763" y="1222"/>
      <point x="757" y="1147"/>
      <point x="757" y="1099" type="qcurve"/>
      <point x="757" y="864" type="line"/>
      <point x="757" y="808"/>
      <point x="726" y="710"/>
      <point x="678" y="631"/>
      <point x="620" y="570"/>
      <point x="593" y="550" type="qcurve"/>
      <point x="620" y="530"/>
      <point x="678" y="470"/>
      <point x="726" y="390"/>
      <point x="757" y="293"/>
      <point x="757" y="238" type="qcurve"/>
      <point x="757" y="-2" type="line"/>
      <point x="757" y="-50"/>
      <point x="763" y="-126"/>
      <point x="781" y="-180"/>
      <point x="817" y="-208"/>
      <point x="847" y="-208" type="qcurve"/>
      <point x="882" y="-208"/>
      <point x="969" y="-183"/>
      <point x="1003" y="-163" type="qcurve"/>
      <point x="1099" y="-348" type="line"/>
      <point x="1066" y="-363"/>
      <point x="1005" y="-390"/>
      <point x="937" y="-409"/>
      <point x="856" y="-420"/>
      <point x="804" y="-420" type="qcurve"/>
      <point x="691" y="-420"/>
      <point x="541" y="-356"/>
      <point x="452" y="-244"/>
      <point x="415" y="-91"/>
      <point x="415" y="-2" type="qcurve"/>
      <point x="415" y="238" type="line"/>
      <point x="415" y="327"/>
      <point x="384" y="432"/>
      <point x="338" y="442" type="qcurve"/>
      <point x="200" y="462" type="line"/>
      <point x="200" y="640" type="line"/>
      <point x="338" y="660" type="line"/>
      <point x="384" y="671"/>
      <point x="415" y="776"/>
      <point x="415" y="864" type="qcurve"/>
      <point x="415" y="1099" type="line"/>
      <point x="415" y="1188"/>
      <point x="452" y="1341"/>
      <point x="541" y="1453"/>
      <point x="691" y="1517"/>
      <point x="804" y="1517" type="qcurve"/>
      <point x="856" y="1517"/>
      <point x="937" y="1506"/>
      <point x="1005" y="1487"/>
      <point x="1066" y="1461"/>
      <point x="1099" y="1445" type="qcurve"/>
    </contour>
  </outline>
</glyph>
<glyph name="braceright" format="1">
  <advance width="1200"/>
  <unicode hex="007D"/>
  <outline>
    <contour>
      <point x="200" y="1445" type="line"/>
      <point x="233" y="1461"/>
      <point x="294" y="1487"/>
      <point x="362" y="1506"/>
      <point x="443" y="1517"/>
      <point x="495" y="1517" type="qcurve"/>
      <point x="608" y="1517"/>
      <point x="758" y="1453"/>
      <point x="847" y="1341"/>
      <point x="884" y="1188"/>
      <point x="884" y="1099" type="qcurve"/>
      <point x="884" y="864" type="line"/>
      <point x="884" y="776"/>
      <point x="915" y="671"/>
      <point x="961" y="660" type="qcurve"/>
      <point x="1099" y="640" type="line"/>
      <point x="1099" y="462" type="line"/>
      <point x="961" y="442" type="line"/>
      <point x="915" y="432"/>
      <point x="884" y="327"/>
      <point x="884" y="238" type="qcurve"/>
      <point x="884" y="-2" type="line"/>
      <point x="884" y="-91"/>
      <point x="847" y="-244"/>
      <point x="758" y="-356"/>
      <point x="608" y="-420"/>
      <point x="495" y="-420" type="qcurve"/>
      <point x="443" y="-420"/>
      <point x="362" y="-409"/>
      <point x="294" y="-390"/>
      <point x="233" y="-363"/>
      <point x="200" y="-348" type="qcurve"/>
      <point x="296" y="-163" type="line"/>
      <point x="330" y="-183"/>
      <point x="417" y="-208"/>
      <point x="452" y="-208" type="qcurve"/>
      <point x="482" y="-208"/>
      <point x="518" y="-180"/>
      <point x="536" y="-126"/>
      <point x="542" y="-50"/>
      <point x="542" y="-2" type="qcurve"/>
      <point x="542" y="238" type="line"/>
      <point x="542" y="293"/>
      <point x="573" y="390"/>
      <point x="621" y="470"/>
      <point x="679" y="530"/>
      <point x="706" y="550" type="qcurve"/>
      <point x="679" y="570"/>
      <point x="621" y="631"/>
      <point x="573" y="710"/>
      <point x="542" y="808"/>
      <point x="542" y="864" type="qcurve"/>
      <point x="542" y="1099" type="line"/>
      <point x="542" y="1147"/>
      <point x="536" y="1222"/>
      <point x="518" y="1274"/>
      <point x="482" y="1303"/>
      <point x="452" y="1305" type="qcurve"/>
      <point x="417" y="1305"/>
      <point x="330" y="1280"/>
      <point x="296" y="1260" type="qcurve"/>
    </contour>
  </outline>
</glyph>
<glyph name="asciitilde" format="1">
  <advance width="1500"/>
  <unicode hex="007E"/>
  <outline>
    <contour>
      <point x="126" y="441" type="line"/>
      <point x="132" y="508"/>
      <point x="185" y="648"/>
      <point x="284" y="762"/>
      <point x="435" y="835"/>
      <point x="539" y="835" type="qcurve"/>
      <point x="593" y="835"/>
      <point x="673" y="815"/>
      <point x="736" y="786"/>
      <point x="786" y="752"/>
      <point x="835" y="723"/>
      <point x="888" y="703"/>
      <point x="922" y="703" type="qcurve"/>
      <point x="991" y="703"/>
      <point x="1076" y="759"/>
      <point x="1086" y="818" type="qcurve"/>
      <point x="1361" y="802" type="line"/>
      <point x="1356" y="729"/>
      <point x="1311" y="585"/>
      <point x="1217" y="471"/>
      <point x="1067" y="400"/>
      <point x="957" y="400" type="qcurve"/>
      <point x="907" y="400"/>
      <point x="833" y="420"/>
      <point x="774" y="449"/>
      <point x="725" y="483"/>
      <point x="673" y="512"/>
      <point x="615" y="532"/>
      <point x="576" y="532" type="qcurve"/>
      <point x="518" y="532"/>
      <point x="439" y="480"/>
      <point x="426" y="430" type="qcurve"/>
    </contour>
  </outline>
</glyph>
<glyph name="cent" format="1">
  <advance width="1000"/>
  <unicode hex="00A2"/>
  <outline>
    <contour>
      <point x="788" y="814" type="line"/>
      <point x="764" y="837"/>
      <point x="720" y="867"/>
      <point x="700" y="877" type="qcurve"/>
      <point x="700" y="223" type="line"/>
      <point x="766" y="249"/>
      <point x="822" y="288" type="qcurve"/>
      <point x="934" y="93" type="line"/>
      <point x="883" y="58"/>
      <point x="766" y="7"/>
      <point x="700" y="-5" type="qcurve"/>
      <point x="700" y="-190" type="line"/>
      <point x="410" y="-190" type="line"/>
      <point x="410" y="6" type="line"/>
      <point x="317" y="34"/>
      <point x="177" y="147"/>
      <point x="83" y="298"/>
      <point x="36" y="479"/>
      <point x="36" y="575" type="qcurve"/>
      <point x="36" y="662"/>
      <point x="81" y="827"/>
      <point x="174" y="966"/>
      <point x="314" y="1069"/>
      <point x="410" y="1095" type="qcurve"/>
      <point x="410" y="1302" type="line"/>
      <point x="700" y="1340" type="line"/>
      <point x="700" y="1105" type="line"/>
      <point x="767" y="1090"/>
      <point x="884" y="1021"/>
      <point x="939" y="961" type="qcurve"/>
    </contour>
    <contour>
      <point x="320" y="563" type="qcurve"/>
      <point x="320" y="436"/>
      <point x="391" y="271"/>
      <point x="458" y="232" type="qcurve"/>
      <point x="458" y="873" type="line"/>
      <point x="393" y="840"/>
      <point x="320" y="689"/>
    </contour>
  </outline>
</glyph>
<glyph name="copyright" format="1">
  <advance width="1100"/>
  <unicode hex="00A9"/>
  <outline>
    <contour>
      <point x="550" y="1517" type="qcurve"/>
      <point x="647" y="1517"/>
      <point x="818" y="1443"/>
      <point x="946" y="1315"/>
      <point x="1020" y="1144"/>
      <point x="1020" y="1047" type="qcurve"/>
      <point x="1020" y="949"/>
      <point x="946" y="778"/>
      <point x="818" y="651"/>
      <point x="647" y="577"/>
      <point x="550" y="577" type="qcurve"/>
      <point x="453" y="577"/>
      <point x="282" y="651"/>
      <point x="154" y="778"/>
      <point x="80" y="949"/>
      <point x="80" y="1047" type="qcurve"/>
      <point x="80" y="1144"/>
      <point x="154" y="1315"/>
      <point x="282" y="1443"/>
      <point x="453" y="1517"/>
    </contour>
    <contour>
      <point x="550" y="701" type="qcurve"/>
      <point x="620" y="701"/>
      <point x="745" y="756"/>
      <point x="840" y="850"/>
      <point x="896" y="976"/>
      <point x="896" y="1047" type="qcurve"/>
      <point x="896" y="1119"/>
      <point x="842" y="1245"/>
      <point x="748" y="1339"/>
      <point x="622" y="1393"/>
      <point x="550" y="1393" type="qcurve"/>
      <point x="478" y="1393"/>
      <point x="352" y="1339"/>
      <point x="258" y="1245"/>
      <point x="204" y="1119"/>
      <point x="204" y="1047" type="qcurve"/>
      <point x="204" y="977"/>
      <point x="259" y="852"/>
      <point x="353" y="757"/>
      <point x="479" y="701"/>
    </contour>
    <contour>
      <point x="651" y="1165" type="line"/>
      <point x="636" y="1178"/>
      <point x="608" y="1194"/>
      <point x="583" y="1202"/>
      <point x="559" y="1204"/>
      <point x="547" y="1204" type="qcurve"/>
      <point x="518" y="1204"/>
      <point x="477" y="1179"/>
      <point x="452" y="1137"/>
      <point x="440" y="1082"/>
      <point x="440" y="1052" type="qcurve"/>
      <point x="440" y="1021"/>
      <point x="451" y="962"/>
      <point x="477" y="916"/>
      <point x="520" y="889"/>
      <point x="552" y="889" type="qcurve"/>
      <point x="565" y="889"/>
      <point x="595" y="895"/>
      <point x="625" y="906"/>
      <point x="655" y="920"/>
      <point x="668" y="929" type="qcurve"/>
      <point x="724" y="841" type="line"/>
      <point x="687" y="818"/>
      <point x="598" y="791"/>
      <point x="545" y="791" type="qcurve"/>
      <point x="478" y="791"/>
      <point x="377" y="836"/>
      <point x="309" y="910"/>
      <point x="275" y="1006"/>
      <point x="275" y="1058" type="qcurve"/>
      <point x="275" y="1105"/>
      <point x="308" y="1193"/>
      <point x="375" y="1261"/>
      <point x="478" y="1302"/>
      <point x="548" y="1302" type="qcurve"/>
      <point x="602" y="1302"/>
      <point x="688" y="1270"/>
      <point x="726" y="1231" type="qcurve"/>
    </contour>
  </outline>
</glyph>
<glyph name="logicalnot" format="1">
  <advance width="1700"/>
  <unicode hex="00AC"/>
  <outline>
    <contour>
      <point x="1461" y="827" type="line"/>
      <point x="1442" y="586" type="line"/>
      <point x="1442" y="258" type="line"/>
      <point x="1100" y="258" type="line"/>
      <point x="1100" y="459" type="line"/>
      <point x="1112" y="600" type="line"/>
      <point x="162" y="600" type="line"/>
      <point x="162" y="827" type="line"/>
    </contour>
  </outline>
</glyph>
<glyph name="macron" format="1">
  <advance width="1100"/>
  <unicode hex="00AF"/>
  <outline>
    <contour>
      <point x="200" y="1500" type="line"/>
      <point x="900" y="1500" type="line"/>
      <point x="900" y="1282" type="line"/>
      <point x="200" y="1282" type="line"/>
    </contour>
  </outline>
</glyph>
<glyph name="degree" format="1">
  <advance width="600"/>
  <unicode hex="00B0"/>
  <outline>
    <contour>
      <point x="300" y="1517" type="qcurve"/>
      <point x="361" y="1517"/>
      <point x="469" y="1475"/>
      <point x="550" y="1401"/>
      <point x="596" y="1303"/>
      <point x="596" y="1247" type="qcurve"/>
      <point x="596" y="1191"/>
      <point x="550" y="1093"/>
      <point x="469" y="1020"/>
      <point x="361" y="977"/>
      <point x="300" y="977" type="qcurve"/>
      <point x="238" y="977"/>
      <point x="131" y="1020"/>
      <point x="50" y="1093"/>
      <point x="4" y="1191"/>
      <point x="4" y="1247" type="qcurve"/>
      <point x="4" y="1303"/>
      <point x="50" y="1401"/>
      <point x="131" y="1475"/>
      <point x="238" y="1517"/>
    </contour>
    <contour>
      <point x="300" y="1145" type="qcurve"/>
      <point x="323" y="1145"/>
      <point x="364" y="1161"/>
      <point x="394" y="1189"/>
      <point x="412" y="1226"/>
      <point x="412" y="1247" type="qcurve"/>
      <point x="412" y="1268"/>
      <point x="394" y="1305"/>
      <point x="364" y="1333"/>
      <point x="323" y="1349"/>
      <point x="300" y="1349" type="qcurve"/>
      <point x="277" y="1349"/>
      <point x="236" y="1333"/>
      <point x="206" y="1305"/>
      <point x="188" y="1268"/>
      <point x="188" y="1247" type="qcurve"/>
      <point x="188" y="1226"/>
      <point x="206" y="1189"/>
      <point x="236" y="1161"/>
      <point x="277" y="1145"/>
    </contour>
  </outline>
</glyph>
<glyph name="twosuperior" format="1">
  <advance width="600"/>
  <unicode hex="00B2"/>
  <outline>
    <contour>
      <point x="56" y="720" type="line"/>
      <point x="56" y="815" type="line"/>
      <point x="79" y="852"/>
      <point x="141" y="933"/>
      <point x="206" y="1012"/>
      <point x="268" y="1082"/>
      <point x="291" y="1107" type="qcurve"/>
      <point x="318" y="1136"/>
      <point x="356" y="1176"/>
      <point x="379" y="1210"/>
      <point x="390" y="1245"/>
      <point x="390" y="1268" type="qcurve"/>
      <point x="390" y="1287"/>
      <point x="377" y="1323"/>
      <point x="354" y="1352"/>
      <point x="322" y="1370"/>
      <point x="301" y="1370" type="qcurve"/>
      <point x="260" y="1370"/>
      <point x="198" y="1315"/>
      <point x="174" y="1268" type="qcurve"/>
      <point x="58" y="1311" type="line"/>
      <point x="72" y="1350"/>
      <point x="118" y="1411"/>
      <point x="181" y="1455"/>
      <point x="260" y="1478"/>
      <point x="309" y="1478" type="qcurve"/>
      <point x="366" y="1478"/>
      <point x="455" y="1441"/>
      <point x="516" y="1380"/>
      <point x="548" y="1302"/>
      <point x="548" y="1263" type="qcurve"/>
      <point x="548" y="1228"/>
      <point x="526" y="1169"/>
      <point x="489" y="1114"/>
      <point x="442" y="1060"/>
      <point x="417" y="1030" type="qcurve"/>
      <point x="392" y="1000"/>
      <point x="339" y="938"/>
      <point x="290" y="882"/>
      <point x="251" y="835"/>
      <point x="240" y="820" type="qcurve"/>
      <point x="561" y="820" type="line"/>
      <point x="561" y="720" type="line"/>
    </contour>
  </outline>
</glyph>
<glyph name="acute" format="1">
  <advance width="1100"/>
  <unicode hex="00B4"/>
  <outline>
    <contour>
      <point x="526" y="1496" type="line"/>
      <point x="917" y="1528" type="line"/>
      <point x="625" y="1200" type="line"/>
      <point x="366" y="1200" type="line"/>
    </contour>
  </outline>
</glyph>
<glyph name="mu" format="1">
  <advance width="1300"/>
  <unicode hex="00B5"/>
  <outline>
    <contour>
      <point x="1269" y="51" type="line"/>
      <point x="1254" y="37"/>
      <point x="1220" y="13"/>
      <point x="1170" y="-6"/>
      <point x="1103" y="-17"/>
      <point x="1055" y="-17" type="qcurve"/>
      <point x="1021" y="-17"/>
      <point x="955" y="7"/>
      <point x="897" y="57"/>
      <point x="848" y="135"/>
      <point x="832" y="190" type="qcurve"/>
      <point x="785" y="72" type="line"/>
      <point x="767" y="56"/>
      <point x="720" y="24"/>
      <point x="660" y="-1"/>
      <point x="588" y="-17"/>
      <point x="545" y="-17" type="qcurve"/>
      <point x="525" y="-17"/>
      <point x="467" y="-7"/>
      <point x="408" y="10"/>
      <point x="358" y="30"/>
      <point x="346" y="40" type="qcurve"/>
      <point x="411" y="-166" type="line"/>
      <point x="411" y="-500" type="line"/>
      <point x="100" y="-500" type="line"/>
      <point x="100" y="1093" type="line"/>
      <point x="411" y="1125" type="line"/>
      <point x="411" y="362" type="line"/>
      <point x="411" y="324"/>
      <point x="436" y="263"/>
      <point x="477" y="221"/>
      <point x="528" y="199"/>
      <point x="555" y="199" type="qcurve"/>
      <point x="598" y="199"/>
      <point x="671" y="240"/>
      <point x="700" y="268" type="qcurve"/>
      <point x="700" y="1093" type="line"/>
      <point x="1011" y="1125" type="line"/>
      <point x="1011" y="365" type="line"/>
      <point x="1011" y="273"/>
      <point x="1049" y="199"/>
      <point x="1084" y="199" type="qcurve"/>
      <point x="1111" y="199"/>
      <point x="1145" y="210"/>
      <point x="1170" y="223" type="qcurve"/>
    </contour>
  </outline>
</glyph>
<glyph name="paragraph" format="1">
  <advance width="1400"/>
  <unicode hex="00B6"/>
  <outline>
    <contour>
      <point x="1032" y="1298" type="line"/>
      <point x="898" y="1298" type="line"/>
      <point x="898" y="-400" type="line"/>
      <point x="629" y="-400" type="line"/>
      <point x="629" y="604" type="line"/>
      <point x="552" y="614"/>
      <point x="403" y="672"/>
      <point x="286" y="777"/>
      <point x="214" y="937"/>
      <point x="214" y="1050" type="qcurve"/>
      <point x="214" y="1137"/>
      <point x="258" y="1272"/>
      <point x="334" y="1372"/>
      <point x="436" y="1440"/>
      <point x="550" y="1482"/>
      <point x="671" y="1500"/>
      <point x="729" y="1500" type="qcurve"/>
      <point x="1299" y="1500" type="line"/>
      <point x="1299" y="-400" type="line"/>
      <point x="1032" y="-400" type="line"/>
    </contour>
  </outline>
</glyph>
<glyph name="onesuperior" format="1">
  <advance width="600"/>
  <unicode hex="00B9"/>
  <outline>
    <contour>
      <point x="266" y="1160" type="line"/>
      <point x="303" y="1341" type="line"/>
      <point x="189" y="1206" type="line"/>
      <point x="147" y="1169" type="line"/>
      <point x="70" y="1261" type="line"/>
      <point x="310" y="1482" type="line"/>
      <point x="431" y="1466" type="line"/>
      <point x="431" y="820" type="line"/>
      <point x="553" y="820" type="line"/>
      <point x="553" y="720" type="line"/>
      <point x="144" y="720" type="line"/>
      <point x="144" y="820" type="line"/>
      <point x="266" y="820" type="line"/>
    </contour>
  </outline>
</glyph>
<glyph name="Eth" format="1">
  <advance width="1300"/>
  <unicode hex="00D0"/>
  <outline>
    <contour>
      <point x="0" y="888" type="line"/>
      <point x="130" y="888" type="line"/>
      <point x="130" y="1263" type="line"/>
      <point x="96" y="1493" type="line"/>
      <point x="145" y="1498"/>
      <point x="255" y="1504"/>
      <point x="362" y="1508"/>
      <point x="457" y="1510"/>
      <point x="490" y="1510" type="qcurve"/>
      <point x="658" y="1510"/>
      <point x="943" y="1431"/>
      <point x="1151" y="1262"/>
      <point x="1269" y="995"/>
      <point x="1269" y="807" type="qcurve"/>
      <point x="1269" y="662"/>
      <point x="1211" y="429"/>
      <point x="1106" y="250"/>
      <point x="960" y="121"/>
      <point x="785" y="39"/>
      <point x="587" y="0"/>
      <point x="482" y="0" type="qcurve"/>
      <point x="130" y="0" type="line"/>
      <point x="130" y="665" type="line"/>
      <point x="0" y="665" type="line"/>
    </contour>
    <contour>
      <point x="482" y="1289" type="qcurve"/>
      <point x="477" y="1289"/>
      <point x="466" y="1289"/>
      <point x="460" y="1288" type="qcurve"/>
      <point x="481" y="1127" type="line"/>
      <point x="481" y="888" type="line"/>
      <point x="661" y="888" type="line"/>
      <point x="661" y="665" type="line"/>
      <point x="481" y="665" type="line"/>
      <point x="481" y="230" type="line"/>
      <point x="586" y="236"/>
      <point x="733" y="296"/>
      <point x="830" y="385"/>
      <point x="885" y="496"/>
      <point x="912" y="614"/>
      <point x="918" y="729"/>
      <point x="918" y="778" type="qcurve"/>
      <point x="918" y="890"/>
      <point x="883" y="1078"/>
      <point x="787" y="1214"/>
      <point x="617" y="1289"/>
    </contour>
  </outline>
</glyph>
<glyph name="Oslash" format="1">
  <advance width="1600"/>
  <unicode hex="00D8"/>
  <outline>
    <contour>
      <point x="383" y="-100" type="line"/>
      <point x="30" y="-100" type="line"/>
      <point x="1182" y="1600" type="line"/>
      <point x="1526" y="1600" type="line"/>
    </contour>
    <contour>
      <point x="799" y="21" type="qcurve"/>
      <point x="632" y="21"/>
      <point x="366" y="137"/>
      <point x="180" y="342"/>
      <point x="81" y="623"/>
      <point x="81" y="788" type="qcurve"/>
      <point x="81" y="953"/>
      <point x="177" y="1234"/>
      <point x="360" y="1439"/>
      <point x="628" y="1555"/>
      <point x="799" y="1555" type="qcurve"/>
      <point x="966" y="1555"/>
      <point x="1232" y="1439"/>
      <point x="1417" y="1234"/>
      <point x="1516" y="953"/>
      <point x="1516" y="788" type="qcurve"/>
      <point x="1516" y="623"/>
      <point x="1420" y="342"/>
      <point x="1237" y="137"/>
      <point x="970" y="21"/>
    </contour>
    <contour>
      <point x="1167" y="759" type="qcurve"/>
      <point x="1167" y="865"/>
      <point x="1127" y="1063"/>
      <point x="1037" y="1215"/>
      <point x="895" y="1307"/>
      <point x="793" y="1307" type="qcurve"/>
      <point x="697" y="1307"/>
      <point x="559" y="1226"/>
      <point x="471" y="1091"/>
      <point x="430" y="915"/>
      <point x="430" y="821" type="qcurve"/>
      <point x="430" y="713"/>
      <point x="471" y="514"/>
      <point x="561" y="361"/>
      <point x="703" y="269"/>
      <point x="804" y="269" type="qcurve"/>
      <point x="900" y="269"/>
      <point x="1037" y="352"/>
      <point x="1126" y="489"/>
      <point x="1167" y="665"/>
    </contour>
  </outline>
</glyph>
<glyph name="Thorn" format="1">
  <advance width="1300"/>
  <unicode hex="00DE"/>
  <outline>
    <contour>
      <point x="106" y="1500" type="line"/>
      <point x="470" y="1500" type="line"/>
      <point x="470" y="1311" type="line"/>
      <point x="584" y="1311" type="line"/>
      <point x="635" y="1311"/>
      <point x="750" y="1293"/>
      <point x="861" y="1252"/>
      <point x="963" y="1186"/>
      <point x="1041" y="1090"/>
      <point x="1087" y="963"/>
      <point x="1087" y="882" type="qcurve"/>
      <point x="1087" y="825"/>
      <point x="1070" y="702"/>
      <point x="1016" y="584"/>
      <point x="917" y="478"/>
      <point x="835" y="438" type="qcurve"/>
      <point x="809" y="426"/>
      <point x="751" y="405"/>
      <point x="681" y="390"/>
      <point x="597" y="381"/>
      <point x="546" y="381" type="qcurve"/>
      <point x="470" y="381" type="line"/>
      <point x="470" y="0" type="line"/>
      <point x="128" y="0" type="line"/>
      <point x="128" y="1267" type="line"/>
    </contour>
    <contour>
      <point x="470" y="1093" type="line"/>
      <point x="470" y="605" type="line"/>
      <point x="574" y="605" type="line"/>
      <point x="623" y="605"/>
      <point x="696" y="647"/>
      <point x="742" y="722"/>
      <point x="765" y="823"/>
      <point x="765" y="882" type="qcurve"/>
      <point x="765" y="983"/>
      <point x="652" y="1093"/>
      <point x="555" y="1093" type="qcurve"/>
    </contour>
  </outline>
</glyph>
<glyph name="germandbls" format="1">
  <advance width="1300"/>
  <unicode hex="00DF"/>
  <outline>
    <contour>
      <point x="469" y="-21" type="line"/>
      <point x="126" y="5" type="line"/>
      <point x="126" y="1073" type="line"/>
      <point x="126" y="1176"/>
      <point x="197" y="1332"/>
      <point x="326" y="1437"/>
      <point x="504" y="1489"/>
      <point x="612" y="1489" type="qcurve"/>
      <point x="843" y="1489"/>
      <point x="953" y="1373" type="qcurve"/>
      <point x="978" y="1346"/>
      <point x="1020" y="1293"/>
      <point x="1050" y="1234"/>
      <point x="1067" y="1167"/>
      <point x="1067" y="1127" type="qcurve"/>
      <point x="1067" y="1074"/>
      <point x="1037" y="980"/>
      <point x="982" y="900"/>
      <point x="905" y="835"/>
      <point x="858" y="811" type="qcurve"/>
      <point x="921" y="790"/>
      <point x="1032" y="728"/>
      <point x="1114" y="644"/>
      <point x="1161" y="535"/>
      <point x="1161" y="466" type="qcurve"/>
      <point x="1161" y="380"/>
      <point x="1113" y="244"/>
      <point x="1031" y="140"/>
      <point x="922" y="67"/>
      <point x="797" y="21"/>
      <point x="664" y="0"/>
      <point x="600" y="0" type="qcurve"/>
      <point x="519" y="224" type="line"/>
      <point x="665" y="227"/>
      <point x="825" y="339"/>
      <point x="825" y="457" type="qcurve"/>
      <point x="825" y="516"/>
      <point x="791" y="601"/>
      <point x="729" y="655"/>
      <point x="645" y="681"/>
      <point x="594" y="681" type="qcurve"/>
      <point x="499" y="902" type="line"/>
      <point x="553" y="907"/>
      <point x="642" y="936"/>
      <point x="705" y="986"/>
      <point x="739" y="1058"/>
      <point x="739" y="1107" type="qcurve"/>
      <point x="739" y="1142"/>
      <point x="717" y="1204"/>
      <point x="681" y="1250"/>
      <point x="634" y="1276"/>
      <point x="609" y="1276" type="qcurve"/>
      <point x="538" y="1276"/>
      <point x="469" y="1203"/>
      <point x="469" y="1119" type="qcurve"/>
    </contour>
  </outline>
</glyph>
<glyph name="igrave" format="1">
  <advance width="600"/>
  <unicode hex="00EC"/>
  <outline>
    <contour>
      <point x="447" y="0" type="line"/>
      <point x="121" y="0" type="line"/>
      <point x="121" y="1052" type="line"/>
      <point x="447" y="1084" type="line"/>
    </contour>
    <contour>
      <point x="526" y="1237" type="line"/>
      <point x="268" y="1237" type="line"/>
      <point x="4" y="1528" type="line"/>
      <point x="351" y="1562" type="line"/>
    </contour>
  </outline>
</glyph>
<glyph name="iacute" format="1">
  <advance width="600"/>
  <unicode hex="00ED"/>
  <outline>
    <contour>
      <point x="450" y="0" type="line"/>
      <point x="124" y="0" type="line"/>
      <point x="124" y="1052" type="line"/>
      <point x="450" y="1084" type="line"/>
    </contour>
    <contour>
      <point x="305" y="1533" type="line"/>
      <point x="696" y="1565" type="line"/>
      <point x="404" y="1237" type="line"/>
      <point x="145" y="1237" type="line"/>
    </contour>
  </outline>
</glyph>
<glyph name="eth" format="1">
  <advance width="1300"/>
  <unicode hex="00F0"/>
  <outline>
    <contour>
      <point x="352" y="1154" type="line"/>
      <point x="554" y="1320" type="line"/>
      <point x="410" y="1296" type="line"/>
      <point x="366" y="1310"/>
      <point x="331" y="1310" type="qcurve"/>
      <point x="304" y="1310"/>
      <point x="254" y="1305"/>
      <point x="231" y="1300" type="qcurve"/>
      <point x="195" y="1508" type="line"/>
      <point x="228" y="1511"/>
      <point x="272" y="1515"/>
      <point x="302" y="1517"/>
      <point x="323" y="1517"/>
      <point x="332" y="1517" type="qcurve"/>
      <point x="432" y="1517"/>
      <point x="608" y="1473"/>
      <point x="683" y="1433" type="qcurve"/>
      <point x="832" y="1561" type="line"/>
      <point x="972" y="1395" type="line"/>
      <point x="787" y="1239" type="line"/>
      <point x="915" y="1239" type="line"/>
      <point x="967" y="1177"/>
      <point x="1045" y="1029"/>
      <point x="1096" y="867"/>
      <point x="1121" y="696"/>
      <point x="1121" y="612" type="qcurve"/>
      <point x="1121" y="558"/>
      <point x="1101" y="424"/>
      <point x="1054" y="284"/>
      <point x="975" y="151"/>
      <point x="857" y="46"/>
      <point x="696" y="-17"/>
      <point x="590" y="-17" type="qcurve"/>
      <point x="472" y="-17"/>
      <point x="289" y="54"/>
      <point x="165" y="183"/>
      <point x="100" y="363"/>
      <point x="100" y="472" type="qcurve"/>
      <point x="100" y="584"/>
      <point x="166" y="758"/>
      <point x="287" y="875"/>
      <point x="460" y="936"/>
      <point x="568" y="936" type="qcurve"/>
      <point x="616" y="936"/>
      <point x="713" y="922"/>
      <point x="761" y="904" type="qcurve"/>
      <point x="758" y="929"/>
      <point x="740" y="988"/>
      <point x="712" y="1048"/>
      <point x="675" y="1104"/>
      <point x="653" y="1126" type="qcurve"/>
      <point x="495" y="993" type="line"/>
    </contour>
    <contour>
      <point x="799" y="596" type="qcurve"/>
      <point x="781" y="616"/>
      <point x="739" y="658"/>
      <point x="686" y="691"/>
      <point x="622" y="712"/>
      <point x="582" y="712" type="qcurve"/>
      <point x="536" y="712"/>
      <point x="468" y="672"/>
      <point x="423" y="603"/>
      <point x="400" y="509"/>
      <point x="400" y="455" type="qcurve"/>
      <point x="400" y="401"/>
      <point x="429" y="311"/>
      <point x="480" y="245"/>
      <point x="549" y="208"/>
      <point x="589" y="208" type="qcurve"/>
      <point x="628" y="208"/>
      <point x="693" y="243"/>
      <point x="743" y="302"/>
      <point x="777" y="381"/>
      <point x="786" y="426" type="qcurve"/>
      <point x="795" y="469"/>
      <point x="799" y="551"/>
    </contour>
  </outline>
</glyph>
<glyph name="divide" format="1">
  <advance width="1100"/>
  <unicode hex="00F7"/>
  <outline>
    <contour>
      <point x="409" y="287" type="qcurve"/>
      <point x="409" y="316"/>
      <point x="431" y="367"/>
      <point x="470" y="406"/>
      <point x="520" y="428"/>
      <point x="549" y="428" type="qcurve"/>
      <point x="578" y="428"/>
      <point x="628" y="406"/>
      <point x="667" y="367"/>
      <point x="689" y="316"/>
      <point x="689" y="287" type="qcurve"/>
      <point x="689" y="259"/>
      <point x="667" y="207"/>
      <point x="630" y="168"/>
      <point x="579" y="144"/>
      <point x="550" y="144" type="qcurve"/>
      <point x="522" y="144"/>
      <point x="470" y="168"/>
      <point x="431" y="207"/>
      <point x="409" y="259"/>
    </contour>
    <contour>
      <point x="409" y="940" type="qcurve"/>
      <point x="409" y="969"/>
      <point x="431" y="1020"/>
      <point x="470" y="1059"/>
      <point x="520" y="1081"/>
      <point x="549" y="1081" type="qcurve"/>
      <point x="578" y="1081"/>
      <point x="628" y="1059"/>
      <point x="667" y="1020"/>
      <point x="689" y="969"/>
      <point x="689" y="940" type="qcurve"/>
      <point x="689" y="912"/>
      <point x="667" y="860"/>
      <point x="630" y="821"/>
      <point x="579" y="797"/>
      <point x="550" y="797" type="qcurve"/>
      <point x="522" y="797"/>
      <point x="470" y="821"/>
      <point x="431" y="860"/>
      <point x="409" y="912"/>
    </contour>
    <contour>
      <point x="100" y="724" type="line"/>
      <point x="1000" y="724" type="line"/>
      <point x="1000" y="569" type="line"/>
      <point x="100" y="569" type="line"/>
    </contour>
  </outline>
</glyph>
<glyph name="oslash" format="1">
  <advance width="1200"/>
  <unicode hex="00F8"/>
  <outline>
    <contour>
      <point x="330" y="-100" type="line"/>
      <point x="70" y="-100" type="line"/>
      <point x="870" y="1209" type="line"/>
      <point x="1120" y="1209" type="line"/>
    </contour>
    <contour>
      <point x="623" y="20" type="qcurve"/>
      <point x="503" y="20"/>
      <point x="305" y="107"/>
      <point x="162" y="260"/>
      <point x="83" y="468"/>
      <point x="83" y="590" type="qcurve"/>
      <point x="83" y="711"/>
      <point x="159" y="918"/>
      <point x="300" y="1069"/>
      <point x="499" y="1154"/>
      <point x="623" y="1154" type="qcurve"/>
      <point x="743" y="1154"/>
      <point x="942" y="1069"/>
      <point x="1085" y="918"/>
      <point x="1164" y="711"/>
      <point x="1164" y="590" type="qcurve"/>
      <point x="1164" y="468"/>
      <point x="1088" y="260"/>
      <point x="947" y="107"/>
      <point x="747" y="20"/>
    </contour>
    <contour>
      <point x="838" y="565" type="qcurve"/>
      <point x="838" y="633"/>
      <point x="814" y="765"/>
      <point x="761" y="870"/>
      <point x="678" y="934"/>
      <point x="619" y="934" type="qcurve"/>
      <point x="564" y="934"/>
      <point x="484" y="879"/>
      <point x="433" y="787"/>
      <point x="409" y="670"/>
      <point x="409" y="608" type="qcurve"/>
      <point x="409" y="539"/>
      <point x="433" y="407"/>
      <point x="486" y="304"/>
      <point x="568" y="240"/>
      <point x="626" y="240" type="qcurve"/>
      <point x="681" y="240"/>
      <point x="761" y="295"/>
      <point x="813" y="387"/>
      <point x="838" y="503"/>
    </contour>
  </outline>
</glyph>
<glyph name="oe" format="1">
  <advance width="1900"/>
  <unicode hex="0153"/>
  <outline>
    <contour>
      <point x="822" y="571" type="qcurve"/>
      <point x="822" y="633"/>
      <point x="803" y="750"/>
      <point x="755" y="842"/>
      <point x="676" y="897"/>
      <point x="616" y="897" type="qcurve"/>
      <point x="561" y="897"/>
      <point x="482" y="842"/>
      <point x="431" y="750"/>
      <point x="407" y="633"/>
      <point x="407" y="571" type="qcurve"/>
      <point x="407" y="502"/>
      <point x="430" y="370"/>
      <point x="479" y="266"/>
      <point x="559" y="203"/>
      <point x="616" y="203" type="qcurve"/>
      <point x="673" y="203"/>
      <point x="752" y="266"/>
      <point x="801" y="370"/>
      <point x="822" y="502"/>
    </contour>
    <contour>
      <point x="908" y="82" type="line"/>
      <point x="890" y="66"/>
      <point x="831" y="31"/>
      <point x="758" y="3"/>
      <point x="678" y="-16"/>
      <point x="640" y="-16" type="qcurve"/>
      <point x="520" y="-16"/>
      <point x="322" y="71"/>
      <point x="179" y="224"/>
      <point x="100" y="432"/>
      <point x="100" y="553" type="qcurve"/>
      <point x="100" y="674"/>
      <point x="176" y="880"/>
      <point x="317" y="1031"/>
      <point x="516" y="1116"/>
      <point x="640" y="1116" type="qcurve"/>
      <point x="680" y="1116"/>
      <point x="751" y="1102"/>
      <point x="816" y="1078"/>
      <point x="877" y="1045"/>
      <point x="908" y="1026" type="qcurve"/>
      <point x="984" y="905" type="line"/>
      <point x="1063" y="1025" type="line"/>
      <point x="1082" y="1040"/>
      <point x="1135" y="1072"/>
      <point x="1196" y="1099"/>
      <point x="1265" y="1116"/>
      <point x="1300" y="1116" type="qcurve"/>
      <point x="1420" y="1116"/>
      <point x="1594" y="1046"/>
      <point x="1707" y="918"/>
      <point x="1761" y="740"/>
      <point x="1761" y="632" type="qcurve"/>
      <point x="1761" y="605"/>
      <point x="1755" y="517"/>
      <point x="1749" y="466" type="qcurve"/>
      <point x="1085" y="466" type="line"/>
      <point x="1089" y="412"/>
      <point x="1133" y="315"/>
      <point x="1204" y="243"/>
      <point x="1295" y="200"/>
      <point x="1348" y="200" type="qcurve"/>
      <point x="1417" y="200"/>
      <point x="1535" y="252"/>
      <point x="1591" y="292" type="qcurve"/>
      <point x="1744" y="157" type="line"/>
      <point x="1708" y="119"/>
      <point x="1624" y="55"/>
      <point x="1522" y="9"/>
      <point x="1399" y="-17"/>
      <point x="1324" y="-17" type="qcurve"/>
      <point x="1281" y="-17"/>
      <point x="1199" y="4"/>
      <point x="1130" y="34"/>
      <point x="1077" y="69"/>
      <point x="1063" y="83" type="qcurve"/>
      <point x="984" y="203" type="line"/>
    </contour>
    <contour>
      <point x="1209" y="671" type="line"/>
      <point x="1492" y="671" type="line"/>
      <point x="1492" y="716"/>
      <point x="1472" y="800"/>
      <point x="1430" y="864"/>
      <point x="1362" y="903"/>
      <point x="1314" y="903" type="qcurve"/>
      <point x="1272" y="903"/>
      <point x="1209" y="873"/>
      <point x="1164" y="829"/>
      <point x="1135" y="777"/>
      <point x="1127" y="756" type="qcurve"/>
      <point x="1036" y="653" type="line"/>
    </contour>
  </outline>
</glyph>
<glyph name="florin" format="1">
  <advance width="1400"/>
  <unicode hex="0192"/>
  <outline>
    <contour>
      <point x="1179" y="1263" type="line"/>
      <point x="1158" y="1275"/>
      <point x="1127" y="1290"/>
      <point x="1102" y="1297"/>
      <point x="1076" y="1300"/>
      <point x="1059" y="1300" type="qcurve"/>
      <point x="1038" y="1300"/>
      <point x="999" y="1248"/>
      <point x="956" y="1137"/>
      <point x="907" y="966"/>
      <point x="878" y="846" type="qcurve"/>
      <point x="1154" y="846" type="line"/>
      <point x="1098" y="631" type="line"/>
      <point x="902" y="631" type="line"/>
      <point x="835" y="725" type="line"/>
      <point x="642" y="-85" type="line"/>
      <point x="625" y="-156"/>
      <point x="582" y="-282"/>
      <point x="502" y="-376"/>
      <point x="371" y="-431"/>
      <point x="267" y="-431" type="qcurve"/>
      <point x="217" y="-431"/>
      <point x="135" y="-420"/>
      <point x="64" y="-402"/>
      <point x="0" y="-377"/>
      <point x="-32" y="-362" type="qcurve"/>
      <point x="95" y="-157" type="line"/>
      <point x="137" y="-180"/>
      <point x="202" y="-196"/>
      <point x="229" y="-196" type="qcurve"/>
      <point x="244" y="-196"/>
      <point x="271" y="-163"/>
      <point x="293" y="-115"/>
      <point x="311" y="-62"/>
      <point x="316" y="-42" type="qcurve"/>
      <point x="485" y="628" type="line"/>
      <point x="262" y="628" type="line"/>
      <point x="319" y="846" type="line"/>
      <point x="469" y="846" type="line"/>
      <point x="524" y="777" type="line"/>
      <point x="572" y="972"/>
      <point x="656" y="1252"/>
      <point x="761" y="1432"/>
      <point x="901" y="1517"/>
      <point x="1006" y="1517" type="qcurve"/>
      <point x="1057" y="1517"/>
      <point x="1130" y="1506"/>
      <point x="1190" y="1487"/>
      <point x="1243" y="1462"/>
      <point x="1275" y="1447" type="qcurve"/>
    </contour>
  </outline>
</glyph>
<glyph name="ring" format="1">
  <advance width="1100"/>
  <unicode hex="02DA"/>
  <outline>
    <contour>
      <point x="500" y="1682" type="qcurve"/>
      <point x="559" y="1682"/>
      <point x="662" y="1637"/>
      <point x="739" y="1560"/>
      <point x="784" y="1456"/>
      <point x="784" y="1397" type="qcurve"/>
      <point x="784" y="1338"/>
      <point x="740" y="1233"/>
      <point x="664" y="1154"/>
      <point x="561" y="1108"/>
      <point x="502" y="1108" type="qcurve"/>
      <point x="443" y="1108"/>
      <point x="338" y="1154"/>
      <point x="260" y="1233"/>
      <point x="214" y="1338"/>
      <point x="214" y="1397" type="qcurve"/>
      <point x="214" y="1456"/>
      <point x="259" y="1560"/>
      <point x="337" y="1637"/>
      <point x="441" y="1682"/>
    </contour>
    <contour>
      <point x="501" y="1297" type="qcurve"/>
      <point x="521" y="1297"/>
      <point x="556" y="1313"/>
      <point x="582" y="1340"/>
      <point x="597" y="1376"/>
      <point x="597" y="1396" type="qcurve"/>
      <point x="597" y="1416"/>
      <point x="582" y="1451"/>
      <point x="556" y="1478"/>
      <point x="520" y="1493"/>
      <point x="500" y="1493" type="qcurve"/>
      <point x="480" y="1493"/>
      <point x="444" y="1478"/>
      <point x="418" y="1451"/>
      <point x="403" y="1416"/>
      <point x="403" y="1396" type="qcurve"/>
      <point x="403" y="1376"/>
      <point x="418" y="1340"/>
      <point x="445" y="1313"/>
      <point x="481" y="1297"/>
    </contour>
  </outline>
</glyph>
<glyph name="Deltagreek" format="1">
  <advance width="1500"/>
  <unicode hex="0394"/>
  <outline>
    <contour>
      <point x="1520" y="0" type="line"/>
      <point x="-62" y="0" type="line"/>
      <point x="559" y="1494" type="line"/>
      <point x="887" y="1528" type="line"/>
    </contour>
    <contour>
      <point x="1037" y="230" type="line"/>
      <point x="1180" y="178" type="line"/>
      <point x="1074" y="330" type="line"/>
      <point x="776" y="1061" type="line"/>
      <point x="727" y="1265" type="line"/>
      <point x="680" y="1061" type="line"/>
      <point x="380" y="330" type="line"/>
      <point x="271" y="178" type="line"/>
      <point x="437" y="230" type="line"/>
    </contour>
  </outline>
</glyph>
<glyph name="Theta" format="1">
  <advance width="1600"/>
  <unicode hex="0398"/>
  <outline>
    <contour>
      <point x="540" y="900" type="line"/>
      <point x="1080" y="900" type="line"/>
      <point x="1060" y="662" type="line"/>
      <point x="520" y="662" type="line"/>
    </contour>
    <contour>
      <point x="800" y="21" type="qcurve"/>
      <point x="633" y="21"/>
      <point x="367" y="137"/>
      <point x="181" y="342"/>
      <point x="82" y="623"/>
      <point x="82" y="788" type="qcurve"/>
      <point x="82" y="953"/>
      <point x="178" y="1234"/>
      <point x="361" y="1439"/>
      <point x="629" y="1555"/>
      <point x="800" y="1555" type="qcurve"/>
      <point x="967" y="1555"/>
      <point x="1233" y="1439"/>
      <point x="1418" y="1234"/>
      <point x="1517" y="953"/>
      <point x="1517" y="788" type="qcurve"/>
      <point x="1517" y="623"/>
      <point x="1421" y="342"/>
      <point x="1238" y="137"/>
      <point x="971" y="21"/>
    </contour>
    <contour>
      <point x="1168" y="759" type="qcurve"/>
      <point x="1168" y="865"/>
      <point x="1128" y="1063"/>
      <point x="1038" y="1215"/>
      <point x="896" y="1307"/>
      <point x="794" y="1307" type="qcurve"/>
      <point x="698" y="1307"/>
      <point x="560" y="1226"/>
      <point x="472" y="1091"/>
      <point x="431" y="915"/>
      <point x="431" y="821" type="qcurve"/>
      <point x="431" y="713"/>
      <point x="472" y="514"/>
      <point x="562" y="361"/>
      <point x="704" y="269"/>
      <point x="805" y="269" type="qcurve"/>
      <point x="901" y="269"/>
      <point x="1038" y="352"/>
      <point x="1127" y="489"/>
      <point x="1168" y="665"/>
    </contour>
  </outline>
</glyph>
<glyph name="Xi" format="1">
  <advance width="1200"/>
  <unicode hex="039E"/>
  <outline>
    <contour>
      <point x="149" y="916" type="line"/>
      <point x="1021" y="916" type="line"/>
      <point x="1021" y="675" type="line"/>
      <point x="149" y="675" type="line"/>
    </contour>
    <contour>
      <point x="54" y="241" type="line"/>
      <point x="1115" y="241" type="line"/>
      <point x="1115" y="0" type="line"/>
      <point x="54" y="0" type="line"/>
    </contour>
    <contour>
      <point x="54" y="1500" type="line"/>
      <point x="1115" y="1500" type="line"/>
      <point x="1115" y="1259" type="line"/>
      <point x="54" y="1259" type="line"/>
    </contour>
  </outline>
</glyph>
<glyph name="Sigma" format="1">
  <advance width="1200"/>
  <unicode hex="03A3"/>
  <outline>
    <contour>
      <point x="878" y="699" type="line"/>
      <point x="499" y="300" type="line"/>
      <point x="369" y="200" type="line"/>
      <point x="529" y="217" type="line"/>
      <point x="1135" y="217" type="line"/>
      <point x="1135" y="0" type="line"/>
      <point x="10" y="0" type="line"/>
      <point x="33" y="216" type="line"/>
      <point x="489" y="690" type="line"/>
      <point x="699" y="750" type="line"/>
      <point x="489" y="810" type="line"/>
      <point x="33" y="1284" type="line"/>
      <point x="10" y="1500" type="line"/>
      <point x="1135" y="1500" type="line"/>
      <point x="1135" y="1283" type="line"/>
      <point x="529" y="1283" type="line"/>
      <point x="369" y="1300" type="line"/>
      <point x="499" y="1200" type="line"/>
      <point x="878" y="801" type="line"/>
    </contour>
  </outline>
</glyph>
<glyph name="Psi" format="1">
  <advance width="1400"/>
  <unicode hex="03A8"/>
  <outline>
    <contour>
      <point x="853" y="1527" type="line"/>
      <point x="853" y="662" type="line"/>
      <point x="884" y="669"/>
      <point x="938" y="696"/>
      <point x="977" y="740"/>
      <point x="1000" y="804"/>
      <point x="1000" y="849" type="qcurve"/>
      <point x="1000" y="1500" type="line"/>
      <point x="1346" y="1500" type="line"/>
      <point x="1346" y="867" type="line"/>
      <point x="1346" y="754"/>
      <point x="1265" y="596"/>
      <point x="1129" y="492"/>
      <point x="951" y="435"/>
      <point x="853" y="422" type="qcurve"/>
      <point x="853" y="1" type="line"/>
      <point x="511" y="1" type="line"/>
      <point x="511" y="422" type="line"/>
      <point x="410" y="438"/>
      <point x="231" y="513"/>
      <point x="96" y="634"/>
      <point x="17" y="803"/>
      <point x="17" y="914" type="qcurve"/>
      <point x="17" y="1263" type="line"/>
      <point x="-16" y="1494" type="line"/>
      <point x="364" y="1526" type="line"/>
      <point x="364" y="896" type="line"/>
      <point x="364" y="847"/>
      <point x="387" y="774"/>
      <point x="427" y="720"/>
      <point x="481" y="684"/>
      <point x="511" y="673" type="qcurve"/>
      <point x="511" y="1493" type="line"/>
    </contour>
  </outline>
</glyph>
<glyph name="Omegagreek" format="1">
  <advance width="1600"/>
  <unicode hex="03A9"/>
  <outline>
    <contour>
      <point x="40" y="228" type="line"/>
      <point x="334" y="228" type="line"/>
      <point x="196" y="308" type="line"/>
      <point x="174" y="338"/>
      <point x="127" y="425"/>
      <point x="87" y="541"/>
      <point x="61" y="686"/>
      <point x="61" y="774" type="qcurve"/>
      <point x="61" y="939"/>
      <point x="157" y="1212"/>
      <point x="340" y="1408"/>
      <point x="608" y="1516"/>
      <point x="779" y="1516" type="qcurve"/>
      <point x="946" y="1516"/>
      <point x="1212" y="1408"/>
      <point x="1397" y="1212"/>
      <point x="1496" y="939"/>
      <point x="1496" y="774" type="qcurve"/>
      <point x="1496" y="687"/>
      <point x="1471" y="542"/>
      <point x="1432" y="426"/>
      <point x="1387" y="340"/>
      <point x="1367" y="312" type="qcurve"/>
      <point x="1224" y="228" type="line"/>
      <point x="1516" y="228" type="line"/>
      <point x="1516" y="0" type="line"/>
      <point x="844" y="0" type="line"/>
      <point x="844" y="243" type="line"/>
      <point x="911" y="272"/>
      <point x="1023" y="370"/>
      <point x="1103" y="499"/>
      <point x="1147" y="655"/>
      <point x="1147" y="744" type="qcurve"/>
      <point x="1147" y="850"/>
      <point x="1107" y="1044"/>
      <point x="1017" y="1191"/>
      <point x="875" y="1279"/>
      <point x="773" y="1279" type="qcurve"/>
      <point x="677" y="1279"/>
      <point x="539" y="1202"/>
      <point x="451" y="1072"/>
      <point x="410" y="901"/>
      <point x="410" y="807" type="qcurve"/>
      <point x="410" y="704"/>
      <point x="453" y="526"/>
      <point x="533" y="382"/>
      <point x="644" y="274"/>
      <point x="712" y="241" type="qcurve"/>
      <point x="712" y="0" type="line"/>
      <point x="40" y="0" type="line"/>
    </contour>
  </outline>
</glyph>
<glyph name="alpha" format="1">
  <advance width="1400"/>
  <unicode hex="03B1"/>
  <outline>
    <contour>
      <point x="817" y="528" type="qcurve"/>
      <point x="817" y="596"/>
      <point x="786" y="734"/>
      <point x="726" y="846"/>
      <point x="636" y="917"/>
      <point x="578" y="917" type="qcurve"/>
      <point x="523" y="917"/>
      <point x="437" y="855"/>
      <point x="379" y="756"/>
      <point x="348" y="633"/>
      <point x="348" y="571" type="qcurve"/>
      <point x="348" y="502"/>
      <point x="378" y="364"/>
      <point x="438" y="253"/>
      <point x="527" y="183"/>
      <point x="585" y="183" type="qcurve"/>
      <point x="640" y="183"/>
      <point x="726" y="245"/>
      <point x="786" y="343"/>
      <point x="817" y="466"/>
    </contour>
    <contour>
      <point x="903" y="176" type="line"/>
      <point x="842" y="56" type="line"/>
      <point x="790" y="13"/>
      <point x="660" y="-17"/>
      <point x="582" y="-17" type="qcurve"/>
      <point x="462" y="-17"/>
      <point x="267" y="70"/>
      <point x="128" y="223"/>
      <point x="52" y="431"/>
      <point x="52" y="553" type="qcurve"/>
      <point x="52" y="674"/>
      <point x="125" y="881"/>
      <point x="262" y="1032"/>
      <point x="458" y="1117"/>
      <point x="582" y="1117" type="qcurve"/>
      <point x="656" y="1117"/>
      <point x="782" y="1083"/>
      <point x="842" y="1051" type="qcurve"/>
      <point x="903" y="931" type="line"/>
      <point x="942" y="1055" type="line"/>
      <point x="968" y="1071"/>
      <point x="1035" y="1104"/>
      <point x="1076" y="1122" type="qcurve"/>
      <point x="1210" y="962" type="line"/>
      <point x="1133" y="904"/>
      <point x="1128" y="829" type="qcurve"/>
      <point x="1126" y="787"/>
      <point x="1123" y="651"/>
      <point x="1123" y="552" type="qcurve"/>
      <point x="1123" y="518"/>
      <point x="1125" y="437"/>
      <point x="1130" y="356"/>
      <point x="1141" y="280"/>
      <point x="1158" y="222"/>
      <point x="1182" y="187"/>
      <point x="1199" y="187" type="qcurve"/>
      <point x="1220" y="187"/>
      <point x="1249" y="197"/>
      <point x="1256" y="203" type="qcurve"/>
      <point x="1332" y="35" type="line"/>
      <point x="1279" y="10"/>
      <point x="1185" y="-17"/>
      <point x="1142" y="-17" type="qcurve"/>
      <point x="1082" y="-17"/>
      <point x="976" y="27"/>
      <point x="942" y="52" type="qcurve"/>
    </contour>
  </outline>
</glyph>
<glyph name="delta" format="1">
  <advance width="1200"/>
  <unicode hex="03B4"/>
  <outline>
    <contour>
      <point x="580" y="183" type="qcurve"/>
      <point x="623" y="183"/>
      <point x="697" y="237"/>
      <point x="751" y="331"/>
      <point x="782" y="457"/>
      <point x="782" y="528" type="qcurve"/>
      <point x="782" y="582"/>
      <point x="756" y="699"/>
      <point x="706" y="796"/>
      <point x="631" y="859"/>
      <point x="583" y="859" type="qcurve"/>
      <point x="485" y="859"/>
      <point x="376" y="688"/>
      <point x="376" y="528" type="qcurve"/>
      <point x="376" y="457"/>
      <point x="406" y="331"/>
      <point x="460" y="237"/>
      <point x="535" y="183"/>
    </contour>
    <contour>
      <point x="999" y="1500" type="line"/>
      <point x="940" y="1300" type="line"/>
      <point x="527" y="1300" type="line"/>
      <point x="495" y="1300"/>
      <point x="454" y="1279"/>
      <point x="454" y="1253" type="qcurve"/>
      <point x="454" y="1236"/>
      <point x="508" y="1205"/>
      <point x="591" y="1171"/>
      <point x="688" y="1131"/>
      <point x="730" y="1107" type="qcurve"/>
      <point x="825" y="1053"/>
      <point x="970" y="933"/>
      <point x="1069" y="794"/>
      <point x="1120" y="628"/>
      <point x="1120" y="528" type="qcurve"/>
      <point x="1120" y="456"/>
      <point x="1082" y="320"/>
      <point x="1012" y="199"/>
      <point x="914" y="97"/>
      <point x="795" y="24"/>
      <point x="658" y="-17"/>
      <point x="584" y="-17" type="qcurve"/>
      <point x="504" y="-17"/>
      <point x="362" y="28"/>
      <point x="243" y="106"/>
      <point x="149" y="212"/>
      <point x="83" y="336"/>
      <point x="48" y="472"/>
      <point x="48" y="540" type="qcurve"/>
      <point x="48" y="606"/>
      <point x="80" y="744"/>
      <point x="155" y="870"/>
      <point x="278" y="978"/>
      <point x="369" y="1015" type="qcurve"/>
      <point x="550" y="1015" type="line"/>
      <point x="310" y="1108" type="line"/>
      <point x="281" y="1123"/>
      <point x="226" y="1161"/>
      <point x="184" y="1206"/>
      <point x="158" y="1257"/>
      <point x="158" y="1286" type="qcurve"/>
      <point x="158" y="1334"/>
      <point x="195" y="1403"/>
      <point x="257" y="1451"/>
      <point x="339" y="1479"/>
      <point x="429" y="1495"/>
      <point x="522" y="1500"/>
      <point x="564" y="1500" type="qcurve"/>
    </contour>
  </outline>
</glyph>
<glyph name="epsilon" format="1">
  <advance width="1000"/>
  <unicode hex="03B5"/>
  <outline>
    <contour>
      <point x="729" y="665" type="line"/>
      <point x="700" y="466" type="line"/>
      <point x="431" y="466" type="line"/>
      <point x="408" y="466"/>
      <point x="371" y="445"/>
      <point x="346" y="408"/>
      <point x="332" y="357"/>
      <point x="332" y="328" type="qcurve"/>
      <point x="332" y="300"/>
      <point x="357" y="248"/>
      <point x="400" y="208"/>
      <point x="460" y="184"/>
      <point x="496" y="184" type="qcurve"/>
      <point x="538" y="184"/>
      <point x="625" y="210"/>
      <point x="660" y="226" type="qcurve"/>
      <point x="701" y="244"/>
      <point x="741" y="268" type="qcurve"/>
      <point x="880" y="131" type="line"/>
      <point x="844" y="90"/>
      <point x="785" y="57" type="qcurve"/>
      <point x="735" y="29"/>
      <point x="574" y="-17"/>
      <point x="458" y="-17" type="qcurve"/>
      <point x="407" y="-17"/>
      <point x="300" y="2"/>
      <point x="199" y="40"/>
      <point x="111" y="97"/>
      <point x="44" y="174"/>
      <point x="6" y="271"/>
      <point x="6" y="329" type="qcurve"/>
      <point x="6" y="401"/>
      <point x="66" y="517"/>
      <point x="118" y="562" type="qcurve"/>
      <point x="65" y="607"/>
      <point x="6" y="720"/>
      <point x="6" y="792" type="qcurve"/>
      <point x="6" y="851"/>
      <point x="44" y="945"/>
      <point x="111" y="1017"/>
      <point x="199" y="1068"/>
      <point x="300" y="1101"/>
      <point x="407" y="1117"/>
      <point x="458" y="1117" type="qcurve"/>
      <point x="519" y="1117"/>
      <point x="640" y="1093"/>
      <point x="689" y="1079" type="qcurve"/>
      <point x="746" y="1062"/>
      <point x="799" y="1042" type="qcurve"/>
      <point x="727" y="894" type="line"/>
      <point x="691" y="900"/>
      <point x="652" y="905" type="qcurve"/>
      <point x="619" y="910"/>
      <point x="537" y="917"/>
      <point x="496" y="917" type="qcurve"/>
      <point x="457" y="917"/>
      <point x="396" y="891"/>
      <point x="354" y="851"/>
      <point x="332" y="800"/>
      <point x="332" y="775" type="qcurve"/>
      <point x="332" y="752"/>
      <point x="348" y="712"/>
      <point x="376" y="682"/>
      <point x="411" y="665"/>
      <point x="431" y="665" type="qcurve"/>
    </contour>
  </outline>
</glyph>
<glyph name="lambda" format="1">
  <advance width="1100"/>
  <unicode hex="03BB"/>
  <outline>
    <contour>
      <point x="797" y="0" type="line"/>
      <point x="629" y="452" type="line"/>
      <point x="550" y="875" type="line"/>
      <point x="470" y="454" type="line"/>
      <point x="313" y="0" type="line"/>
      <point x="0" y="0" type="line"/>
      <point x="426" y="1148" type="line"/>
      <point x="417" y="1192"/>
      <point x="373" y="1271"/>
      <point x="321" y="1330"/>
      <point x="269" y="1365"/>
      <point x="252" y="1365" type="qcurve"/>
      <point x="238" y="1365"/>
      <point x="215" y="1360"/>
      <point x="191" y="1348"/>
      <point x="164" y="1330"/>
      <point x="145" y="1317" type="qcurve"/>
      <point x="26" y="1475" type="line"/>
      <point x="84" y="1525"/>
      <point x="215" y="1581"/>
      <point x="282" y="1581" type="qcurve"/>
      <point x="338" y="1581"/>
      <point x="434" y="1539"/>
      <point x="516" y="1467"/>
      <point x="585" y="1371"/>
      <point x="643" y="1263"/>
      <point x="691" y="1147"/>
      <point x="711" y="1092" type="qcurve"/>
      <point x="1110" y="0" type="line"/>
    </contour>
  </outline>
</glyph>
<glyph name="nu" format="1">
  <advance width="1200"/>
  <unicode hex="03BD"/>
  <outline>
    <contour>
      <point x="492" y="650" type="line"/>
      <point x="576" y="250" type="line"/>
      <point x="658" y="650" type="line"/>
      <point x="807" y="1100" type="line"/>
      <point x="1128" y="1100" type="line"/>
      <point x="746" y="0" type="line"/>
      <point x="392" y="0" type="line"/>
      <point x="10" y="1100" type="line"/>
      <point x="330" y="1100" type="line"/>
    </contour>
  </outline>
</glyph>
<glyph name="sigma1" format="1">
  <advance width="1000"/>
  <unicode hex="03C2"/>
  <outline>
    <contour>
      <point x="871" y="900" type="line"/>
      <point x="836" y="700" type="line"/>
      <point x="789" y="700"/>
      <point x="683" y="694"/>
      <point x="580" y="676"/>
      <point x="485" y="643"/>
      <point x="413" y="588"/>
      <point x="370" y="509"/>
      <point x="370" y="454" type="qcurve"/>
      <point x="370" y="425"/>
      <point x="389" y="366"/>
      <point x="445" y="299"/>
      <point x="548" y="222"/>
      <point x="632" y="176" type="qcurve"/>
      <point x="691" y="143"/>
      <point x="798" y="78"/>
      <point x="879" y="-1"/>
      <point x="926" y="-98"/>
      <point x="926" y="-162" type="qcurve"/>
      <point x="926" y="-212"/>
      <point x="871" y="-311"/>
      <point x="776" y="-402"/>
      <point x="648" y="-484"/>
      <point x="575" y="-517" type="qcurve"/>
      <point x="440" y="-324" type="line"/>
      <point x="471" y="-308"/>
      <point x="527" y="-273"/>
      <point x="569" y="-236"/>
      <point x="594" y="-199"/>
      <point x="594" y="-180" type="qcurve"/>
      <point x="594" y="-140"/>
      <point x="545" y="-79"/>
      <point x="471" y="-29"/>
      <point x="387" y="13"/>
      <point x="353" y="33" type="qcurve"/>
      <point x="303" y="61"/>
      <point x="196" y="143"/>
      <point x="108" y="247"/>
      <point x="50" y="373"/>
      <point x="50" y="445" type="qcurve"/>
      <point x="50" y="532"/>
      <point x="109" y="696"/>
      <point x="251" y="823"/>
      <point x="490" y="900"/>
      <point x="669" y="900" type="qcurve"/>
    </contour>
  </outline>
</glyph>
<glyph name="tau" format="1">
  <advance width="1100"/>
  <unicode hex="03C4"/>
  <outline>
    <contour>
      <point x="698" y="900" type="line"/>
      <point x="698" y="284" type="line"/>
      <point x="698" y="250"/>
      <point x="709" y="190"/>
      <point x="736" y="125"/>
      <point x="783" y="50"/>
      <point x="820" y="0" type="qcurve"/>
      <point x="505" y="0" type="line"/>
      <point x="470" y="25"/>
      <point x="425" y="90"/>
      <point x="399" y="170"/>
      <point x="389" y="264"/>
      <point x="389" y="320" type="qcurve"/>
      <point x="389" y="900" type="line"/>
      <point x="54" y="900" type="line"/>
      <point x="81" y="1100" type="line"/>
      <point x="1009" y="1100" type="line"/>
      <point x="982" y="900" type="line"/>
    </contour>
  </outline>
</glyph>
<glyph name="upsilon" format="1">
  <advance width="1200"/>
  <unicode hex="03C5"/>
  <outline>
    <contour>
      <point x="464" y="501" type="line"/>
      <point x="464" y="439"/>
      <point x="477" y="325"/>
      <point x="512" y="236"/>
      <point x="574" y="183"/>
      <point x="623" y="183" type="qcurve"/>
      <point x="673" y="183"/>
      <point x="735" y="238"/>
      <point x="769" y="327"/>
      <point x="781" y="441"/>
      <point x="781" y="501" type="qcurve"/>
      <point x="781" y="720" type="line"/>
      <point x="781" y="784"/>
      <point x="741" y="868"/>
      <point x="684" y="918"/>
      <point x="622" y="939"/>
      <point x="600" y="939" type="qcurve"/>
      <point x="600" y="1117" type="line"/>
      <point x="709" y="1117"/>
      <point x="895" y="1066"/>
      <point x="1030" y="970"/>
      <point x="1107" y="832"/>
      <point x="1107" y="745" type="qcurve"/>
      <point x="1107" y="499" type="line"/>
      <point x="1107" y="459"/>
      <point x="1101" y="352"/>
      <point x="1072" y="237"/>
      <point x="1012" y="126"/>
      <point x="904" y="37"/>
      <point x="741" y="-17"/>
      <point x="623" y="-17" type="qcurve"/>
      <point x="509" y="-17"/>
      <point x="350" y="36"/>
      <point x="242" y="122"/>
      <point x="180" y="232"/>
      <point x="148" y="347"/>
      <point x="140" y="457"/>
      <point x="140" y="499" type="qcurve"/>
      <point x="140" y="825" type="line"/>
      <point x="140" y="863"/>
      <point x="135" y="908"/>
      <point x="122" y="908" type="qcurve"/>
      <point x="116" y="908"/>
      <point x="107" y="899"/>
      <point x="102" y="875"/>
      <point x="100" y="833"/>
      <point x="100" y="800" type="qcurve"/>
      <point x="-130" y="800" type="line"/>
      <point x="-130" y="861"/>
      <point x="-99" y="975"/>
      <point x="-33" y="1064"/>
      <point x="69" y="1117"/>
      <point x="140" y="1117" type="qcurve"/>
      <point x="212" y="1117"/>
      <point x="331" y="1074"/>
      <point x="417" y="997"/>
      <point x="464" y="890"/>
      <point x="464" y="825" type="qcurve"/>
    </contour>
  </outline>
</glyph>
<glyph name="chi" format="1">
  <advance width="1300"/>
  <unicode hex="03C7"/>
  <outline>
    <contour>
      <point x="544" y="763" type="line"/>
      <point x="648" y="478" type="line"/>
      <point x="694" y="716" type="line"/>
      <point x="901" y="1100" type="line"/>
      <point x="1240" y="1100" type="line"/>
      <point x="803" y="323" type="line"/>
      <point x="1114" y="-226" type="line"/>
      <point x="1134" y="-261"/>
      <point x="1176" y="-300"/>
      <point x="1194" y="-311" type="qcurve"/>
      <point x="1215" y="-323"/>
      <point x="1235" y="-328" type="qcurve"/>
      <point x="1235" y="-517" type="line"/>
      <point x="1173" y="-517"/>
      <point x="1057" y="-506"/>
      <point x="953" y="-468"/>
      <point x="862" y="-393"/>
      <point x="826" y="-330" type="qcurve"/>
      <point x="691" y="-93" type="line"/>
      <point x="591" y="167" type="line"/>
      <point x="528" y="-71" type="line"/>
      <point x="289" y="-500" type="line"/>
      <point x="-46" y="-500" type="line"/>
      <point x="433" y="344" type="line"/>
      <point x="159" y="829" type="line"/>
      <point x="140" y="862"/>
      <point x="98" y="902"/>
      <point x="81" y="913" type="qcurve"/>
      <point x="60" y="925"/>
      <point x="40" y="931" type="qcurve"/>
      <point x="40" y="1117" type="line"/>
      <point x="101" y="1117"/>
      <point x="216" y="1106"/>
      <point x="319" y="1069"/>
      <point x="410" y="995"/>
      <point x="446" y="932" type="qcurve"/>
    </contour>
  </outline>
</glyph>
<glyph name="theta1" format="1">
  <advance width="1300"/>
  <unicode hex="03D1"/>
  <outline>
    <contour>
      <point x="328" y="529" type="line"/>
      <point x="344" y="457"/>
      <point x="393" y="339"/>
      <point x="458" y="255"/>
      <point x="537" y="210"/>
      <point x="582" y="210" type="qcurve"/>
      <point x="628" y="210"/>
      <point x="707" y="271"/>
      <point x="767" y="378"/>
      <point x="808" y="522"/>
      <point x="816" y="606" type="qcurve"/>
      <point x="489" y="606" type="line"/>
      <point x="401" y="606"/>
      <point x="243" y="631"/>
      <point x="123" y="706"/>
      <point x="52" y="841"/>
      <point x="52" y="951" type="qcurve"/>
      <point x="52" y="1014"/>
      <point x="82" y="1146"/>
      <point x="142" y="1272"/>
      <point x="231" y="1384"/>
      <point x="348" y="1468"/>
      <point x="495" y="1517"/>
      <point x="582" y="1517" type="qcurve"/>
      <point x="669" y="1517"/>
      <point x="814" y="1459"/>
      <point x="931" y="1358"/>
      <point x="1019" y="1223"/>
      <point x="1080" y="1068"/>
      <point x="1115" y="901"/>
      <point x="1120" y="820" type="qcurve"/>
      <point x="1314" y="820" type="line"/>
      <point x="1287" y="606" type="line"/>
      <point x="1117" y="606" type="line"/>
      <point x="1109" y="528"/>
      <point x="1063" y="376"/>
      <point x="991" y="237"/>
      <point x="896" y="119"/>
      <point x="785" y="32"/>
      <point x="659" y="-17"/>
      <point x="592" y="-17" type="qcurve"/>
      <point x="491" y="-17"/>
      <point x="332" y="46"/>
      <point x="210" y="158"/>
      <point x="125" y="311"/>
      <point x="99" y="400" type="qcurve"/>
    </contour>
    <contour>
      <point x="582" y="1290" type="qcurve"/>
      <point x="529" y="1290"/>
      <point x="438" y="1226"/>
      <point x="369" y="1125"/>
      <point x="330" y="1002"/>
      <point x="330" y="943" type="qcurve"/>
      <point x="330" y="897"/>
      <point x="369" y="847"/>
      <point x="438" y="824"/>
      <point x="529" y="820"/>
      <point x="582" y="820" type="qcurve"/>
      <point x="819" y="820" type="line"/>
      <point x="812" y="907"/>
      <point x="774" y="1075"/>
      <point x="714" y="1208"/>
      <point x="632" y="1290"/>
    </contour>
  </outline>
</glyph>
<glyph name="hyphentwo" format="1">
  <advance width="900"/>
  <unicode hex="2010"/>
  <outline>
    <contour>
      <point x="124" y="624" type="line"/>
      <point x="751" y="624" type="line"/>
      <point x="751" y="400" type="line"/>
      <point x="124" y="400" type="line"/>
    </contour>
  </outline>
</glyph>
<glyph name="quotesinglbase" format="1">
  <advance width="700"/>
  <unicode hex="201A"/>
  <outline>
    <contour>
      <point x="142" y="121" type="qcurve"/>
      <point x="142" y="152"/>
      <point x="165" y="208"/>
      <point x="207" y="250"/>
      <point x="265" y="275"/>
      <point x="300" y="275" type="qcurve"/>
      <point x="334" y="275"/>
      <point x="394" y="250"/>
      <point x="439" y="208"/>
      <point x="464" y="152"/>
      <point x="464" y="121" type="qcurve"/>
      <point x="464" y="85"/>
      <point x="450" y="-4"/>
      <point x="410" y="-103"/>
      <point x="337" y="-210"/>
      <point x="277" y="-266" type="qcurve"/>
      <point x="175" y="-208" type="line"/>
      <point x="186" y="-190"/>
      <point x="209" y="-144"/>
      <point x="228" y="-93"/>
      <point x="242" y="-41"/>
      <point x="245" y="-17" type="qcurve"/>
      <point x="225" y="-9"/>
      <point x="188" y="13"/>
      <point x="160" y="45"/>
      <point x="142" y="90"/>
    </contour>
  </outline>
</glyph>
<glyph name="bullet" format="1">
  <advance width="1200"/>
  <unicode hex="2022"/>
  <outline>
    <contour>
      <point x="298" y="807" type="qcurve"/>
      <point x="298" y="867"/>
      <point x="345" y="974"/>
      <point x="425" y="1053"/>
      <point x="532" y="1100"/>
      <point x="592" y="1100" type="qcurve"/>
      <point x="652" y="1100"/>
      <point x="759" y="1053"/>
      <point x="839" y="974"/>
      <point x="886" y="867"/>
      <point x="886" y="807" type="qcurve"/>
      <point x="886" y="747"/>
      <point x="840" y="638"/>
      <point x="761" y="556"/>
      <point x="655" y="508"/>
      <point x="595" y="508" type="qcurve"/>
      <point x="535" y="508"/>
      <point x="427" y="556"/>
      <point x="346" y="638"/>
      <point x="298" y="747"/>
    </contour>
  </outline>
</glyph>
<glyph name="triangularbullet" format="1">
  <advance width="900"/>
  <unicode hex="2023"/>
  <outline>
    <contour>
      <point x="200" y="956" type="line"/>
      <point x="700" y="650" type="line"/>
      <point x="200" y="350" type="line"/>
    </contour>
  </outline>
</glyph>
<glyph name="minute" format="1">
  <advance width="500"/>
  <unicode hex="2032"/>
  <outline>
    <contour>
      <point x="380" y="1230" type="line"/>
      <point x="219" y="885" type="line"/>
      <point x="66" y="885" type="line"/>
      <point x="130" y="1232" type="line"/>
      <point x="130" y="1523" type="line"/>
      <point x="380" y="1490" type="line"/>
    </contour>
  </outline>
</glyph>
<glyph name="guilsinglleft" format="1">
  <advance width="900"/>
  <unicode hex="2039"/>
  <outline>
    <contour>
      <point x="684" y="1106" type="line"/>
      <point x="773" y="880" type="line"/>
      <point x="442" y="583" type="line"/>
      <point x="366" y="550" type="line"/>
      <point x="441" y="517" type="line"/>
      <point x="775" y="224" type="line"/>
      <point x="681" y="-13" type="line"/>
      <point x="126" y="476" type="line"/>
      <point x="126" y="620" type="line"/>
    </contour>
  </outline>
</glyph>
<glyph name="guilsinglright" format="1">
  <advance width="900"/>
  <unicode hex="203A"/>
  <outline>
    <contour>
      <point x="776" y="619" type="line"/>
      <point x="776" y="476" type="line"/>
      <point x="220" y="-13" type="line"/>
      <point x="126" y="224" type="line"/>
      <point x="460" y="517" type="line"/>
      <point x="534" y="550" type="line"/>
      <point x="459" y="582" type="line"/>
      <point x="128" y="880" type="line"/>
      <point x="217" y="1106" type="line"/>
    </contour>
  </outline>
</glyph>
<glyph name="fivesuperior" format="1">
  <advance width="600"/>
  <unicode hex="2075"/>
  <outline>
    <contour>
      <point x="245" y="1243" type="line"/>
      <point x="257" y="1246"/>
      <point x="286" y="1249"/>
      <point x="303" y="1249" type="qcurve"/>
      <point x="361" y="1249"/>
      <point x="453" y="1215"/>
      <point x="516" y="1156"/>
      <point x="550" y="1078"/>
      <point x="550" y="1033" type="qcurve"/>
      <point x="550" y="981"/>
      <point x="509" y="895"/>
      <point x="438" y="826"/>
      <point x="344" y="773"/>
      <point x="238" y="738"/>
      <point x="125" y="720"/>
      <point x="71" y="720" type="qcurve"/>
      <point x="71" y="833" type="line"/>
      <point x="106" y="834"/>
      <point x="181" y="848"/>
      <point x="251" y="872"/>
      <point x="313" y="906"/>
      <point x="359" y="947"/>
      <point x="386" y="996"/>
      <point x="386" y="1023" type="qcurve"/>
      <point x="386" y="1043"/>
      <point x="372" y="1082"/>
      <point x="347" y="1112"/>
      <point x="312" y="1131"/>
      <point x="290" y="1131" type="qcurve"/>
      <point x="271" y="1131"/>
      <point x="238" y="1125"/>
      <point x="211" y="1115"/>
      <point x="191" y="1104"/>
      <point x="183" y="1099" type="qcurve"/>
      <point x="71" y="1099" type="line"/>
      <point x="71" y="1470" type="line"/>
      <point x="504" y="1470" type="line"/>
      <point x="504" y="1370" type="line"/>
      <point x="245" y="1370" type="line"/>
    </contour>
  </outline>
</glyph>
<glyph name="sixsuperior" format="1">
  <advance width="600"/>
  <unicode hex="2076"/>
  <outline>
    <contour>
      <point x="497" y="1360" type="line"/>
      <point x="484" y="1367"/>
      <point x="453" y="1370"/>
      <point x="441" y="1370" type="qcurve"/>
      <point x="407" y="1370"/>
      <point x="333" y="1336"/>
      <point x="268" y="1272"/>
      <point x="220" y="1179"/>
      <point x="211" y="1120" type="qcurve"/>
      <point x="293" y="1192" type="line"/>
      <point x="307" y="1195"/>
      <point x="332" y="1198"/>
      <point x="344" y="1198" type="qcurve"/>
      <point x="392" y="1198"/>
      <point x="483" y="1173"/>
      <point x="553" y="1121"/>
      <point x="595" y="1039"/>
      <point x="595" y="982" type="qcurve"/>
      <point x="595" y="927"/>
      <point x="555" y="828"/>
      <point x="482" y="754"/>
      <point x="380" y="711"/>
      <point x="319" y="711" type="qcurve"/>
      <point x="265" y="711"/>
      <point x="182" y="743"/>
      <point x="121" y="796"/>
      <point x="79" y="863"/>
      <point x="53" y="935"/>
      <point x="42" y="1005"/>
      <point x="42" y="1033" type="qcurve"/>
      <point x="42" y="1092"/>
      <point x="68" y="1204"/>
      <point x="116" y="1303"/>
      <point x="187" y="1386"/>
      <point x="276" y="1445"/>
      <point x="384" y="1478"/>
      <point x="446" y="1478" type="qcurve"/>
      <point x="455" y="1478"/>
      <point x="488" y="1476"/>
      <point x="514" y="1469" type="qcurve"/>
    </contour>
    <contour>
      <point x="337" y="1098" type="qcurve"/>
      <point x="319" y="1098"/>
      <point x="282" y="1083"/>
      <point x="249" y="1060"/>
      <point x="220" y="1032"/>
      <point x="211" y="1020" type="qcurve"/>
      <point x="211" y="1007"/>
      <point x="211" y="986"/>
      <point x="213" y="966"/>
      <point x="216" y="947"/>
      <point x="219" y="937" type="qcurve"/>
      <point x="225" y="913"/>
      <point x="245" y="871"/>
      <point x="270" y="839"/>
      <point x="302" y="820"/>
      <point x="320" y="820" type="qcurve"/>
      <point x="347" y="820"/>
      <point x="387" y="848"/>
      <point x="414" y="894"/>
      <point x="426" y="950"/>
      <point x="426" y="978" type="qcurve"/>
      <point x="426" y="1003"/>
      <point x="413" y="1047"/>
      <point x="389" y="1079"/>
      <point x="356" y="1098"/>
    </contour>
  </outline>
</glyph>
<glyph name="parenrightsuperior" format="1">
  <advance width="500"/>
  <unicode hex="207E"/>
  <outline>
    <contour>
      <point x="365" y="736" type="line"/>
      <point x="365" y="689"/>
      <point x="355" y="606"/>
      <point x="320" y="543"/>
      <point x="252" y="507"/>
      <point x="195" y="507" type="qcurve"/>
      <point x="183" y="507"/>
      <point x="154" y="510"/>
      <point x="126" y="517"/>
      <point x="100" y="528"/>
      <point x="89" y="534" type="qcurve"/>
      <point x="138" y="594" type="line"/>
      <point x="146" y="594"/>
      <point x="168" y="598"/>
      <point x="189" y="617"/>
      <point x="205" y="657"/>
      <point x="205" y="694" type="qcurve"/>
      <point x="205" y="1330" type="line"/>
      <point x="205" y="1366"/>
      <point x="190" y="1407"/>
      <point x="168" y="1427"/>
      <point x="143" y="1432"/>
      <point x="134" y="1432" type="qcurve"/>
      <point x="89" y="1489" type="line"/>
      <point x="100" y="1496"/>
      <point x="126" y="1506"/>
      <point x="154" y="1513"/>
      <point x="183" y="1517"/>
      <point x="195" y="1517" type="qcurve"/>
      <point x="252" y="1517"/>
      <point x="320" y="1483"/>
      <point x="355" y="1423"/>
      <point x="365" y="1342"/>
      <point x="365" y="1296" type="qcurve"/>
    </contour>
  </outline>
</glyph>
<glyph name="nsuperior" format="1">
  <advance width="600"/>
  <unicode hex="207F"/>
  <outline>
    <contour>
      <point x="228" y="1283" type="line"/>
      <point x="228" y="1188" type="line"/>
      <point x="273" y="1264" type="line"/>
      <point x="289" y="1269"/>
      <point x="322" y="1278"/>
      <point x="340" y="1278" type="qcurve"/>
      <point x="361" y="1278"/>
      <point x="402" y="1276"/>
      <point x="439" y="1266"/>
      <point x="472" y="1248"/>
      <point x="486" y="1232" type="qcurve"/>
      <point x="502" y="1215"/>
      <point x="519" y="1175"/>
      <point x="526" y="1135"/>
      <point x="528" y="1098"/>
      <point x="528" y="1083" type="qcurve"/>
      <point x="528" y="720" type="line"/>
      <point x="365" y="720" type="line"/>
      <point x="365" y="1098" type="line"/>
      <point x="365" y="1119"/>
      <point x="357" y="1146"/>
      <point x="344" y="1163"/>
      <point x="326" y="1170"/>
      <point x="315" y="1170" type="qcurve"/>
      <point x="306" y="1170"/>
      <point x="285" y="1164"/>
      <point x="262" y="1153"/>
      <point x="238" y="1137"/>
      <point x="228" y="1128" type="qcurve"/>
      <point x="228" y="720" type="line"/>
      <point x="65" y="720" type="line"/>
      <point x="65" y="1266" type="line"/>
    </contour>
  </outline>
</glyph>
<glyph name="zeroinferior" format="1">
  <advance width="600"/>
  <unicode hex="2080"/>
  <outline>
    <contour>
      <point x="299" y="-508" type="qcurve"/>
      <point x="252" y="-508"/>
      <point x="174" y="-476"/>
      <point x="112" y="-420"/>
      <point x="65" y="-345"/>
      <point x="34" y="-260"/>
      <point x="19" y="-169"/>
      <point x="19" y="-125" type="qcurve"/>
      <point x="19" y="-80"/>
      <point x="32" y="11"/>
      <point x="60" y="97"/>
      <point x="105" y="171"/>
      <point x="167" y="226"/>
      <point x="248" y="258"/>
      <point x="299" y="258" type="qcurve"/>
      <point x="345" y="258"/>
      <point x="423" y="225"/>
      <point x="485" y="169"/>
      <point x="532" y="94"/>
      <point x="563" y="9"/>
      <point x="579" y="-82"/>
      <point x="579" y="-125" type="qcurve"/>
      <point x="579" y="-170"/>
      <point x="565" y="-262"/>
      <point x="537" y="-347"/>
      <point x="493" y="-421"/>
      <point x="430" y="-477"/>
      <point x="349" y="-508"/>
    </contour>
    <contour>
      <point x="193" y="-105" type="qcurve"/>
      <point x="193" y="-130"/>
      <point x="196" y="-192"/>
      <point x="204" y="-255"/>
      <point x="219" y="-314"/>
      <point x="244" y="-360"/>
      <point x="278" y="-387"/>
      <point x="302" y="-387" type="qcurve"/>
      <point x="323" y="-387"/>
      <point x="355" y="-367"/>
      <point x="378" y="-331"/>
      <point x="393" y="-284"/>
      <point x="401" y="-230"/>
      <point x="405" y="-173"/>
      <point x="405" y="-146" type="qcurve"/>
      <point x="405" y="-120"/>
      <point x="402" y="-58"/>
      <point x="393" y="4"/>
      <point x="378" y="63"/>
      <point x="354" y="109"/>
      <point x="319" y="136"/>
      <point x="295" y="136" type="qcurve"/>
      <point x="274" y="136"/>
      <point x="242" y="116"/>
      <point x="219" y="80"/>
      <point x="205" y="33"/>
      <point x="196" y="-21"/>
      <point x="193" y="-78"/>
    </contour>
  </outline>
</glyph>
<glyph name="oneinferior" format="1">
  <advance width="600"/>
  <unicode hex="2081"/>
  <outline>
    <contour>
      <point x="265" y="-60" type="line"/>
      <point x="302" y="121" type="line"/>
      <point x="188" y="-14" type="line"/>
      <point x="146" y="-51" type="line"/>
      <point x="69" y="41" type="line"/>
      <point x="309" y="262" type="line"/>
      <point x="430" y="246" type="line"/>
      <point x="430" y="-400" type="line"/>
      <point x="552" y="-400" type="line"/>
      <point x="552" y="-500" type="line"/>
      <point x="143" y="-500" type="line"/>
      <point x="143" y="-400" type="line"/>
      <point x="265" y="-400" type="line"/>
    </contour>
  </outline>
</glyph>
<glyph name="twoinferior" format="1">
  <advance width="600"/>
  <unicode hex="2082"/>
  <outline>
    <contour>
      <point x="56" y="-500" type="line"/>
      <point x="56" y="-405" type="line"/>
      <point x="79" y="-368"/>
      <point x="141" y="-287"/>
      <point x="206" y="-208"/>
      <point x="268" y="-138"/>
      <point x="291" y="-113" type="qcurve"/>
      <point x="318" y="-84"/>
      <point x="356" y="-44"/>
      <point x="379" y="-10"/>
      <point x="390" y="25"/>
      <point x="390" y="48" type="qcurve"/>
      <point x="390" y="67"/>
      <point x="377" y="103"/>
      <point x="354" y="132"/>
      <point x="322" y="150"/>
      <point x="301" y="150" type="qcurve"/>
      <point x="260" y="150"/>
      <point x="198" y="95"/>
      <point x="174" y="48" type="qcurve"/>
      <point x="58" y="91" type="line"/>
      <point x="72" y="130"/>
      <point x="118" y="191"/>
      <point x="181" y="235"/>
      <point x="260" y="258"/>
      <point x="309" y="258" type="qcurve"/>
      <point x="366" y="258"/>
      <point x="455" y="221"/>
      <point x="516" y="160"/>
      <point x="548" y="82"/>
      <point x="548" y="43" type="qcurve"/>
      <point x="548" y="8"/>
      <point x="526" y="-51"/>
      <point x="489" y="-106"/>
      <point x="442" y="-160"/>
      <point x="417" y="-190" type="qcurve"/>
      <point x="392" y="-220"/>
      <point x="339" y="-282"/>
      <point x="290" y="-338"/>
      <point x="251" y="-385"/>
      <point x="240" y="-400" type="qcurve"/>
      <point x="561" y="-400" type="line"/>
      <point x="561" y="-500" type="line"/>
    </contour>
  </outline>
</glyph>
<glyph name="threeinferior" format="1">
  <advance width="600"/>
  <unicode hex="2083"/>
  <outline>
    <contour>
      <point x="131" y="-31" type="line"/>
      <point x="146" y="-21"/>
      <point x="187" y="9"/>
      <point x="233" y="45"/>
      <point x="282" y="85"/>
      <point x="326" y="126"/>
      <point x="363" y="168"/>
      <point x="375" y="187" type="qcurve"/>
      <point x="245" y="150" type="line"/>
      <point x="80" y="150" type="line"/>
      <point x="90" y="250" type="line"/>
      <point x="511" y="250" type="line"/>
      <point x="511" y="163" type="line"/>
      <point x="496" y="124"/>
      <point x="438" y="58"/>
      <point x="402" y="26" type="qcurve"/>
      <point x="324" y="-16" type="line"/>
      <point x="377" y="-16"/>
      <point x="463" y="-43"/>
      <point x="524" y="-94"/>
      <point x="558" y="-168"/>
      <point x="558" y="-214" type="qcurve"/>
      <point x="558" y="-263"/>
      <point x="517" y="-344"/>
      <point x="447" y="-408"/>
      <point x="352" y="-455"/>
      <point x="245" y="-485"/>
      <point x="130" y="-500"/>
      <point x="75" y="-500" type="qcurve"/>
      <point x="75" y="-400" type="line"/>
      <point x="134" y="-398"/>
      <point x="246" y="-371"/>
      <point x="334" y="-325"/>
      <point x="387" y="-259"/>
      <point x="387" y="-219" type="qcurve"/>
      <point x="387" y="-190"/>
      <point x="363" y="-150"/>
      <point x="321" y="-126"/>
      <point x="265" y="-115"/>
      <point x="234" y="-115" type="qcurve"/>
      <point x="227" y="-115"/>
      <point x="198" y="-117"/>
      <point x="167" y="-118"/>
      <point x="138" y="-120"/>
      <point x="131" y="-120" type="qcurve"/>
    </contour>
  </outline>
</glyph>
<glyph name="fiveinferior" format="1">
  <advance width="600"/>
  <unicode hex="2085"/>
  <outline>
    <contour>
      <point x="245" y="23" type="line"/>
      <point x="257" y="26"/>
      <point x="286" y="29"/>
      <point x="303" y="29" type="qcurve"/>
      <point x="361" y="29"/>
      <point x="453" y="-5"/>
      <point x="516" y="-64"/>
      <point x="550" y="-142"/>
      <point x="550" y="-187" type="qcurve"/>
      <point x="550" y="-239"/>
      <point x="509" y="-325"/>
      <point x="438" y="-394"/>
      <point x="344" y="-447"/>
      <point x="238" y="-482"/>
      <point x="125" y="-500"/>
      <point x="71" y="-500" type="qcurve"/>
      <point x="71" y="-387" type="line"/>
      <point x="106" y="-386"/>
      <point x="181" y="-372"/>
      <point x="251" y="-348"/>
      <point x="313" y="-314"/>
      <point x="359" y="-273"/>
      <point x="386" y="-224"/>
      <point x="386" y="-197" type="qcurve"/>
      <point x="386" y="-177"/>
      <point x="372" y="-138"/>
      <point x="347" y="-108"/>
      <point x="312" y="-89"/>
      <point x="290" y="-89" type="qcurve"/>
      <point x="271" y="-89"/>
      <point x="238" y="-95"/>
      <point x="211" y="-105"/>
      <point x="191" y="-116"/>
      <point x="183" y="-121" type="qcurve"/>
      <point x="71" y="-121" type="line"/>
      <point x="71" y="250" type="line"/>
      <point x="504" y="250" type="line"/>
      <point x="504" y="150" type="line"/>
      <point x="245" y="150" type="line"/>
    </contour>
  </outline>
</glyph>
<glyph name="sixinferior" format="1">
  <advance width="600"/>
  <unicode hex="2086"/>
  <outline>
    <contour>
      <point x="497" y="140" type="line"/>
      <point x="484" y="147"/>
      <point x="453" y="150"/>
      <point x="441" y="150" type="qcurve"/>
      <point x="407" y="150"/>
      <point x="333" y="116"/>
      <point x="268" y="52"/>
      <point x="220" y="-41"/>
      <point x="211" y="-100" type="qcurve"/>
      <point x="293" y="-28" type="line"/>
      <point x="307" y="-25"/>
      <point x="332" y="-22"/>
      <point x="344" y="-22" type="qcurve"/>
      <point x="392" y="-22"/>
      <point x="483" y="-47"/>
      <point x="553" y="-99"/>
      <point x="595" y="-181"/>
      <point x="595" y="-238" type="qcurve"/>
      <point x="595" y="-293"/>
      <point x="555" y="-392"/>
      <point x="482" y="-466"/>
      <point x="380" y="-509"/>
      <point x="319" y="-509" type="qcurve"/>
      <point x="265" y="-509"/>
      <point x="182" y="-477"/>
      <point x="121" y="-424"/>
      <point x="79" y="-357"/>
      <point x="53" y="-285"/>
      <point x="42" y="-215"/>
      <point x="42" y="-187" type="qcurve"/>
      <point x="42" y="-128"/>
      <point x="68" y="-16"/>
      <point x="116" y="83"/>
      <point x="187" y="166"/>
      <point x="276" y="225"/>
      <point x="384" y="258"/>
      <point x="446" y="258" type="qcurve"/>
      <point x="455" y="258"/>
      <point x="488" y="256"/>
      <point x="514" y="249" type="qcurve"/>
    </contour>
    <contour>
      <point x="337" y="-122" type="qcurve"/>
      <point x="319" y="-122"/>
      <point x="282" y="-137"/>
      <point x="249" y="-160"/>
      <point x="220" y="-188"/>
      <point x="211" y="-200" type="qcurve"/>
      <point x="211" y="-213"/>
      <point x="211" y="-234"/>
      <point x="213" y="-254"/>
      <point x="216" y="-273"/>
      <point x="219" y="-283" type="qcurve"/>
      <point x="225" y="-307"/>
      <point x="245" y="-349"/>
      <point x="270" y="-381"/>
      <point x="302" y="-400"/>
      <point x="320" y="-400" type="qcurve"/>
      <point x="347" y="-400"/>
      <point x="387" y="-372"/>
      <point x="414" y="-326"/>
      <point x="426" y="-270"/>
      <point x="426" y="-242" type="qcurve"/>
      <point x="426" y="-217"/>
      <point x="413" y="-173"/>
      <point x="389" y="-141"/>
      <point x="356" y="-122"/>
    </contour>
  </outline>
</glyph>
<glyph name="heightinferior" format="1">
  <advance width="600"/>
  <unicode hex="2088"/>
  <outline>
    <contour>
      <point x="308" y="258" type="qcurve"/>
      <point x="359" y="258"/>
      <point x="447" y="232"/>
      <point x="511" y="182"/>
      <point x="547" y="111"/>
      <point x="547" y="67" type="qcurve"/>
      <point x="547" y="41"/>
      <point x="527" y="-2"/>
      <point x="495" y="-38"/>
      <point x="455" y="-67"/>
      <point x="435" y="-78" type="qcurve"/>
      <point x="468" y="-94"/>
      <point x="526" y="-137"/>
      <point x="569" y="-189"/>
      <point x="593" y="-251"/>
      <point x="593" y="-287" type="qcurve"/>
      <point x="593" y="-344"/>
      <point x="545" y="-428"/>
      <point x="466" y="-483"/>
      <point x="364" y="-509"/>
      <point x="311" y="-509" type="qcurve"/>
      <point x="259" y="-509"/>
      <point x="161" y="-479"/>
      <point x="86" y="-421"/>
      <point x="41" y="-336"/>
      <point x="41" y="-280" type="qcurve"/>
      <point x="41" y="-244"/>
      <point x="62" y="-183"/>
      <point x="101" y="-132"/>
      <point x="153" y="-91"/>
      <point x="185" y="-76" type="qcurve"/>
      <point x="162" y="-63"/>
      <point x="123" y="-32"/>
      <point x="94" y="2"/>
      <point x="77" y="40"/>
      <point x="77" y="62" type="qcurve"/>
      <point x="77" y="113"/>
      <point x="121" y="187"/>
      <point x="189" y="235"/>
      <point x="270" y="258"/>
    </contour>
    <contour>
      <point x="431" y="-289" type="qcurve"/>
      <point x="431" y="-262"/>
      <point x="408" y="-218"/>
      <point x="371" y="-183"/>
      <point x="326" y="-155"/>
      <point x="303" y="-145" type="qcurve"/>
      <point x="282" y="-155"/>
      <point x="245" y="-183"/>
      <point x="218" y="-219"/>
      <point x="203" y="-263"/>
      <point x="203" y="-290" type="qcurve"/>
      <point x="203" y="-314"/>
      <point x="222" y="-355"/>
      <point x="253" y="-384"/>
      <point x="292" y="-400"/>
      <point x="311" y="-400" type="qcurve"/>
      <point x="334" y="-400"/>
      <point x="377" y="-385"/>
      <point x="410" y="-357"/>
      <point x="431" y="-316"/>
    </contour>
    <contour>
      <point x="237" y="78" type="qcurve"/>
      <point x="237" y="61"/>
      <point x="251" y="32"/>
      <point x="275" y="8"/>
      <point x="305" y="-11"/>
      <point x="321" y="-18" type="qcurve"/>
      <point x="335" y="-11"/>
      <point x="359" y="9"/>
      <point x="376" y="32"/>
      <point x="387" y="60"/>
      <point x="387" y="76" type="qcurve"/>
      <point x="387" y="95"/>
      <point x="372" y="123"/>
      <point x="351" y="141"/>
      <point x="327" y="150"/>
      <point x="317" y="150" type="qcurve"/>
      <point x="303" y="150"/>
      <point x="274" y="139"/>
      <point x="252" y="119"/>
      <point x="237" y="93"/>
    </contour>
  </outline>
</glyph>
<glyph name="plusinferior" format="1">
  <advance width="600"/>
  <unicode hex="208A"/>
  <outline>
    <contour>
      <point x="40" y="-150" type="line"/>
      <point x="220" y="-150" type="line"/>
      <point x="220" y="65" type="line"/>
      <point x="330" y="65" type="line"/>
      <point x="330" y="-150" type="line"/>
      <point x="510" y="-150" type="line"/>
      <point x="510" y="-250" type="line"/>
      <point x="330" y="-250" type="line"/>
      <point x="330" y="-450" type="line"/>
      <point x="220" y="-450" type="line"/>
      <point x="220" y="-250" type="line"/>
      <point x="40" y="-250" type="line"/>
    </contour>
  </outline>
</glyph>
<glyph name="equalinferior" format="1">
  <advance width="600"/>
  <unicode hex="208C"/>
  <outline>
    <contour>
      <point x="50" y="-100" type="line"/>
      <point x="450" y="-100" type="line"/>
      <point x="450" y="-210" type="line"/>
      <point x="50" y="-210" type="line"/>
    </contour>
    <contour>
      <point x="50" y="-300" type="line"/>
      <point x="450" y="-300" type="line"/>
      <point x="450" y="-410" type="line"/>
      <point x="50" y="-410" type="line"/>
    </contour>
  </outline>
</glyph>
<glyph name="indianrupee" format="1">
  <advance width="1200"/>
  <unicode hex="20B9"/>
  <outline>
    <contour>
      <point x="150" y="1500" type="line"/>
      <point x="1105" y="1500" type="line"/>
      <point x="992" y="1292" type="line"/>
      <point x="904" y="1292" type="line"/>
      <point x="760" y="1340" type="line"/>
      <point x="851" y="1251" type="line"/>
      <point x="861" y="1231"/>
      <point x="865" y="1183"/>
      <point x="865" y="1169" type="qcurve"/>
      <point x="1106" y="1169" type="line"/>
      <point x="992" y="959" type="line"/>
      <point x="900" y="959" type="line"/>
      <point x="787" y="990" type="line"/>
      <point x="847" y="925" type="line"/>
      <point x="825" y="866"/>
      <point x="744" y="765"/>
      <point x="639" y="687"/>
      <point x="516" y="636"/>
      <point x="452" y="627" type="qcurve"/>
      <point x="600" y="583" type="line"/>
      <point x="1037" y="0" type="line"/>
      <point x="669" y="0" type="line"/>
      <point x="242" y="573" type="line"/>
      <point x="234" y="583"/>
      <point x="222" y="583" type="qcurve"/>
      <point x="130" y="583" type="line"/>
      <point x="130" y="802" type="line"/>
      <point x="300" y="802" type="line"/>
      <point x="347" y="802"/>
      <point x="423" y="827"/>
      <point x="483" y="869"/>
      <point x="526" y="926"/>
      <point x="540" y="959" type="qcurve"/>
      <point x="92" y="959" type="line"/>
      <point x="150" y="1169" type="line"/>
      <point x="546" y="1169" type="line"/>
      <point x="540" y="1185"/>
      <point x="520" y="1228"/>
      <point x="483" y="1266"/>
      <point x="424" y="1292"/>
      <point x="380" y="1292" type="qcurve"/>
      <point x="92" y="1292" type="line"/>
    </contour>
  </outline>
</glyph>
<glyph name="aleph" format="1">
  <advance width="1200"/>
  <unicode hex="2135"/>
  <outline>
    <contour>
      <point x="687" y="1100" type="line"/>
      <point x="691" y="1044"/>
      <point x="736" y="976"/>
      <point x="800" y="928"/>
      <point x="872" y="890"/>
      <point x="933" y="840"/>
      <point x="973" y="766"/>
      <point x="973" y="707" type="qcurve"/>
      <point x="973" y="644"/>
      <point x="945" y="568" type="qcurve"/>
      <point x="859" y="568" type="line"/>
      <point x="859" y="607"/>
      <point x="844" y="664"/>
      <point x="819" y="709"/>
      <point x="784" y="744"/>
      <point x="763" y="759" type="qcurve"/>
      <point x="751" y="717"/>
      <point x="709" y="654"/>
      <point x="677" y="622" type="qcurve"/>
      <point x="774" y="565"/>
      <point x="897" y="444"/>
      <point x="966" y="326"/>
      <point x="992" y="216"/>
      <point x="992" y="168" type="qcurve"/>
      <point x="992" y="113"/>
      <point x="970" y="21"/>
      <point x="961" y="0" type="qcurve"/>
      <point x="856" y="0" type="line"/>
      <point x="856" y="64"/>
      <point x="815" y="165"/>
      <point x="743" y="251"/>
      <point x="645" y="327"/>
      <point x="531" y="408"/>
      <point x="405" y="500"/>
      <point x="342" y="558" type="qcurve"/>
      <point x="342" y="666" type="line"/>
      <point x="313" y="635"/>
      <point x="278" y="593"/>
      <point x="259" y="562"/>
      <point x="253" y="539"/>
      <point x="253" y="529" type="qcurve"/>
      <point x="253" y="490"/>
      <point x="291" y="420"/>
      <point x="349" y="353"/>
      <point x="415" y="288"/>
      <point x="473" y="219"/>
      <point x="511" y="145"/>
      <point x="511" y="103" type="qcurve"/>
      <point x="511" y="53"/>
      <point x="480" y="0" type="qcurve"/>
      <point x="98" y="0" type="line"/>
      <point x="138" y="140" type="line"/>
      <point x="313" y="140" type="line"/>
      <point x="160" y="228" type="line"/>
      <point x="134" y="267"/>
      <point x="98" y="362"/>
      <point x="98" y="421" type="qcurve"/>
      <point x="98" y="457"/>
      <point x="116" y="530"/>
      <point x="147" y="599"/>
      <point x="191" y="662"/>
      <point x="218" y="688" type="qcurve"/>
      <point x="157" y="750"/>
      <point x="100" y="867"/>
      <point x="100" y="936" type="qcurve"/>
      <point x="100" y="972"/>
      <point x="115" y="1052"/>
      <point x="130" y="1100" type="qcurve"/>
      <point x="219" y="1100" type="line"/>
      <point x="219" y="1042"/>
      <point x="274" y="937"/>
      <point x="362" y="842"/>
      <point x="472" y="758"/>
      <point x="528" y="721" type="qcurve"/>
      <point x="528" y="624" type="line"/>
      <point x="567" y="659"/>
      <point x="616" y="711"/>
      <point x="642" y="753"/>
      <point x="651" y="790"/>
      <point x="651" y="811" type="qcurve"/>
      <point x="651" y="823" type="line"/>
      <point x="606" y="858"/>
      <point x="565" y="924"/>
      <point x="565" y="969" type="qcurve"/>
      <point x="565" y="1020"/>
      <point x="593" y="1100" type="qcurve"/>
    </contour>
  </outline>
</glyph>
<glyph name="twothirds" format="1">
  <advance width="1500"/>
  <unicode hex="2154"/>
  <outline>
    <contour>
      <point x="474" y="0" type="line"/>
      <point x="289" y="0" type="line"/>
      <point x="1064" y="1500" type="line"/>
      <point x="1240" y="1500" type="line"/>
    </contour>
    <contour>
      <point x="74" y="722" type="line"/>
      <point x="74" y="817" type="line"/>
      <point x="97" y="854"/>
      <point x="159" y="935"/>
      <point x="224" y="1014"/>
      <point x="286" y="1084"/>
      <point x="309" y="1109" type="qcurve"/>
      <point x="336" y="1138"/>
      <point x="374" y="1178"/>
      <point x="397" y="1212"/>
      <point x="408" y="1247"/>
      <point x="408" y="1270" type="qcurve"/>
      <point x="408" y="1289"/>
      <point x="395" y="1325"/>
      <point x="372" y="1354"/>
      <point x="340" y="1372"/>
      <point x="319" y="1372" type="qcurve"/>
      <point x="278" y="1372"/>
      <point x="216" y="1317"/>
      <point x="192" y="1270" type="qcurve"/>
      <point x="76" y="1313" type="line"/>
      <point x="90" y="1352"/>
      <point x="136" y="1413"/>
      <point x="199" y="1457"/>
      <point x="278" y="1480"/>
      <point x="327" y="1480" type="qcurve"/>
      <point x="384" y="1480"/>
      <point x="473" y="1443"/>
      <point x="534" y="1382"/>
      <point x="566" y="1304"/>
      <point x="566" y="1265" type="qcurve"/>
      <point x="566" y="1230"/>
      <point x="544" y="1171"/>
      <point x="507" y="1116"/>
      <point x="460" y="1062"/>
      <point x="435" y="1032" type="qcurve"/>
      <point x="410" y="1002"/>
      <point x="357" y="940"/>
      <point x="308" y="884"/>
      <point x="269" y="837"/>
      <point x="258" y="822" type="qcurve"/>
      <point x="579" y="822" type="line"/>
      <point x="579" y="722" type="line"/>
    </contour>
    <contour>
      <point x="959" y="507" type="line"/>
      <point x="974" y="517"/>
      <point x="1015" y="547"/>
      <point x="1061" y="583"/>
      <point x="1110" y="623"/>
      <point x="1154" y="664"/>
      <point x="1191" y="706"/>
      <point x="1203" y="725" type="qcurve"/>
      <point x="1073" y="688" type="line"/>
      <point x="908" y="688" type="line"/>
      <point x="918" y="788" type="line"/>
      <point x="1339" y="788" type="line"/>
      <point x="1339" y="701" type="line"/>
      <point x="1324" y="662"/>
      <point x="1266" y="596"/>
      <point x="1230" y="564" type="qcurve"/>
      <point x="1152" y="522" type="line"/>
      <point x="1205" y="522"/>
      <point x="1291" y="495"/>
      <point x="1352" y="444"/>
      <point x="1386" y="370"/>
      <point x="1386" y="324" type="qcurve"/>
      <point x="1386" y="275"/>
      <point x="1345" y="194"/>
      <point x="1275" y="130"/>
      <point x="1180" y="83"/>
      <point x="1073" y="53"/>
      <point x="958" y="38"/>
      <point x="903" y="38" type="qcurve"/>
      <point x="903" y="138" type="line"/>
      <point x="962" y="140"/>
      <point x="1074" y="167"/>
      <point x="1162" y="213"/>
      <point x="1215" y="279"/>
      <point x="1215" y="319" type="qcurve"/>
      <point x="1215" y="348"/>
      <point x="1191" y="388"/>
      <point x="1149" y="412"/>
      <point x="1093" y="423"/>
      <point x="1062" y="423" type="qcurve"/>
      <point x="1055" y="423"/>
      <point x="1026" y="421"/>
      <point x="995" y="420"/>
      <point x="966" y="418"/>
      <point x="959" y="418" type="qcurve"/>
    </contour>
  </outline>
</glyph>
<glyph name="onefifth" format="1">
  <advance width="1500"/>
  <unicode hex="2155"/>
  <outline>
    <contour>
      <point x="473" y="0" type="line"/>
      <point x="288" y="0" type="line"/>
      <point x="1063" y="1500" type="line"/>
      <point x="1239" y="1500" type="line"/>
    </contour>
    <contour>
      <point x="282" y="1162" type="line"/>
      <point x="319" y="1343" type="line"/>
      <point x="205" y="1208" type="line"/>
      <point x="163" y="1171" type="line"/>
      <point x="86" y="1263" type="line"/>
      <point x="326" y="1484" type="line"/>
      <point x="447" y="1468" type="line"/>
      <point x="447" y="822" type="line"/>
      <point x="569" y="822" type="line"/>
      <point x="569" y="722" type="line"/>
      <point x="160" y="722" type="line"/>
      <point x="160" y="822" type="line"/>
      <point x="282" y="822" type="line"/>
    </contour>
    <contour>
      <point x="1072" y="561" type="line"/>
      <point x="1084" y="564"/>
      <point x="1113" y="567"/>
      <point x="1130" y="567" type="qcurve"/>
      <point x="1188" y="567"/>
      <point x="1280" y="533"/>
      <point x="1343" y="474"/>
      <point x="1377" y="396"/>
      <point x="1377" y="351" type="qcurve"/>
      <point x="1377" y="299"/>
      <point x="1336" y="213"/>
      <point x="1265" y="144"/>
      <point x="1171" y="91"/>
      <point x="1065" y="56"/>
      <point x="952" y="38"/>
      <point x="898" y="38" type="qcurve"/>
      <point x="898" y="151" type="line"/>
      <point x="933" y="152"/>
      <point x="1008" y="166"/>
      <point x="1078" y="190"/>
      <point x="1140" y="224"/>
      <point x="1186" y="265"/>
      <point x="1213" y="314"/>
      <point x="1213" y="341" type="qcurve"/>
      <point x="1213" y="361"/>
      <point x="1199" y="400"/>
      <point x="1174" y="430"/>
      <point x="1139" y="449"/>
      <point x="1117" y="449" type="qcurve"/>
      <point x="1098" y="449"/>
      <point x="1065" y="443"/>
      <point x="1038" y="433"/>
      <point x="1018" y="422"/>
      <point x="1010" y="417" type="qcurve"/>
      <point x="898" y="417" type="line"/>
      <point x="898" y="788" type="line"/>
      <point x="1331" y="788" type="line"/>
      <point x="1331" y="688" type="line"/>
      <point x="1072" y="688" type="line"/>
    </contour>
  </outline>
</glyph>
<glyph name="fourfifths" format="1">
  <advance width="1500"/>
  <unicode hex="2158"/>
  <outline>
    <contour>
      <point x="474" y="0" type="line"/>
      <point x="289" y="0" type="line"/>
      <point x="1064" y="1500" type="line"/>
      <point x="1240" y="1500" type="line"/>
    </contour>
    <contour>
      <point x="1073" y="561" type="line"/>
      <point x="1085" y="564"/>
      <point x="1114" y="567"/>
      <point x="1131" y="567" type="qcurve"/>
      <point x="1189" y="567"/>
      <point x="1281" y="533"/>
      <point x="1344" y="474"/>
      <point x="1378" y="396"/>
      <point x="1378" y="351" type="qcurve"/>
      <point x="1378" y="299"/>
      <point x="1337" y="213"/>
      <point x="1266" y="144"/>
      <point x="1172" y="91"/>
      <point x="1066" y="56"/>
      <point x="953" y="38"/>
      <point x="899" y="38" type="qcurve"/>
      <point x="899" y="151" type="line"/>
      <point x="934" y="152"/>
      <point x="1009" y="166"/>
      <point x="1079" y="190"/>
      <point x="1141" y="224"/>
      <point x="1187" y="265"/>
      <point x="1214" y="314"/>
      <point x="1214" y="341" type="qcurve"/>
      <point x="1214" y="361"/>
      <point x="1200" y="400"/>
      <point x="1175" y="430"/>
      <point x="1140" y="449"/>
      <point x="1118" y="449" type="qcurve"/>
      <point x="1099" y="449"/>
      <point x="1066" y="443"/>
      <point x="1039" y="433"/>
      <point x="1019" y="422"/>
      <point x="1011" y="417" type="qcurve"/>
      <point x="899" y="417" type="line"/>
      <point x="899" y="788" type="line"/>
      <point x="1332" y="788" type="line"/>
      <point x="1332" y="688" type="line"/>
      <point x="1073" y="688" type="line"/>
    </contour>
    <contour>
      <point x="587" y="872" type="line"/>
      <point x="498" y="872" type="line"/>
      <point x="498" y="722" type="line"/>
      <point x="338" y="722" type="line"/>
      <point x="338" y="872" type="line"/>
      <point x="38" y="872" type="line"/>
      <point x="38" y="972" type="line"/>
      <point x="285" y="1484" type="line"/>
      <point x="443" y="1468" type="line"/>
      <point x="279" y="1103" type="line"/>
      <point x="192" y="972" type="line"/>
      <point x="338" y="972" type="line"/>
      <point x="338" y="1121" type="line"/>
      <point x="498" y="1108" type="line"/>
      <point x="498" y="972" type="line"/>
      <point x="598" y="972" type="line"/>
    </contour>
  </outline>
</glyph>
<glyph name="fivesixths" format="1">
  <advance width="1500"/>
  <unicode hex="215A"/>
  <outline>
    <contour>
      <point x="474" y="0" type="line"/>
      <point x="289" y="0" type="line"/>
      <point x="1064" y="1500" type="line"/>
      <point x="1240" y="1500" type="line"/>
    </contour>
    <contour>
      <point x="1326" y="678" type="line"/>
      <point x="1313" y="685"/>
      <point x="1282" y="688"/>
      <point x="1270" y="688" type="qcurve"/>
      <point x="1236" y="688"/>
      <point x="1162" y="654"/>
      <point x="1097" y="590"/>
      <point x="1049" y="497"/>
      <point x="1040" y="438" type="qcurve"/>
      <point x="1122" y="510" type="line"/>
      <point x="1136" y="513"/>
      <point x="1161" y="516"/>
      <point x="1173" y="516" type="qcurve"/>
      <point x="1221" y="516"/>
      <point x="1312" y="491"/>
      <point x="1382" y="439"/>
      <point x="1424" y="357"/>
      <point x="1424" y="300" type="qcurve"/>
      <point x="1424" y="245"/>
      <point x="1384" y="146"/>
      <point x="1311" y="72"/>
      <point x="1209" y="29"/>
      <point x="1148" y="29" type="qcurve"/>
      <point x="1094" y="29"/>
      <point x="1011" y="61"/>
      <point x="950" y="114"/>
      <point x="908" y="181"/>
      <point x="882" y="253"/>
      <point x="871" y="323"/>
      <point x="871" y="351" type="qcurve"/>
      <point x="871" y="410"/>
      <point x="897" y="522"/>
      <point x="945" y="621"/>
      <point x="1016" y="704"/>
      <point x="1105" y="763"/>
      <point x="1213" y="796"/>
      <point x="1275" y="796" type="qcurve"/>
      <point x="1284" y="796"/>
      <point x="1317" y="794"/>
      <point x="1343" y="787" type="qcurve"/>
    </contour>
    <contour>
      <point x="1166" y="416" type="qcurve"/>
      <point x="1148" y="416"/>
      <point x="1111" y="401"/>
      <point x="1078" y="378"/>
      <point x="1049" y="350"/>
      <point x="1040" y="338" type="qcurve"/>
      <point x="1040" y="325"/>
      <point x="1040" y="304"/>
      <point x="1042" y="284"/>
      <point x="1045" y="265"/>
      <point x="1048" y="255" type="qcurve"/>
      <point x="1054" y="231"/>
      <point x="1074" y="189"/>
      <point x="1099" y="157"/>
      <point x="1131" y="138"/>
      <point x="1149" y="138" type="qcurve"/>
      <point x="1176" y="138"/>
      <point x="1216" y="166"/>
      <point x="1243" y="212"/>
      <point x="1255" y="268"/>
      <point x="1255" y="296" type="qcurve"/>
      <point x="1255" y="321"/>
      <point x="1242" y="365"/>
      <point x="1218" y="397"/>
      <point x="1185" y="416"/>
    </contour>
    <contour>
      <point x="264" y="1245" type="line"/>
      <point x="276" y="1248"/>
      <point x="305" y="1251"/>
      <point x="322" y="1251" type="qcurve"/>
      <point x="380" y="1251"/>
      <point x="472" y="1217"/>
      <point x="535" y="1158"/>
      <point x="569" y="1080"/>
      <point x="569" y="1035" type="qcurve"/>
      <point x="569" y="983"/>
      <point x="528" y="897"/>
      <point x="457" y="828"/>
      <point x="363" y="775"/>
      <point x="257" y="740"/>
      <point x="144" y="722"/>
      <point x="90" y="722" type="qcurve"/>
      <point x="90" y="835" type="line"/>
      <point x="125" y="836"/>
      <point x="200" y="850"/>
      <point x="270" y="874"/>
      <point x="332" y="908"/>
      <point x="378" y="949"/>
      <point x="405" y="998"/>
      <point x="405" y="1025" type="qcurve"/>
      <point x="405" y="1045"/>
      <point x="391" y="1084"/>
      <point x="366" y="1114"/>
      <point x="331" y="1133"/>
      <point x="309" y="1133" type="qcurve"/>
      <point x="290" y="1133"/>
      <point x="257" y="1127"/>
      <point x="230" y="1117"/>
      <point x="210" y="1106"/>
      <point x="202" y="1101" type="qcurve"/>
      <point x="90" y="1101" type="line"/>
      <point x="90" y="1472" type="line"/>
      <point x="523" y="1472" type="line"/>
      <point x="523" y="1372" type="line"/>
      <point x="264" y="1372" type="line"/>
    </contour>
  </outline>
</glyph>
<glyph name="threeeighths" format="1">
  <advance width="1500"/>
  <unicode hex="215C"/>
  <outline>
    <contour>
      <point x="474" y="0" type="line"/>
      <point x="289" y="0" type="line"/>
      <point x="1064" y="1500" type="line"/>
      <point x="1240" y="1500" type="line"/>
    </contour>
    <contour>
      <point x="150" y="1191" type="line"/>
      <point x="165" y="1201"/>
      <point x="206" y="1231"/>
      <point x="252" y="1267"/>
      <point x="301" y="1307"/>
      <point x="345" y="1348"/>
      <point x="382" y="1390"/>
      <point x="394" y="1409" type="qcurve"/>
      <point x="264" y="1372" type="line"/>
      <point x="99" y="1372" type="line"/>
      <point x="109" y="1472" type="line"/>
      <point x="530" y="1472" type="line"/>
      <point x="530" y="1385" type="line"/>
      <point x="515" y="1346"/>
      <point x="457" y="1280"/>
      <point x="421" y="1248" type="qcurve"/>
      <point x="343" y="1206" type="line"/>
      <point x="396" y="1206"/>
      <point x="482" y="1179"/>
      <point x="543" y="1128"/>
      <point x="577" y="1054"/>
      <point x="577" y="1008" type="qcurve"/>
      <point x="577" y="959"/>
      <point x="536" y="878"/>
      <point x="466" y="814"/>
      <point x="371" y="767"/>
      <point x="264" y="737"/>
      <point x="149" y="722"/>
      <point x="94" y="722" type="qcurve"/>
      <point x="94" y="822" type="line"/>
      <point x="153" y="824"/>
      <point x="265" y="851"/>
      <point x="353" y="897"/>
      <point x="406" y="963"/>
      <point x="406" y="1003" type="qcurve"/>
      <point x="406" y="1032"/>
      <point x="382" y="1072"/>
      <point x="340" y="1096"/>
      <point x="284" y="1107"/>
      <point x="253" y="1107" type="qcurve"/>
      <point x="246" y="1107"/>
      <point x="217" y="1105"/>
      <point x="186" y="1104"/>
      <point x="157" y="1102"/>
      <point x="150" y="1102" type="qcurve"/>
    </contour>
    <contour>
      <point x="1137" y="796" type="qcurve"/>
      <point x="1188" y="796"/>
      <point x="1276" y="770"/>
      <point x="1340" y="720"/>
      <point x="1376" y="649"/>
      <point x="1376" y="605" type="qcurve"/>
      <point x="1376" y="579"/>
      <point x="1356" y="536"/>
      <point x="1324" y="500"/>
      <point x="1284" y="471"/>
      <point x="1264" y="460" type="qcurve"/>
      <point x="1297" y="444"/>
      <point x="1355" y="401"/>
      <point x="1398" y="349"/>
      <point x="1422" y="287"/>
      <point x="1422" y="251" type="qcurve"/>
      <point x="1422" y="194"/>
      <point x="1374" y="110"/>
      <point x="1295" y="55"/>
      <point x="1193" y="29"/>
      <point x="1140" y="29" type="qcurve"/>
      <point x="1088" y="29"/>
      <point x="990" y="59"/>
      <point x="915" y="117"/>
      <point x="870" y="202"/>
      <point x="870" y="258" type="qcurve"/>
      <point x="870" y="294"/>
      <point x="891" y="355"/>
      <point x="930" y="406"/>
      <point x="982" y="447"/>
      <point x="1014" y="462" type="qcurve"/>
      <point x="991" y="475"/>
      <point x="952" y="506"/>
      <point x="923" y="540"/>
      <point x="906" y="578"/>
      <point x="906" y="600" type="qcurve"/>
      <point x="906" y="651"/>
      <point x="950" y="725"/>
      <point x="1018" y="773"/>
      <point x="1099" y="796"/>
    </contour>
    <contour>
      <point x="1260" y="249" type="qcurve"/>
      <point x="1260" y="276"/>
      <point x="1237" y="320"/>
      <point x="1200" y="355"/>
      <point x="1155" y="383"/>
      <point x="1132" y="393" type="qcurve"/>
      <point x="1111" y="383"/>
      <point x="1074" y="355"/>
      <point x="1047" y="319"/>
      <point x="1032" y="275"/>
      <point x="1032" y="248" type="qcurve"/>
      <point x="1032" y="224"/>
      <point x="1051" y="183"/>
      <point x="1082" y="154"/>
      <point x="1121" y="138"/>
      <point x="1140" y="138" type="qcurve"/>
      <point x="1163" y="138"/>
      <point x="1206" y="153"/>
      <point x="1239" y="181"/>
      <point x="1260" y="222"/>
    </contour>
    <contour>
      <point x="1066" y="616" type="qcurve"/>
      <point x="1066" y="599"/>
      <point x="1080" y="570"/>
      <point x="1104" y="546"/>
      <point x="1134" y="527"/>
      <point x="1150" y="520" type="qcurve"/>
      <point x="1164" y="527"/>
      <point x="1188" y="547"/>
      <point x="1205" y="570"/>
      <point x="1216" y="598"/>
      <point x="1216" y="614" type="qcurve"/>
      <point x="1216" y="633"/>
      <point x="1201" y="661"/>
      <point x="1180" y="679"/>
      <point x="1156" y="688"/>
      <point x="1146" y="688" type="qcurve"/>
      <point x="1132" y="688"/>
      <point x="1103" y="677"/>
      <point x="1081" y="657"/>
      <point x="1066" y="631"/>
    </contour>
  </outline>
</glyph>
<glyph name="arrowdblleftright" format="1">
  <advance width="1900"/>
  <unicode hex="21D4"/>
  <outline>
    <contour>
      <point x="1800" y="600" type="line"/>
      <point x="1693" y="509" type="line"/>
      <point x="1327" y="143" type="line"/>
      <point x="1157" y="143" type="line"/>
      <point x="1402" y="388" type="line"/>
      <point x="1302" y="400" type="line"/>
      <point x="598" y="400" type="line"/>
      <point x="498" y="388" type="line"/>
      <point x="743" y="143" type="line"/>
      <point x="573" y="143" type="line"/>
      <point x="207" y="509" type="line"/>
      <point x="100" y="600" type="line"/>
      <point x="207" y="691" type="line"/>
      <point x="573" y="1057" type="line"/>
      <point x="743" y="1057" type="line"/>
      <point x="498" y="813" type="line"/>
      <point x="598" y="800" type="line"/>
      <point x="1302" y="800" type="line"/>
      <point x="1402" y="813" type="line"/>
      <point x="1157" y="1057" type="line"/>
      <point x="1327" y="1057" type="line"/>
      <point x="1693" y="691" type="line"/>
    </contour>
    <contour>
      <point x="748" y="516" type="line"/>
      <point x="1152" y="516" type="line"/>
      <point x="1502" y="488" type="line"/>
      <point x="1633" y="600" type="line"/>
      <point x="1502" y="712" type="line"/>
      <point x="1152" y="684" type="line"/>
      <point x="748" y="684" type="line"/>
      <point x="398" y="712" type="line"/>
      <point x="267" y="600" type="line"/>
      <point x="398" y="488" type="line"/>
    </contour>
  </outline>
</glyph>
<glyph name="shift" format="1">
  <advance width="1200"/>
  <unicode hex="21E7"/>
  <outline>
    <contour>
      <point x="599" y="1430" type="line"/>
      <point x="690" y="1323" type="line"/>
      <point x="1072" y="957" type="line"/>
      <point x="1072" y="855" type="line"/>
      <point x="917" y="855" type="line"/>
      <point x="909" y="755" type="line"/>
      <point x="909" y="0" type="line"/>
      <point x="289" y="0" type="line"/>
      <point x="289" y="755" type="line"/>
      <point x="280" y="855" type="line"/>
      <point x="126" y="855" type="line"/>
      <point x="126" y="957" type="line"/>
      <point x="508" y="1323" type="line"/>
    </contour>
    <contour>
      <point x="399" y="662" type="line"/>
      <point x="399" y="100" type="line"/>
      <point x="799" y="100" type="line"/>
      <point x="799" y="662" type="line"/>
      <point x="820" y="937" type="line"/>
      <point x="932" y="937" type="line"/>
      <point x="599" y="1273" type="line"/>
      <point x="266" y="937" type="line"/>
      <point x="379" y="937" type="line"/>
    </contour>
  </outline>
</glyph>
<glyph name="infinity" format="1">
  <advance width="1700"/>
  <unicode hex="221E"/>
  <outline>
    <contour>
      <point x="477" y="330" type="qcurve"/>
      <point x="534" y="330"/>
      <point x="626" y="396"/>
      <point x="696" y="494"/>
      <point x="745" y="605"/>
      <point x="760" y="650" type="qcurve"/>
      <point x="737" y="699"/>
      <point x="680" y="808"/>
      <point x="606" y="900"/>
      <point x="514" y="960"/>
      <point x="457" y="960" type="qcurve"/>
      <point x="410" y="960"/>
      <point x="339" y="905"/>
      <point x="292" y="817"/>
      <point x="269" y="706"/>
      <point x="269" y="650" type="qcurve"/>
      <point x="269" y="594"/>
      <point x="299" y="480"/>
      <point x="354" y="388"/>
      <point x="431" y="330"/>
    </contour>
    <contour>
      <point x="820" y="551" type="qcurve"/>
      <point x="824" y="456" type="line"/>
      <point x="798" y="405"/>
      <point x="733" y="307"/>
      <point x="647" y="230"/>
      <point x="536" y="183"/>
      <point x="466" y="183" type="qcurve"/>
      <point x="369" y="183"/>
      <point x="230" y="267"/>
      <point x="142" y="401"/>
      <point x="100" y="567"/>
      <point x="100" y="650" type="qcurve"/>
      <point x="100" y="705"/>
      <point x="116" y="817"/>
      <point x="151" y="921"/>
      <point x="207" y="1011"/>
      <point x="288" y="1078"/>
      <point x="396" y="1117"/>
      <point x="466" y="1117" type="qcurve"/>
      <point x="533" y="1117"/>
      <point x="641" y="1070"/>
      <point x="737" y="979"/>
      <point x="829" y="842"/>
      <point x="880" y="752" type="qcurve"/>
      <point x="876" y="847" type="line"/>
      <point x="902" y="898"/>
      <point x="967" y="996"/>
      <point x="1053" y="1073"/>
      <point x="1163" y="1120"/>
      <point x="1234" y="1120" type="qcurve"/>
      <point x="1299" y="1120"/>
      <point x="1403" y="1081"/>
      <point x="1485" y="1014"/>
      <point x="1544" y="924"/>
      <point x="1582" y="820"/>
      <point x="1600" y="708"/>
      <point x="1600" y="653" type="qcurve"/>
      <point x="1600" y="570"/>
      <point x="1564" y="404"/>
      <point x="1479" y="270"/>
      <point x="1338" y="186"/>
      <point x="1234" y="186" type="qcurve"/>
      <point x="1166" y="186"/>
      <point x="1059" y="233"/>
      <point x="963" y="324"/>
      <point x="871" y="461"/>
    </contour>
    <contour>
      <point x="1223" y="973" type="qcurve"/>
      <point x="1166" y="973"/>
      <point x="1074" y="907"/>
      <point x="1004" y="809"/>
      <point x="955" y="698"/>
      <point x="940" y="653" type="qcurve"/>
      <point x="962" y="604"/>
      <point x="1020" y="495"/>
      <point x="1094" y="403"/>
      <point x="1186" y="343"/>
      <point x="1243" y="343" type="qcurve"/>
      <point x="1290" y="343"/>
      <point x="1361" y="398"/>
      <point x="1408" y="486"/>
      <point x="1431" y="597"/>
      <point x="1431" y="653" type="qcurve"/>
      <point x="1431" y="709"/>
      <point x="1401" y="823"/>
      <point x="1346" y="915"/>
      <point x="1269" y="973"/>
    </contour>
  </outline>
</glyph>
<glyph name="union" format="1">
  <advance width="1500"/>
  <unicode hex="222A"/>
  <outline>
    <contour>
      <point x="749" y="143" type="qcurve"/>
      <point x="835" y="143"/>
      <point x="971" y="191"/>
      <point x="1075" y="274"/>
      <point x="1150" y="386"/>
      <point x="1198" y="512"/>
      <point x="1220" y="646"/>
      <point x="1220" y="710" type="qcurve"/>
      <point x="1220" y="1280" type="line"/>
      <point x="1399" y="1300" type="line"/>
      <point x="1399" y="745" type="line"/>
      <point x="1399" y="574"/>
      <point x="1318" y="293"/>
      <point x="1155" y="93"/>
      <point x="911" y="-17"/>
      <point x="749" y="-17" type="qcurve"/>
      <point x="587" y="-17"/>
      <point x="344" y="93"/>
      <point x="181" y="293"/>
      <point x="100" y="574"/>
      <point x="100" y="745" type="qcurve"/>
      <point x="100" y="1280" type="line"/>
      <point x="279" y="1300" type="line"/>
      <point x="279" y="710" type="line"/>
      <point x="279" y="646"/>
      <point x="301" y="512"/>
      <point x="349" y="386"/>
      <point x="423" y="274"/>
      <point x="528" y="191"/>
      <point x="664" y="143"/>
    </contour>
  </outline>
</glyph>
<glyph name="congruent" format="1">
  <advance width="1000"/>
  <unicode hex="2245"/>
  <outline>
    <contour>
      <point x="100" y="600" type="line"/>
      <point x="900" y="600" type="line"/>
      <point x="900" y="460" type="line"/>
      <point x="100" y="460" type="line"/>
    </contour>
    <contour>
      <point x="100" y="300" type="line"/>
      <point x="900" y="300" type="line"/>
      <point x="900" y="160" type="line"/>
      <point x="100" y="160" type="line"/>
    </contour>
    <contour>
      <point x="660" y="700" type="qcurve"/>
      <point x="625" y="700"/>
      <point x="563" y="725"/>
      <point x="506" y="763"/>
      <point x="453" y="807"/>
      <point x="402" y="845"/>
      <point x="351" y="870"/>
      <point x="325" y="870" type="qcurve"/>
      <point x="294" y="870"/>
      <point x="239" y="855"/>
      <point x="185" y="827"/>
      <point x="130" y="786"/>
      <point x="100" y="760" type="qcurve"/>
      <point x="100" y="860" type="line"/>
      <point x="120" y="888"/>
      <point x="166" y="938"/>
      <point x="224" y="977"/>
      <point x="295" y="1000"/>
      <point x="340" y="1000" type="qcurve"/>
      <point x="392" y="1000"/>
      <point x="481" y="947"/>
      <point x="561" y="883"/>
      <point x="636" y="830"/>
      <point x="675" y="830" type="qcurve"/>
      <point x="736" y="830"/>
      <point x="840" y="887"/>
      <point x="900" y="940" type="qcurve"/>
      <point x="900" y="840" type="line"/>
      <point x="880" y="812"/>
      <point x="834" y="762"/>
      <point x="776" y="723"/>
      <point x="705" y="700"/>
    </contour>
  </outline>
</glyph>
<glyph name="notequal" format="1">
  <advance width="1000"/>
  <unicode hex="2260"/>
  <outline>
    <contour>
      <point x="391" y="0" type="line"/>
      <point x="236" y="0" type="line"/>
      <point x="597" y="1000" type="line"/>
      <point x="743" y="1000" type="line"/>
    </contour>
    <contour>
      <point x="100" y="800" type="line"/>
      <point x="900" y="800" type="line"/>
      <point x="900" y="581" type="line"/>
      <point x="100" y="581" type="line"/>
    </contour>
    <contour>
      <point x="100" y="400" type="line"/>
      <point x="900" y="400" type="line"/>
      <point x="900" y="181" type="line"/>
      <point x="100" y="181" type="line"/>
    </contour>
  </outline>
</glyph>
<glyph name="lessequal" format="1">
  <advance width="1300"/>
  <unicode hex="2264"/>
  <outline>
    <contour>
      <point x="200" y="135" type="line"/>
      <point x="1100" y="135" type="line"/>
      <point x="1080" y="0" type="line"/>
      <point x="200" y="0" type="line"/>
    </contour>
    <contour>
      <point x="1137" y="1172" type="line"/>
      <point x="1137" y="957" type="line"/>
      <point x="470" y="673" type="line"/>
      <point x="1137" y="392" type="line"/>
      <point x="1137" y="177" type="line"/>
      <point x="130" y="586" type="line"/>
      <point x="130" y="766" type="line"/>
    </contour>
  </outline>
</glyph>
<glyph name="circleplus" format="1">
  <advance width="1700"/>
  <unicode hex="2295"/>
  <outline>
    <contour>
      <point x="82" y="750" type="qcurve"/>
      <point x="82" y="856"/>
      <point x="137" y="1052"/>
      <point x="237" y="1222"/>
      <point x="377" y="1362"/>
      <point x="547" y="1462"/>
      <point x="743" y="1517"/>
      <point x="849" y="1517" type="qcurve"/>
      <point x="955" y="1517"/>
      <point x="1151" y="1462"/>
      <point x="1321" y="1362"/>
      <point x="1461" y="1222"/>
      <point x="1561" y="1052"/>
      <point x="1616" y="856"/>
      <point x="1616" y="750" type="qcurve"/>
      <point x="1616" y="644"/>
      <point x="1561" y="448"/>
      <point x="1461" y="278"/>
      <point x="1321" y="138"/>
      <point x="1151" y="38"/>
      <point x="955" y="-17"/>
      <point x="849" y="-17" type="qcurve"/>
      <point x="743" y="-17"/>
      <point x="547" y="38"/>
      <point x="377" y="138"/>
      <point x="237" y="278"/>
      <point x="137" y="448"/>
      <point x="82" y="644"/>
    </contour>
    <contour>
      <point x="235" y="675" type="line"/>
      <point x="248" y="570"/>
      <point x="340" y="384"/>
      <point x="483" y="241"/>
      <point x="669" y="149"/>
      <point x="774" y="136" type="qcurve"/>
      <point x="774" y="675" type="line"/>
    </contour>
    <contour>
      <point x="774" y="1362" type="line"/>
      <point x="669" y="1349"/>
      <point x="483" y="1257"/>
      <point x="340" y="1115"/>
      <point x="248" y="930"/>
      <point x="235" y="825" type="qcurve"/>
      <point x="774" y="825" type="line"/>
    </contour>
    <contour>
      <point x="924" y="136" type="line"/>
      <point x="1029" y="149"/>
      <point x="1214" y="241"/>
      <point x="1356" y="384"/>
      <point x="1448" y="570"/>
      <point x="1461" y="675" type="qcurve"/>
      <point x="924" y="675" type="line"/>
    </contour>
    <contour>
      <point x="1461" y="825" type="line"/>
      <point x="1448" y="930"/>
      <point x="1356" y="1115"/>
      <point x="1214" y="1257"/>
      <point x="1029" y="1349"/>
      <point x="924" y="1362" type="qcurve"/>
      <point x="924" y="825" type="line"/>
    </contour>
  </outline>
</glyph>
<glyph name="blackrightpointingtriangle" format="1">
  <advance width="1000"/>
  <unicode hex="25B6"/>
  <outline>
    <contour>
      <point x="150" y="1135" type="line"/>
      <point x="899" y="700" type="line"/>
      <point x="150" y="266" type="line"/>
      <point x="175" y="700" type="line"/>
    </contour>
  </outline>
</glyph>
<glyph name="whiterightpointingtriangle" format="1">
  <advance width="1000"/>
  <unicode hex="25B7"/>
  <outline>
    <contour>
      <point x="150" y="266" type="line"/>
      <point x="175" y="700" type="line"/>
      <point x="150" y="1135" type="line"/>
      <point x="899" y="700" type="line"/>
    </contour>
    <contour>
      <point x="239" y="991" type="line"/>
      <point x="255" y="700" type="line"/>
      <point x="239" y="410" type="line"/>
      <point x="740" y="700" type="line"/>
    </contour>
  </outline>
</glyph>
<glyph name="circlewithlowerhalfblack" format="1">
  <advance width="1000"/>
  <unicode hex="25D2"/>
  <outline>
    <contour>
      <point x="500" y="1117" type="qcurve"/>
      <point x="586" y="1117"/>
      <point x="738" y="1052"/>
      <point x="851" y="939"/>
      <point x="916" y="787"/>
      <point x="916" y="701" type="qcurve"/>
      <point x="916" y="615"/>
      <point x="851" y="463"/>
      <point x="738" y="350"/>
      <point x="586" y="285"/>
      <point x="500" y="285" type="qcurve"/>
      <point x="414" y="285"/>
      <point x="262" y="350"/>
      <point x="149" y="463"/>
      <point x="84" y="615"/>
      <point x="84" y="701" type="qcurve"/>
      <point x="84" y="787"/>
      <point x="149" y="939"/>
      <point x="262" y="1052"/>
      <point x="414" y="1117"/>
    </contour>
    <contour>
      <point x="500" y="1001" type="qcurve"/>
      <point x="438" y="1001"/>
      <point x="328" y="954"/>
      <point x="247" y="873"/>
      <point x="200" y="763"/>
      <point x="200" y="701" type="qcurve"/>
      <point x="800" y="701" type="line"/>
      <point x="800" y="763"/>
      <point x="753" y="873"/>
      <point x="672" y="954"/>
      <point x="562" y="1001"/>
    </contour>
  </outline>
</glyph>
<glyph name="cloud" format="1">
  <advance width="1800"/>
  <unicode hex="2601"/>
  <outline>
    <contour>
      <point x="802" y="1101" type="qcurve"/>
      <point x="938" y="1101"/>
      <point x="1131" y="966"/>
      <point x="1175" y="837" type="qcurve"/>
      <point x="1199" y="846"/>
      <point x="1253" y="855"/>
      <point x="1280" y="855" type="qcurve"/>
      <point x="1330" y="855"/>
      <point x="1426" y="820"/>
      <point x="1501" y="758"/>
      <point x="1547" y="671"/>
      <point x="1547" y="619" type="qcurve"/>
      <point x="1547" y="598"/>
      <point x="1544" y="576" type="qcurve"/>
      <point x="1599" y="552"/>
      <point x="1642" y="513" type="qcurve"/>
      <point x="1660" y="496"/>
      <point x="1696" y="454"/>
      <point x="1723" y="400"/>
      <point x="1740" y="336"/>
      <point x="1740" y="298" type="qcurve"/>
      <point x="1740" y="242"/>
      <point x="1707" y="149"/>
      <point x="1651" y="77"/>
      <point x="1576" y="30"/>
      <point x="1533" y="20" type="qcurve"/>
      <point x="1482" y="5"/>
      <point x="1361" y="0"/>
      <point x="1290" y="0" type="qcurve"/>
      <point x="541" y="0" type="line"/>
      <point x="462" y="0"/>
      <point x="304" y="47"/>
      <point x="178" y="138"/>
      <point x="100" y="275"/>
      <point x="100" y="365" type="qcurve"/>
      <point x="100" y="422"/>
      <point x="136" y="522"/>
      <point x="203" y="606"/>
      <point x="298" y="673"/>
      <point x="357" y="697" type="qcurve"/>
      <point x="357" y="788"/>
      <point x="432" y="938"/>
      <point x="556" y="1043"/>
      <point x="716" y="1101"/>
    </contour>
    <contour>
      <point x="427" y="557" type="line"/>
      <point x="352" y="528"/>
      <point x="261" y="425"/>
      <point x="261" y="365" type="qcurve"/>
      <point x="261" y="314"/>
      <point x="308" y="235"/>
      <point x="386" y="181"/>
      <point x="487" y="152"/>
      <point x="541" y="152" type="qcurve"/>
      <point x="1290" y="152" type="line"/>
      <point x="1368" y="152"/>
      <point x="1477" y="164"/>
      <point x="1546" y="196"/>
      <point x="1577" y="252"/>
      <point x="1577" y="297" type="qcurve"/>
      <point x="1577" y="331"/>
      <point x="1547" y="384"/>
      <point x="1495" y="430"/>
      <point x="1423" y="473"/>
      <point x="1381" y="496" type="qcurve"/>
      <point x="1391" y="510"/>
      <point x="1404" y="554"/>
      <point x="1404" y="580" type="qcurve"/>
      <point x="1404" y="606"/>
      <point x="1384" y="653"/>
      <point x="1349" y="689"/>
      <point x="1302" y="710"/>
      <point x="1274" y="710" type="qcurve"/>
      <point x="1256" y="710"/>
      <point x="1221" y="701"/>
      <point x="1192" y="686"/>
      <point x="1169" y="669"/>
      <point x="1162" y="660" type="qcurve"/>
      <point x="1028" y="767" type="line"/>
      <point x="975" y="939"/>
      <point x="802" y="939" type="qcurve"/>
      <point x="740" y="939"/>
      <point x="635" y="903"/>
      <point x="560" y="836"/>
      <point x="518" y="740"/>
      <point x="518" y="680" type="qcurve"/>
      <point x="549" y="557" type="line"/>
    </contour>
  </outline>
</glyph>
<glyph name="snowman" format="1">
  <advance width="1666"/>
  <unicode hex="2603"/>
  <outline>
    <contour>
      <point x="799" y="749" type="qcurve"/>
      <point x="799" y="728"/>
      <point x="829" y="698"/>
      <point x="850" y="698" type="qcurve"/>
      <point x="871" y="698"/>
      <point x="901" y="728"/>
      <point x="901" y="749" type="qcurve"/>
      <point x="901" y="770"/>
      <point x="871" y="800"/>
      <point x="850" y="800" type="qcurve"/>
      <point x="829" y="800"/>
      <point x="799" y="770"/>
    </contour>
    <contour>
      <point x="799" y="349" type="qcurve"/>
      <point x="799" y="328"/>
      <point x="829" y="298"/>
      <point x="850" y="298" type="qcurve"/>
      <point x="871" y="298"/>
      <point x="901" y="328"/>
      <point x="901" y="349" type="qcurve"/>
      <point x="901" y="370"/>
      <point x="871" y="400"/>
      <point x="850" y="400" type="qcurve"/>
      <point x="829" y="400"/>
      <point x="799" y="370"/>
    </contour>
    <contour>
      <point x="599" y="1250" type="qcurve"/>
      <point x="599" y="1229"/>
      <point x="628" y="1200"/>
      <point x="649" y="1200" type="qcurve"/>
      <point x="670" y="1200"/>
      <point x="699" y="1229"/>
      <point x="699" y="1250" type="qcurve"/>
      <point x="699" y="1271"/>
      <point x="670" y="1300"/>
      <point x="649" y="1300" type="qcurve"/>
      <point x="628" y="1300"/>
      <point x="599" y="1271"/>
    </contour>
    <contour>
      <point x="899" y="1260" type="qcurve"/>
      <point x="899" y="1257"/>
      <point x="914" y="1244"/>
      <point x="936" y="1231"/>
      <point x="962" y="1221"/>
      <point x="973" y="1221" type="qcurve"/>
      <point x="984" y="1221"/>
      <point x="999" y="1233"/>
      <point x="999" y="1250" type="qcurve"/>
      <point x="999" y="1271"/>
      <point x="970" y="1300"/>
      <point x="949" y="1300" type="qcurve"/>
      <point x="928" y="1300"/>
      <point x="899" y="1281"/>
    </contour>
    <contour>
      <point x="1231" y="783" type="line"/>
      <point x="1251" y="752"/>
      <point x="1283" y="644"/>
      <point x="1305" y="523"/>
      <point x="1316" y="407"/>
      <point x="1316" y="368" type="qcurve"/>
      <point x="1316" y="261"/>
      <point x="1235" y="114"/>
      <point x="1094" y="23"/>
      <point x="906" y="-17"/>
      <point x="799" y="-17" type="qcurve"/>
      <point x="692" y="-17"/>
      <point x="504" y="23"/>
      <point x="363" y="114"/>
      <point x="282" y="261"/>
      <point x="282" y="368" type="qcurve"/>
      <point x="282" y="433"/>
      <point x="313" y="581"/>
      <point x="370" y="727"/>
      <point x="450" y="858"/>
      <point x="499" y="906" type="qcurve"/>
      <point x="553" y="958"/>
      <point x="612" y="982" type="qcurve"/>
      <point x="586" y="1003"/>
      <point x="544" y="1042"/>
      <point x="515" y="1087"/>
      <point x="499" y="1141"/>
      <point x="499" y="1177" type="qcurve"/>
      <point x="499" y="1239"/>
      <point x="546" y="1361"/>
      <point x="627" y="1457"/>
      <point x="737" y="1517"/>
      <point x="799" y="1517" type="qcurve"/>
      <point x="861" y="1517"/>
      <point x="971" y="1457"/>
      <point x="1052" y="1361"/>
      <point x="1099" y="1239"/>
      <point x="1099" y="1177" type="qcurve"/>
      <point x="1099" y="1141"/>
      <point x="1083" y="1087"/>
      <point x="1054" y="1042"/>
      <point x="1012" y="1003"/>
      <point x="986" y="982" type="qcurve"/>
      <point x="1006" y="974"/>
      <point x="1056" y="949"/>
      <point x="1110" y="913"/>
      <point x="1165" y="867"/>
      <point x="1189" y="839" type="qcurve"/>
      <point x="1172" y="962" type="line"/>
      <point x="1314" y="1207" type="line"/>
      <point x="1436" y="1137" type="line"/>
    </contour>
    <contour>
      <point x="799" y="549" type="qcurve"/>
      <point x="799" y="528"/>
      <point x="829" y="498"/>
      <point x="850" y="498" type="qcurve"/>
      <point x="871" y="498"/>
      <point x="901" y="528"/>
      <point x="901" y="549" type="qcurve"/>
      <point x="901" y="570"/>
      <point x="871" y="600"/>
      <point x="850" y="600" type="qcurve"/>
      <point x="829" y="600"/>
      <point x="799" y="570"/>
    </contour>
    <contour>
      <point x="776" y="1208" type="qcurve"/>
      <point x="769" y="1197"/>
      <point x="769" y="1183" type="qcurve"/>
      <point x="769" y="1170"/>
      <point x="782" y="1147"/>
      <point x="794" y="1140" type="qcurve"/>
      <point x="801" y="1135"/>
      <point x="848" y="1115"/>
      <point x="905" y="1094"/>
      <point x="960" y="1078"/>
      <point x="977" y="1078" type="qcurve"/>
      <point x="989" y="1078"/>
      <point x="992" y="1083" type="qcurve"/>
      <point x="993" y="1084"/>
      <point x="993" y="1087" type="qcurve"/>
      <point x="993" y="1099"/>
      <point x="953" y="1142"/>
      <point x="901" y="1186"/>
      <point x="853" y="1222"/>
      <point x="844" y="1227" type="qcurve"/>
      <point x="833" y="1234"/>
      <point x="819" y="1234" type="qcurve"/>
      <point x="806" y="1234"/>
      <point x="783" y="1221"/>
    </contour>
  </outline>
</glyph>
<glyph name="phone" format="1">
  <advance width="1100"/>
  <unicode hex="260E"/>
  <outline>
    <contour>
      <point x="629" y="629" type="qcurve"/>
      <point x="652" y="663"/>
      <point x="713" y="750"/>
      <point x="769" y="829"/>
      <point x="807" y="890"/>
      <point x="807" y="899" type="qcurve"/>
      <point x="807" y="911"/>
      <point x="761" y="943"/>
      <point x="706" y="976"/>
      <point x="660" y="1009"/>
      <point x="660" y="1023" type="qcurve"/>
      <point x="660" y="1044"/>
      <point x="683" y="1109"/>
      <point x="721" y="1183"/>
      <point x="767" y="1256"/>
      <point x="814" y="1316"/>
      <point x="855" y="1353"/>
      <point x="869" y="1353" type="qcurve"/>
      <point x="884" y="1353"/>
      <point x="942" y="1312"/>
      <point x="1000" y="1248"/>
      <point x="1043" y="1172"/>
      <point x="1043" y="1136" type="qcurve"/>
      <point x="1043" y="1081"/>
      <point x="1012" y="933"/>
      <point x="953" y="767"/>
      <point x="869" y="590"/>
      <point x="815" y="506" type="qcurve"/>
      <point x="761" y="422"/>
      <point x="637" y="270"/>
      <point x="511" y="146"/>
      <point x="390" y="55"/>
      <point x="340" y="32" type="qcurve"/>
      <point x="327" y="26"/>
      <point x="296" y="21"/>
      <point x="279" y="21" type="qcurve"/>
      <point x="246" y="21"/>
      <point x="177" y="37"/>
      <point x="117" y="61"/>
      <point x="75" y="88"/>
      <point x="70" y="99" type="qcurve"/>
      <point x="68" y="105"/>
      <point x="68" y="111" type="qcurve"/>
      <point x="68" y="128"/>
      <point x="90" y="184"/>
      <point x="125" y="249"/>
      <point x="171" y="317"/>
      <point x="218" y="376"/>
      <point x="263" y="420"/>
      <point x="281" y="428" type="qcurve"/>
      <point x="285" y="430"/>
      <point x="289" y="430" type="qcurve"/>
      <point x="303" y="430"/>
      <point x="347" y="404"/>
      <point x="394" y="373"/>
      <point x="436" y="347"/>
      <point x="449" y="347" type="qcurve"/>
      <point x="454" y="347"/>
      <point x="456" y="348" type="qcurve"/>
      <point x="464" y="351"/>
      <point x="500" y="411"/>
      <point x="548" y="495"/>
      <point x="603" y="590"/>
    </contour>
  </outline>
</glyph>
<glyph name="spade" format="1">
  <advance width="1400"/>
  <unicode hex="2660"/>
  <outline>
    <contour>
      <point x="116" y="591" type="qcurve"/>
      <point x="116" y="667"/>
      <point x="191" y="804"/>
      <point x="303" y="928"/>
      <point x="435" y="1042"/>
      <point x="547" y="1149"/>
      <point x="622" y="1250"/>
      <point x="622" y="1300" type="qcurve"/>
      <point x="779" y="1300" type="line"/>
      <point x="779" y="1250"/>
      <point x="854" y="1149"/>
      <point x="966" y="1042"/>
      <point x="1097" y="928"/>
      <point x="1209" y="804"/>
      <point x="1284" y="667"/>
      <point x="1284" y="591" type="qcurve"/>
      <point x="1284" y="518"/>
      <point x="1237" y="400"/>
      <point x="1153" y="316"/>
      <point x="1035" y="271"/>
      <point x="964" y="271" type="qcurve"/>
      <point x="763" y="441" type="line"/>
      <point x="763" y="401"/>
      <point x="771" y="320"/>
      <point x="797" y="245"/>
      <point x="846" y="181"/>
      <point x="925" y="133"/>
      <point x="1040" y="106"/>
      <point x="1120" y="106" type="qcurve"/>
      <point x="1120" y="0" type="line"/>
      <point x="280" y="0" type="line"/>
      <point x="280" y="106" type="line"/>
      <point x="400" y="106"/>
      <point x="541" y="165"/>
      <point x="615" y="261"/>
      <point x="636" y="381"/>
      <point x="636" y="441" type="qcurve"/>
      <point x="436" y="271" type="line"/>
      <point x="365" y="271"/>
      <point x="247" y="316"/>
      <point x="163" y="400"/>
      <point x="116" y="518"/>
    </contour>
  </outline>
</glyph>
<glyph name="warning" format="1">
  <advance width="1900"/>
  <unicode hex="26A0"/>
  <outline>
    <contour>
      <point x="1774" y="261" type="line"/>
      <point x="1809" y="201"/>
      <point x="1809" y="146" type="qcurve"/>
      <point x="1809" y="81"/>
      <point x="1711" y="0"/>
      <point x="1623" y="0" type="qcurve"/>
      <point x="276" y="0" type="line"/>
      <point x="188" y="0"/>
      <point x="92" y="80"/>
      <point x="92" y="145" type="qcurve"/>
      <point x="92" y="171"/>
      <point x="109" y="230"/>
      <point x="127" y="261" type="qcurve"/>
      <point x="801" y="1410" type="line"/>
      <point x="832" y="1464"/>
      <point x="909" y="1517"/>
      <point x="951" y="1517" type="qcurve"/>
      <point x="990" y="1517"/>
      <point x="1070" y="1463"/>
      <point x="1101" y="1410" type="qcurve"/>
    </contour>
    <contour>
      <point x="1703" y="123" type="line"/>
      <point x="951" y="1409" type="line"/>
      <point x="204" y="123" type="line"/>
    </contour>
    <contour>
      <point x="1026" y="1100" type="line"/>
      <point x="1026" y="573" type="line"/>
      <point x="876" y="560" type="line"/>
      <point x="876" y="1100" type="line"/>
    </contour>
    <contour>
      <point x="864" y="351" type="qcurve"/>
      <point x="864" y="369"/>
      <point x="878" y="400"/>
      <point x="901" y="423"/>
      <point x="932" y="438"/>
      <point x="950" y="438" type="qcurve"/>
      <point x="969" y="438"/>
      <point x="999" y="423"/>
      <point x="1023" y="400"/>
      <point x="1037" y="369"/>
      <point x="1037" y="351" type="qcurve"/>
      <point x="1037" y="333"/>
      <point x="1023" y="301"/>
      <point x="1000" y="278"/>
      <point x="969" y="263"/>
      <point x="951" y="263" type="qcurve"/>
      <point x="933" y="263"/>
      <point x="901" y="278"/>
      <point x="878" y="301"/>
      <point x="864" y="333"/>
    </contour>
  </outline>
</glyph>
<glyph name="whitecircledtwo" format="1">
  <advance width="1700"/>
  <unicode hex="2781"/>
  <outline>
    <contour>
      <point x="82" y="750" type="qcurve"/>
      <point x="82" y="856"/>
      <point x="137" y="1052"/>
      <point x="237" y="1222"/>
      <point x="377" y="1362"/>
      <point x="547" y="1462"/>
      <point x="743" y="1517"/>
      <point x="849" y="1517" type="qcurve"/>
      <point x="955" y="1517"/>
      <point x="1151" y="1462"/>
      <point x="1321" y="1362"/>
      <point x="1461" y="1222"/>
      <point x="1561" y="1052"/>
      <point x="1616" y="856"/>
      <point x="1616" y="750" type="qcurve"/>
      <point x="1616" y="644"/>
      <point x="1561" y="448"/>
      <point x="1461" y="278"/>
      <point x="1321" y="138"/>
      <point x="1151" y="38"/>
      <point x="955" y="-17"/>
      <point x="849" y="-17" type="qcurve"/>
      <point x="743" y="-17"/>
      <point x="547" y="38"/>
      <point x="377" y="138"/>
      <point x="237" y="278"/>
      <point x="137" y="448"/>
      <point x="82" y="644"/>
    </contour>
    <contour>
      <point x="200" y="750" type="qcurve"/>
      <point x="200" y="616"/>
      <point x="302" y="379"/>
      <point x="478" y="203"/>
      <point x="715" y="101"/>
      <point x="849" y="101" type="qcurve"/>
      <point x="938" y="101"/>
      <point x="1104" y="147"/>
      <point x="1248" y="232"/>
      <point x="1366" y="351"/>
      <point x="1451" y="495"/>
      <point x="1497" y="660"/>
      <point x="1497" y="750" type="qcurve"/>
      <point x="1497" y="884"/>
      <point x="1395" y="1120"/>
      <point x="1219" y="1296"/>
      <point x="983" y="1398"/>
      <point x="849" y="1398" type="qcurve"/>
      <point x="760" y="1398"/>
      <point x="594" y="1352"/>
      <point x="450" y="1267"/>
      <point x="331" y="1149"/>
      <point x="246" y="1005"/>
      <point x="200" y="839"/>
    </contour>
    <contour>
      <point x="561" y="300" type="line"/>
      <point x="561" y="414" type="line"/>
      <point x="589" y="458"/>
      <point x="663" y="556"/>
      <point x="741" y="650"/>
      <point x="816" y="734"/>
      <point x="844" y="765" type="qcurve"/>
      <point x="876" y="800"/>
      <point x="922" y="848"/>
      <point x="949" y="889"/>
      <point x="962" y="930"/>
      <point x="962" y="958" type="qcurve"/>
      <point x="962" y="980"/>
      <point x="947" y="1024"/>
      <point x="919" y="1059"/>
      <point x="880" y="1080"/>
      <point x="856" y="1080" type="qcurve"/>
      <point x="807" y="1080"/>
      <point x="732" y="1014"/>
      <point x="703" y="958" type="qcurve"/>
      <point x="564" y="1010" type="line"/>
      <point x="581" y="1056"/>
      <point x="636" y="1130"/>
      <point x="711" y="1182"/>
      <point x="807" y="1210"/>
      <point x="865" y="1210" type="qcurve"/>
      <point x="933" y="1210"/>
      <point x="1040" y="1165"/>
      <point x="1114" y="1092"/>
      <point x="1152" y="999"/>
      <point x="1152" y="952" type="qcurve"/>
      <point x="1152" y="910"/>
      <point x="1126" y="839"/>
      <point x="1081" y="773"/>
      <point x="1025" y="709"/>
      <point x="995" y="673" type="qcurve"/>
      <point x="965" y="637"/>
      <point x="901" y="562"/>
      <point x="843" y="495"/>
      <point x="795" y="439"/>
      <point x="782" y="420" type="qcurve"/>
      <point x="1167" y="420" type="line"/>
      <point x="1167" y="300" type="line"/>
    </contour>
  </outline>
</glyph>
<glyph name="whitecircledsix" format="1">
  <advance width="1700"/>
  <unicode hex="2785"/>
  <outline>
    <contour>
      <point x="82" y="750" type="qcurve"/>
      <point x="82" y="856"/>
      <point x="137" y="1052"/>
      <point x="237" y="1222"/>
      <point x="377" y="1362"/>
      <point x="547" y="1462"/>
      <point x="743" y="1517"/>
      <point x="849" y="1517" type="qcurve"/>
      <point x="955" y="1517"/>
      <point x="1151" y="1462"/>
      <point x="1321" y="1362"/>
      <point x="1461" y="1222"/>
      <point x="1561" y="1052"/>
      <point x="1616" y="856"/>
      <point x="1616" y="750" type="qcurve"/>
      <point x="1616" y="644"/>
      <point x="1561" y="448"/>
      <point x="1461" y="278"/>
      <point x="1321" y="138"/>
      <point x="1151" y="38"/>
      <point x="955" y="-17"/>
      <point x="849" y="-17" type="qcurve"/>
      <point x="743" y="-17"/>
      <point x="547" y="38"/>
      <point x="377" y="138"/>
      <point x="237" y="278"/>
      <point x="137" y="448"/>
      <point x="82" y="644"/>
    </contour>
    <contour>
      <point x="200" y="750" type="qcurve"/>
      <point x="200" y="616"/>
      <point x="302" y="379"/>
      <point x="478" y="203"/>
      <point x="715" y="101"/>
      <point x="849" y="101" type="qcurve"/>
      <point x="938" y="101"/>
      <point x="1104" y="147"/>
      <point x="1248" y="232"/>
      <point x="1366" y="351"/>
      <point x="1451" y="495"/>
      <point x="1497" y="660"/>
      <point x="1497" y="750" type="qcurve"/>
      <point x="1497" y="884"/>
      <point x="1395" y="1120"/>
      <point x="1219" y="1296"/>
      <point x="983" y="1398"/>
      <point x="849" y="1398" type="qcurve"/>
      <point x="760" y="1398"/>
      <point x="594" y="1352"/>
      <point x="450" y="1267"/>
      <point x="331" y="1149"/>
      <point x="246" y="1005"/>
      <point x="200" y="839"/>
    </contour>
    <contour>
      <point x="1060" y="1068" type="line"/>
      <point x="1044" y="1076"/>
      <point x="1008" y="1080"/>
      <point x="993" y="1080" type="qcurve"/>
      <point x="952" y="1080"/>
      <point x="864" y="1040"/>
      <point x="786" y="963"/>
      <point x="727" y="851"/>
      <point x="717" y="780" type="qcurve"/>
      <point x="816" y="867" type="line"/>
      <point x="832" y="870"/>
      <point x="862" y="874"/>
      <point x="876" y="874" type="qcurve"/>
      <point x="934" y="874"/>
      <point x="1043" y="844"/>
      <point x="1127" y="781"/>
      <point x="1177" y="683"/>
      <point x="1177" y="615" type="qcurve"/>
      <point x="1177" y="548"/>
      <point x="1129" y="430"/>
      <point x="1042" y="341"/>
      <point x="920" y="290"/>
      <point x="846" y="290" type="qcurve"/>
      <point x="781" y="290"/>
      <point x="682" y="328"/>
      <point x="609" y="391"/>
      <point x="558" y="472"/>
      <point x="528" y="558"/>
      <point x="514" y="642"/>
      <point x="514" y="676" type="qcurve"/>
      <point x="514" y="747"/>
      <point x="545" y="881"/>
      <point x="603" y="1000"/>
      <point x="688" y="1099"/>
      <point x="795" y="1171"/>
      <point x="925" y="1210"/>
      <point x="999" y="1210" type="qcurve"/>
      <point x="1009" y="1210"/>
      <point x="1050" y="1207"/>
      <point x="1080" y="1199" type="qcurve"/>
    </contour>
    <contour>
      <point x="868" y="754" type="qcurve"/>
      <point x="846" y="754"/>
      <point x="802" y="736"/>
      <point x="762" y="708"/>
      <point x="728" y="675"/>
      <point x="717" y="661" type="qcurve"/>
      <point x="717" y="645"/>
      <point x="717" y="619"/>
      <point x="720" y="596"/>
      <point x="723" y="573"/>
      <point x="727" y="560" type="qcurve"/>
      <point x="734" y="532"/>
      <point x="757" y="481"/>
      <point x="788" y="443"/>
      <point x="826" y="420"/>
      <point x="848" y="420" type="qcurve"/>
      <point x="880" y="420"/>
      <point x="928" y="454"/>
      <point x="960" y="509"/>
      <point x="975" y="577"/>
      <point x="975" y="610" type="qcurve"/>
      <point x="975" y="640"/>
      <point x="959" y="692"/>
      <point x="930" y="731"/>
      <point x="891" y="754"/>
    </contour>
  </outline>
</glyph>
